<?xml version="1.0" encoding="utf-8"?>
<!-- Generator: Adobe Illustrator 16.0.0, SVG Export Plug-In . SVG Version: 6.00 Build 0)  -->
<!DOCTYPE svg PUBLIC "-//W3C//DTD SVG 1.1//EN" "http://www.w3.org/Graphics/SVG/1.1/DTD/svg11.dtd">
<svg version="1.1" id="Layer_1" xmlns="http://www.w3.org/2000/svg" xmlns:xlink="http://www.w3.org/1999/xlink" x="0px" y="0px"
	 width="320.366px" height="561.701px" viewBox="0 0 320.366 561.701" enable-background="new 0 0 320.366 561.701"
	 xml:space="preserve">
<polygon fill="#C22428" points="247.557,25.45 320.366,98.256 247.556,171.069 232.995,156.507 291.248,98.25 232.996,40.01 "/>
<polygon fill="#C22428" points="72.808,25.449 0,98.256 72.81,171.069 87.372,156.507 29.119,98.25 87.371,40.01 "/>
<rect x="111.157" y="59.205" transform="matrix(0.2378 0.9713 -0.9713 0.2378 228.0655 -73.1931)" fill="#C22428" width="99.023" height="99.022"/>
<rect x="77.274" y="6.032" transform="matrix(0.7071 0.7071 -0.7071 0.7071 41.4609 -58.9061)" fill="#C22428" width="29.125" height="29.125"/>
<rect x="213.483" y="6.032" transform="matrix(-0.7071 0.7071 -0.7071 -0.7071 403.8605 -126.0951)" fill="#C22428" width="29.125" height="29.125"/>
<polygon fill="#020202" points="232.995,394.235 232.995,561.701 171.002,561.701 171.002,466.596 150.324,466.596 150.324,561.701 
	88.347,561.701 88.347,394.235 137.8,394.235 137.83,394.264 156.557,412.991 160.664,417.112 164.785,412.991 183.511,394.264 
	183.541,394.235 "/>
<g>
	<polygon fill="#020202" points="177.794,390.144 174.049,393.886 160.665,407.273 147.291,393.886 143.548,390.144 
		146.905,386.787 160.665,373.014 174.437,386.787 	"/>
</g>
<g>
	<polygon fill="#C22428" points="161.36,317.947 179.441,299.867 161.36,188.871 143.282,299.868 	"/>
	<polygon fill="#C22428" points="250.534,177.254 225.565,152.284 203.239,174.61 175.516,174.61 168.047,187.714 187.283,299.871 
		161.363,325.793 135.441,299.871 154.679,187.714 147.194,174.61 117.52,174.354 95.45,152.284 70.479,177.254 88.347,195.123 
		88.347,386.474 137.378,386.474 137.83,386.022 156.542,367.295 160.664,363.188 164.785,367.295 183.511,386.022 183.963,386.474 
		232.995,386.474 232.995,194.796 	"/>
</g>
</svg>
