<svg width="500" height="500" xmlns="http://www.w3.org/2000/svg">

 <g>
  <title>background</title>
  <rect fill="none" id="canvas_background" height="402" width="582" y="-1" x="-1"/>
 </g>
 <g>
  <title>Layer 1</title>
  <polyline id="svg_2" stroke-width="10" stroke-miterlimit="2.6131" stroke-linejoin="round" stroke-linecap="round" stroke="#c22227" points="   25,386.911 416.464,386.911 416.464,417.032  " fill="none"/>
  <path id="svg_3" stroke-width="10" stroke-miterlimit="2.6131" stroke-linejoin="round" stroke-linecap="round" stroke="#c22227" fill="none" d="m416.464,417.032c0,7.129 -5.825,12.936 -12.917,12.936"/>
  <line id="svg_4" y2="429.968" y1="429.968" x2="35.337" x1="403.547" stroke-width="10" stroke-miterlimit="2.6131" stroke-linejoin="round" stroke-linecap="round" stroke="#c22227" fill="none"/>
  <path id="svg_5" stroke-width="10" stroke-miterlimit="2.6131" stroke-linejoin="round" stroke-linecap="round" stroke="#c22227" fill="none" d="m35.337,429.968c-5.685,0 -10.337,-4.662 -10.337,-10.347"/>
  <line id="svg_6" y2="386.911" y1="419.621" x2="25" x1="25" stroke-width="10" stroke-miterlimit="2.6131" stroke-linejoin="round" stroke-linecap="round" stroke="#c22227" fill="none"/>
  <line id="svg_7" y2="181.766" y1="181.766" x2="59.633" x1="146.629" stroke-width="10" stroke-miterlimit="2.6131" stroke-linejoin="round" stroke-linecap="round" stroke="#c22227" fill="none"/>
  <path id="svg_8" stroke-width="10" stroke-miterlimit="2.6131" stroke-linejoin="round" stroke-linecap="round" stroke="#c22227" fill="none" d="m59.633,181.766c-6.369,0 -11.575,5.206 -11.575,11.557"/>
  <polyline id="svg_9" stroke-width="10" stroke-miterlimit="2.6131" stroke-linejoin="round" stroke-linecap="round" stroke="#c22227" points="   48.058,193.322 48.058,386.911 393.406,386.911 393.406,315.674  " fill="none"/>
  <line id="svg_10" y2="181.766" y1="181.766" x2="203.673" x1="282.104" stroke-width="10" stroke-miterlimit="2.6131" stroke-linejoin="round" stroke-linecap="round" stroke="#c22227" fill="none"/>
  <line id="svg_11" y2="181.766" y1="181.766" x2="314.355" x1="384.063" stroke-width="10" stroke-miterlimit="2.6131" stroke-linejoin="round" stroke-linecap="round" stroke="#c22227" fill="none"/>
  <line id="svg_12" y2="215.357" y1="279.192" x2="393.406" x1="393.406" stroke-width="10" stroke-miterlimit="2.6131" stroke-linejoin="round" stroke-linecap="round" stroke="#c22227" fill="none"/>
  <line id="svg_13" y2="408.439" y1="408.439" x2="170.869" x1="44.005" stroke-width="10" stroke-miterlimit="2.6131" stroke-linejoin="round" stroke-linecap="round" stroke="#c22227" fill="none"/>
  <path id="svg_14" stroke-width="10" stroke-miterlimit="2.6131" stroke-linejoin="round" stroke-linecap="round" stroke="#c22227" fill="none" d="m353.163,411.169c1.511,0 2.73,-1.238 2.73,-2.729c0,-1.52 -1.22,-2.729 -2.73,-2.729c-1.51,0 -2.748,1.21 -2.748,2.729c0,1.491 1.238,2.729 2.748,2.729"/>
  <path id="svg_15" stroke-width="10" stroke-miterlimit="2.6131" stroke-linejoin="round" stroke-linecap="round" stroke="#c22227" fill="none" d="m373.66,411.169c1.52,0 2.749,-1.238 2.749,-2.729c0,-1.52 -1.229,-2.729 -2.749,-2.729c-1.501,0 -2.721,1.21 -2.721,2.729c0,1.491 1.22,2.729 2.721,2.729"/>
  <path id="svg_16" stroke-width="10" stroke-miterlimit="2.6131" stroke-linejoin="round" stroke-linecap="round" stroke="#c22227" fill="none" d="m392.469,411.169c1.51,0 2.748,-1.238 2.748,-2.729c0,-1.52 -1.238,-2.729 -2.748,-2.729c-1.492,0 -2.73,1.21 -2.73,2.729c-0.001,1.491 1.238,2.729 2.73,2.729"/>
  <path id="svg_17" stroke-width="10" stroke-miterlimit="2.6131" stroke-linejoin="round" stroke-linecap="round" stroke="#c22227" fill="none" d="m328.492,281.819c0,25.188 -20.422,45.618 -45.6,45.618s-45.59,-20.431 -45.59,-45.618c0,-25.168 20.412,-45.6 45.59,-45.6s45.6,20.432 45.6,45.6"/>
  <path id="svg_18" stroke-width="10" stroke-miterlimit="2.6131" stroke-linejoin="round" stroke-linecap="round" stroke="#c22227" fill="none" d="m314.6,101.729c0,17.514 -14.202,31.688 -31.707,31.688c-17.514,0 -31.688,-14.174 -31.688,-31.688c0,-17.514 14.174,-31.697 31.688,-31.697c17.504,0 31.707,14.183 31.707,31.697"/>
  <path id="svg_19" stroke-width="10" stroke-miterlimit="2.6131" stroke-linejoin="round" stroke-linecap="round" stroke="#c22227" fill="none" d="m475,281.819c0,17.514 -14.193,31.707 -31.707,31.707s-31.697,-14.193 -31.697,-31.707c0,-17.495 14.184,-31.688 31.697,-31.688s31.707,14.193 31.707,31.688"/>
  <path id="svg_20" stroke-width="10" stroke-miterlimit="2.6131" stroke-linejoin="round" stroke-linecap="round" stroke="#c22227" fill="none" d="m445.46,144.083c0,11.735 -9.512,21.266 -21.266,21.266c-11.764,0 -21.304,-9.53 -21.304,-21.266c0,-11.764 9.54,-21.285 21.304,-21.285c11.754,0 21.266,9.521 21.266,21.285"/>
  <path id="svg_21" stroke-width="10" stroke-miterlimit="2.6131" stroke-linejoin="round" stroke-linecap="round" stroke="#c22227" fill="none" d="m120.738,139.187c0,11.763 -9.54,21.284 -21.284,21.284c-11.764,0 -21.266,-9.521 -21.266,-21.284c0,-11.745 9.502,-21.285 21.266,-21.285c11.744,-0.001 21.284,9.539 21.284,21.285"/>
  <line id="svg_22" y2="160.471" y1="254.053" x2="410.17" x1="320.162" stroke-width="10" stroke-miterlimit="2.6131" stroke-linejoin="round" stroke-linecap="round" stroke="#c22227" fill="none"/>
  <line id="svg_23" y2="134.205" y1="234.841" x2="282.893" x1="282.893" stroke-width="10" stroke-miterlimit="2.6131" stroke-linejoin="round" stroke-linecap="round" stroke="#c22227" fill="none"/>
  <polyline id="svg_24" stroke-width="10" stroke-miterlimit="2.6131" stroke-linejoin="round" stroke-linecap="round" stroke="#c22227" points="   328.492,281.819 392.149,281.819 411.596,281.819  " fill="none"/>
  <line id="svg_25" y2="254.794" y1="153.633" x2="244.686" x1="115.514" stroke-width="10" stroke-miterlimit="2.6131" stroke-linejoin="round" stroke-linecap="round" stroke="#c22227" fill="none"/>
 </g>
</svg>