<svg width="719.9999999999999" height="719.9999999999999" xmlns="http://www.w3.org/2000/svg">

 <g>
  <title>background</title>
  <rect fill="none" id="canvas_background" height="402" width="582" y="-1" x="-1"/>
 </g>
 <g>
  <title>Layer 1</title>
  <ellipse ry="302.873687" rx="302.873687" id="svg_92" cy="363.371516" cx="359.438086" stroke-width="NaN" fill="#c22227"/>
  <path id="svg_79" d="m398.503136,422.891006c35.946,-35.947 -13.097,-84.991 -49.047,-49.042c-35.946,35.946 -54.108,76.067 -40.564,89.61c13.543,13.545 53.662,-4.619 89.611,-40.568z" fill="#ffffff"/>
  <path id="svg_81" d="m320.788136,345.177006c35.948,-35.948 -13.094,-84.992 -49.043,-49.043c-35.946,35.946 -54.109,76.066 -40.566,89.61c13.541,13.542 53.661,-4.618 89.609,-40.567z" fill="#ffffff"/>
  <path id="svg_82" d="m145.286755,546.482714c4.181,-1.75 60.639,-5.596 76.368,-21.323c14.868,-14.869 4.816,-36.542 21.06,-34.257c15.426,2.188 7.174,23.408 6.176,27.66c31.543,-19.943 41.803,-38.314 41.801,-63.395c-0.002,-52.905 -64.378,-67.241 -89.5,-42.118c-10.893,10.893 -12.058,21.739 -12.058,21.739s27.065,-13.994 29.701,4.623c2.623,18.61 -20.792,6.252 -36.975,22.432c-16.181,16.182 -17.502,34.146 -17.502,34.146s30.508,-16.176 33.138,2.437c2.626,18.617 -26.405,10.605 -34.957,19.156c-7.269,7.269 -17.252,28.9 -17.252,28.9z" fill="#ffffff"/>
  <path id="svg_85" d="m538.327136,156.313006c-1.189,-1.19 -4.899,-1.73 -10.6,-1.47c-0.36,0.02 -0.73,0.04 -1.11,0.06c-0.1,0 -0.21,0.01 -0.31,0.02c-0.24,0.01 -0.49,0.03 -0.74,0.05c-0.07,0 -0.14,0.01 -0.22,0.02c-0.42,0.03 -0.851,0.06 -1.3,0.1c-0.91,0.08 -1.86,0.17 -2.83,0.29c-0.431,0.05 -0.87,0.1 -1.32,0.16c-1.55,0.19 -3.18,0.43 -4.89,0.71c-0.53,0.09 -1.08,0.18 -1.631,0.27c-0.119,0.02 -0.239,0.04 -0.35,0.06c-0.54,0.1 -1.09,0.2 -1.65,0.3c-0.34,0.06 -0.68,0.12 -1.029,0.19c-7.24,1.37 -15.58,3.4 -24.681,6.16c-0.479,0.15 -0.97,0.3 -1.449,0.45c-1.971,0.61 -3.98,1.25 -6.011,1.93l-1.529,0.51c-2.57,0.87 -5.181,1.8 -7.83,2.78c-0.53,0.19 -1.061,0.39 -1.59,0.59c-3.21,1.21 -6.46,2.5 -9.771,3.87c-0.55,0.22 -1.1,0.46 -1.649,0.69c-0.561,0.23 -1.11,0.47 -1.671,0.71c-0.55,0.23 -1.109,0.48 -1.67,0.72c-0.689,0.3 -1.38,0.6 -2.069,0.91c-0.99,0.44 -1.99,0.89 -2.98,1.34c-0.01,0 -0.01,0.01 -0.02,0.01c-28.101,12.82 -58.61,31.7 -85.2,58.29c-17.36,17.35 -32.601,35.2 -45.32,52.64c-23.43,32.12 -38.33,62.88 -42.189,86.69c2.1,0.41 4.189,0.92 6.26,1.55c2.96,0.89 5.87,2.01 8.68,3.36c10.521,5.03 19.641,13.19 24.99,24.47c1.29,2.72 2.37,5.62 3.19,8.71c0.56,2.08 0.989,4.24 1.31,6.48c23.83,-3.82 54.64,-18.73 86.82,-42.21c17.439,-12.72 35.29,-27.96 52.64,-45.31c26.49,-26.49 45.32,-56.88 58.14,-84.89c4.49,-9.81 8.24,-19.32 11.32,-28.28c0.271,-0.77 0.53,-1.54 0.79,-2.3c2.43,-7.26 4.42,-14.13 6.01,-20.46c0.19,-0.78 0.38,-1.56 0.57,-2.32c0.37,-1.55 0.72,-3.07 1.04,-4.54c0.08,-0.36 0.16,-0.73 0.229,-1.09c0.42,-1.98 0.801,-3.89 1.131,-5.72c0.1,-0.53 0.189,-1.05 0.279,-1.57c0.09,-0.54 0.181,-1.08 0.271,-1.61c0.3,-1.86 0.55,-3.63 0.76,-5.3c0.04,-0.33 0.08,-0.65 0.11,-0.97c0.06,-0.46 0.109,-0.92 0.149,-1.36c0.05,-0.43 0.09,-0.84 0.13,-1.25c0,-0.11 0.011,-0.22 0.021,-0.32c0.03,-0.35 0.06,-0.7 0.09,-1.04c0.01,-0.11 0.01,-0.22 0.02,-0.33c0.021,-0.25 0.04,-0.5 0.051,-0.74c0.01,-0.13 0.02,-0.25 0.029,-0.36c0.011,-0.24 0.021,-0.47 0.03,-0.7c0.289,-5.9 -0.241,-9.74 -1.451,-10.95zm-102.7,145.58c-11.899,11.9 -31.199,11.9 -43.1,0c-11.9,-11.91 -11.9,-31.2 0,-43.1c11.9,-11.9 31.2,-11.9 43.1,0c11.9,11.9 11.9,31.2 0,43.1z" fill="#ffffff"/>
  <path id="svg_86" d="m435.627136,301.893006c-11.899,11.9 -31.199,11.9 -43.1,0c-11.9,-11.91 -11.9,-31.2 0,-43.1c11.9,-11.9 31.2,-11.9 43.1,0c11.9,11.9 11.9,31.2 0,43.1z" fill="#c22227"/>
  <path id="svg_89" d="m374.985327,321.898482c-20.601,-20.598 -109.541,80.225 -94.883,94.882c14.657,14.659 115.48,-74.283 94.883,-94.882z" fill="#ffffff"/>
 </g>
</svg>