<svg width="25.600005" height="25.600001" xmlns="http://www.w3.org/2000/svg">

 <g>
  <title>background</title>
  <rect fill="none" id="canvas_background" height="402" width="582" y="-1" x="-1"/>
 </g>
 <g>
  <title>Layer 1</title>
  <path fill="#c22227" fill-rule="evenodd" id="path3281" d="m4.765667,19.610987l0,-10.269023c0,-0.219756 0.179194,-0.400043 0.399982,-0.400043l3.336401,0c0.219719,0 0.399982,0.180287 0.399982,0.400043l0,10.269023c0,0.220826 -0.180264,0.40005 -0.399982,0.40005l-3.336401,0c-0.220788,0 -0.399982,-0.179224 -0.399982,-0.40005zm3.336394,-0.40005l0,-9.468917l-2.536423,0l0,9.468917l2.536423,0zm-3.532651,-13.045904c0,-1.239618 0.933292,-2.17307 2.286838,-2.17307c1.359945,0 2.237775,0.941987 2.265509,2.168805c0,1.216151 -0.90983,2.179473 -2.304971,2.179473c-1.346078,0 -2.247377,-0.968656 -2.247377,-2.175208zm3.752376,0.005334c-0.018133,-0.789432 -0.546107,-1.378304 -1.465538,-1.378304c-0.933292,0 -1.486874,0.596345 -1.486874,1.37297c0,0.763832 0.54398,1.375109 1.45914,1.375109c0.952494,0 1.493272,-0.615548 1.493272,-1.369775z"/>
  <path fill="#c22227" fill-rule="evenodd" id="path3283" d="m10.401703,19.610987c0,-0.010668 0.042664,-9.217158 0,-10.157007c-0.010664,-0.228298 0.171726,-0.419253 0.399982,-0.419253l3.407855,0c0.219725,0 0.399989,0.180294 0.399989,0.40005l0,0.337107l0.180257,-0.160015c0.563176,-0.455527 1.355679,-0.816101 2.491627,-0.816101c2.486298,0 4.323021,1.663136 4.323021,4.979821l0,5.83646c0,0.220832 -0.180257,0.400056 -0.399982,0.400056l-3.408925,0c-0.220788,0 -0.399982,-0.179224 -0.399982,-0.400056l0,-5.443877c0,-1.234291 -0.379717,-1.901038 -1.325812,-1.901038c-0.725301,0 -1.17115,0.475793 -1.378077,0.989991c-0.057594,0.138679 -0.082125,0.370179 -0.082125,0.672081l0,5.682842c0,0.220832 -0.180264,0.400056 -0.399989,0.400056l-3.407855,0c-0.221858,0 -0.401052,-0.180294 -0.399982,-0.401119zm3.407855,-0.398987l0,-5.282793c0,-0.305104 0.019202,-0.681686 0.142929,-0.976122c0.281591,-0.704084 0.962095,-1.48605 2.117245,-1.48605c1.565803,0 2.125777,1.263092 2.125777,2.701138l0,5.043827l2.608961,0l0,-5.436411c0,-2.926234 -1.523132,-4.179722 -3.523057,-4.179722c-0.934355,0 -1.558335,0.286964 -1.996715,0.644343l-0.378647,0.369116l-0.327458,0.449123c-0.06186,0.151486 -0.204789,0.251766 -0.387185,0.251766c-0.255984,0 -0.423444,-0.216561 -0.405311,-0.434191l0.023462,-0.098141l0,-0.943056l-2.600423,0l0.001063,0.058678c0.022405,1.77302 0.00107,7.275575 -0.007462,9.115803l-0.00107,0.202692l2.607891,0z"/>
  <path fill="#c22227" fill-rule="evenodd" id="path3285" d="m0,23.261578l0,-20.923151c0,-1.289761 1.047423,-2.338431 2.338034,-2.338431l20.923937,0c1.289547,0 2.338034,1.04867 2.338034,2.338431l0,20.923151c0,1.290824 -1.048487,2.338425 -2.338034,2.338425l-20.923937,0c-1.29061,0 -2.338034,-1.047601 -2.338034,-2.338425zm24.800039,0l0,-20.923151c0,-0.847041 -0.691175,-1.538332 -1.538069,-1.538332l-20.923937,0c-0.847964,0 -1.538069,0.691291 -1.538069,1.538332l0,20.923151c0,0.848104 0.690105,1.538325 1.538069,1.538325l20.923937,0c0.846894,0 1.538069,-0.690221 1.538069,-1.538325z"/>
 </g>
</svg>