<?xml version="1.0" encoding="utf-8"?>
<!-- Generator: Adobe Illustrator 16.0.0, SVG Export Plug-In . SVG Version: 6.00 Build 0)  -->
<!DOCTYPE svg PUBLIC "-//W3C//DTD SVG 1.1//EN" "http://www.w3.org/Graphics/SVG/1.1/DTD/svg11.dtd">
<svg version="1.1" id="Layer_1" xmlns="http://www.w3.org/2000/svg" xmlns:xlink="http://www.w3.org/1999/xlink" x="0px" y="0px"
	 width="220px" height="100px" viewBox="0 0 220 100" enable-background="new 0 0 220 100" xml:space="preserve">
<path fill="#FFFFFF" d="M66.584,88.48c1.405,0,2.812,0,4.292,0c0,0.281-0.009,0.556,0.001,0.824c0.032,0.832-0.002,1.676,0.124,2.49
	c0.199,1.299,0.979,1.883,2.275,1.855c1.377-0.029,2.139-0.869,2.262-2.394c0.167-2.073-0.549-3.83-1.915-5.33
	c-1.151-1.264-2.392-2.44-3.55-3.696c-1.443-1.563-2.618-3.304-3.066-5.429c-0.477-2.258-0.429-4.508,0.416-6.68
	c0.926-2.379,2.764-3.572,5.266-3.699c0.921-0.049,1.873,0.027,2.771,0.222c1.885,0.396,3.145,1.604,3.889,3.36
	c0.092,0.22,0.18,0.438,0.27,0.654c0.004,0.012,0.039,0.006,0.102,0.012c0-1.287,0-2.569,0-3.899c5.934,0,11.823,0,17.811,0
	c0,0.258,0,0.508,0,0.758c-0.014,7.572-0.026,15.146-0.033,22.725c0,0.475,0.029,0.955,0.102,1.422c0.205,1.389,1,2.076,2.32,2.045
	c1.276-0.027,2.088-0.813,2.217-2.18c0.043-0.453,0.047-0.912,0.047-1.369c0.021-7.596,0.039-15.188,0.061-22.781
	c0.001-0.192,0.02-0.389,0.025-0.608c1.418,0,2.799,0,4.256,0c0,1.274,0.002,2.521,0,3.771c-0.02,6.521-0.023,13.041-0.071,19.563
	c-0.01,1.084-0.08,2.195-0.334,3.242c-0.765,3.18-2.881,4.766-6.26,4.834c-3.916,0.078-6.551-2.238-6.766-6.143
	c-0.15-2.836-0.115-5.683-0.125-8.521c-0.014-3.916,0.01-7.832,0.016-11.746c0-0.178-0.016-0.354-0.022-0.563
	c-1.308,0-2.588,0-3.974,0c0,8.834,0,17.666,0,26.537c-1.563,0-3.024,0-4.535,0c0-8.828,0-17.66,0-26.535c-1.567,0-3.104,0-4.586,0
	c0.088,1.306,0.176,2.599,0.265,3.921c-1.513,0-2.896,0-4.287,0c-0.062-0.861-0.056-1.697-0.188-2.511
	c-0.213-1.274-0.963-1.836-2.248-1.806c-1.125,0.025-1.85,0.724-2.047,1.933c-0.313,1.886,0.102,3.608,1.271,5.103
	c0.746,0.949,1.582,1.836,2.438,2.69c1.463,1.466,2.932,2.929,3.873,4.802c1.461,2.907,1.549,5.937,0.479,8.957
	c-0.873,2.478-2.826,3.637-5.383,3.827c-1.217,0.091-2.424-0.01-3.568-0.478c-2.139-0.869-3.18-2.586-3.641-4.744
	c-0.086-0.4-0.162-0.809-0.242-1.211C66.584,90.627,66.584,89.555,66.584,88.48z"/>
<path fill="#FFFFFF" d="M101.122,20.482c0,4.249,0,8.401,0,12.601c-1.506,0-2.983,0-4.497,0c0-10.314,0-20.623,0-30.955
	c0.1-0.021,0.172-0.051,0.246-0.051c2.365,0.004,4.732-0.022,7.098,0.024c3.569,0.07,5.529,1.63,6.004,5.146
	c0.275,2.045,0.17,4.165,0.026,6.238c-0.131,1.897-0.999,3.492-2.86,4.466c2.625,1.352,2.961,3.748,3.035,6.224
	c0.067,2.204,0,4.413,0.041,6.618c0.014,0.677,0.158,1.597,0.252,2.271c0.065-0.008,0.088,0.067-3.811,0.08
	c-0.49,0.001-0.75-0.12-0.781-0.617c-0.074-1.166-0.18-2.33-0.213-3.498c-0.059-1.945-0.008-3.896-0.119-5.839
	c-0.107-1.876-1.07-2.698-2.933-2.71C102.122,20.48,101.636,20.482,101.122,20.482z M101.183,6.523c0,3.216,0,6.361,0,9.529
	c0.685,0,1.318,0.026,1.953-0.005c1.416-0.072,2.313-0.836,2.389-2.243c0.092-1.74,0.078-3.493,0.003-5.235
	c-0.052-1.211-0.813-1.977-1.866-2.036C102.851,6.486,102.038,6.523,101.183,6.523z"/>
<path fill="#FFFFFF" d="M112.084,2.12c4.148,0,8.234,0,12.352,0c0,1.467,0,2.89,0,4.373c-2.586,0-5.158,0-7.775,0
	c0,2.893,0,5.723,0,8.638c2.021,0,4.059,0,6.126,0c0,1.523,0,2.966,0,4.471c-2.033,0-4.065,0-6.142,0c0,3.053,0,6.044,0,9.098
	c2.569,0,5.122,0,7.717,0c0,1.498,0,2.936,0,4.433c-0.229,0-0.422,0-0.615,0c-1.859,0-10.771,0-11.611,0
	C112.13,31.226,112.084,8.709,112.084,2.12z"/>
<path fill="#FFFFFF" d="M140.287,2.229c1.93,0,3.789,0,5.68,0c1.5,6.135,2.99,12.243,4.483,18.352
	c0.036-0.004,0.075-0.008,0.114-0.013c0-6.086,0-12.174,0-18.309c1.364,0,2.662,0,4.012,0c0,10.289,0,20.595,0,30.946
	c-0.15,0.019-0.299,0.049-0.45,0.049c-1.212,0.002-2.426-0.016-3.64,0.005c-0.396,0.007-0.572-0.081-0.683-0.515
	c-1.725-7.084-3.471-14.16-5.213-21.24c-0.043-0.186-0.096-0.37-0.25-0.542c0,7.395,0,14.792,0,22.236c-1.387,0-2.705,0-4.059,0
	C140.287,22.889,140.287,12.567,140.287,2.229z"/>
<path fill="#FFFFFF" d="M107.179,66.739c0.312,0,0.582,0,0.854,0c2.187,0.004,4.373,0.002,6.558,0.016
	c1.813,0.015,3.463,0.479,4.726,1.869c1.093,1.192,1.584,2.668,1.653,4.237c0.104,2.263,0.113,4.525,0.107,6.791
	c-0.011,3.935,0.001,7.869-0.113,11.8c-0.061,1.975-0.707,3.784-2.342,5.08c-1,0.793-2.18,1.19-3.418,1.223
	c-2.66,0.065-5.319,0.021-8.022,0.021C107.179,87.434,107.179,77.118,107.179,66.739z M111.706,93.354
	c0.97,0,1.901,0.049,2.829-0.012c0.967-0.063,1.564-0.6,1.792-1.555c0.125-0.533,0.177-1.1,0.181-1.646
	c0.025-5.246,0.035-10.488,0.039-15.729c0.002-0.455-0.035-0.916-0.104-1.361c-0.161-1.022-0.76-1.741-1.688-1.821
	c-0.998-0.088-2.01-0.021-3.047-0.021C111.706,78.59,111.706,85.936,111.706,93.354z"/>
<path fill="#FFFFFF" d="M86.255,52.813c0,4.25,0,8.416,0,12.615c-1.513,0-2.977,0-4.479,0c0-10.313,0-20.624,0-30.965
	c0.097-0.02,0.188-0.055,0.274-0.055c2.506,0.008,5.014-0.018,7.518,0.041c2.771,0.063,4.734,1.58,5.383,4.115
	c0.188,0.725,0.307,1.487,0.313,2.234c0.01,1.705,0.021,3.42-0.139,5.115c-0.172,1.867-1.021,3.403-2.811,4.354
	c0.354,0.24,0.676,0.424,0.961,0.654c1.34,1.075,1.836,2.58,1.931,4.198c0.115,2.002,0.069,4.013,0.13,6.019
	c0.043,1.421,0.146,2.837,0.225,4.326c-0.9,0-1.963,0-3.024,0c-1.435,0-1.476,0.006-1.646-1.405
	c-0.106-0.886-0.074-1.783-0.09-2.677c-0.037-1.968-0.008-3.938-0.115-5.897c-0.104-1.823-1.084-2.655-2.912-2.668
	C87.296,52.811,86.822,52.813,86.255,52.813z M86.292,48.374c0.754,0,1.449,0.051,2.137-0.012c1.34-0.119,2.16-0.854,2.232-2.201
	c0.096-1.761,0.074-3.531,0.002-5.295c-0.033-0.836-0.411-1.681-1.32-1.858c-0.986-0.192-2.021-0.148-3.051-0.207
	C86.292,42.067,86.292,45.184,86.292,48.374z"/>
<path fill="#FFFFFF" d="M140.313,82.174c0,2.941,0.063,5.889-0.033,8.826c-0.037,1.146-0.322,2.322-0.711,3.404
	c-0.64,1.764-1.965,2.902-3.778,3.422c-1.687,0.482-3.39,0.484-5.044-0.078c-2.591-0.881-3.752-2.906-4.139-5.471
	c-0.11-0.726-0.129-1.465-0.131-2.197c-0.009-5.328-0.005-10.654,0.004-15.982c0-1.315,0.185-2.604,0.682-3.84
	c0.96-2.387,2.795-3.621,5.285-3.813c1.109-0.084,2.289-0.016,3.354,0.277c2.716,0.743,4.069,2.784,4.354,5.442
	c0.229,2.127,0.14,4.284,0.171,6.428c0.021,1.19,0.004,2.39,0.004,3.578C140.328,82.174,140.318,82.174,140.313,82.174z
	 M135.771,82.189c0.002,0,0.008,0,0.012,0c0-2.778,0.01-5.561-0.012-8.342c-0.002-0.508-0.078-1.033-0.224-1.52
	c-0.311-1.053-1.045-1.523-2.211-1.508c-1.062,0.016-1.813,0.527-2.067,1.533c-0.151,0.59-0.224,1.215-0.226,1.819
	c-0.021,5.425-0.024,10.849-0.022,16.271c0,0.453,0.039,0.914,0.116,1.357c0.201,1.193,0.978,1.869,2.147,1.914
	c1.224,0.045,2.056-0.563,2.324-1.771c0.107-0.498,0.146-1.021,0.15-1.534C135.78,87.674,135.771,84.932,135.771,82.189z"/>
<path fill="#FFFFFF" d="M94.972,12.532c-1.457,0-2.838,0-4.289,0c0-1.065,0.027-2.093-0.01-3.117
	c-0.023-0.628-0.072-1.276-0.252-1.872c-0.289-0.967-1.02-1.392-2.111-1.384c-1.023,0.008-1.748,0.475-2.043,1.412
	c-0.147,0.466-0.24,0.97-0.242,1.458c-0.021,5.645-0.02,11.29-0.023,16.936c0,0.238,0,0.478,0.02,0.716
	c0.123,1.731,1.291,2.621,2.979,2.256c0.879-0.19,1.34-0.813,1.533-1.642c0.092-0.401,0.131-0.824,0.135-1.239
	c0.018-1.468,0.008-2.938,0.008-4.456c1.422,0,2.816,0,4.231,0c0,1.779,0.038,3.563-0.021,5.34
	c-0.021,0.723-0.199,1.457-0.404,2.154c-0.818,2.755-2.956,4.382-5.826,4.365c-1.038-0.006-2.126-0.09-3.104-0.414
	c-2.486-0.824-3.547-2.836-3.938-5.274c-0.111-0.702-0.141-1.424-0.141-2.137c-0.006-5.507-0.025-11.013,0.035-16.518
	c0.012-1.111,0.229-2.257,0.565-3.32c0.771-2.45,2.578-3.763,5.093-4.012c0.992-0.099,2.036-0.034,3.018,0.164
	c2.166,0.438,3.541,1.843,4.261,3.905C95.205,8.031,94.913,10.28,94.972,12.532z"/>
<path fill="#FFFFFF" d="M80.23,10.479c-1.492,0-2.873,0-4.334,0c0-0.282,0.011-0.534-0.002-0.785
	c-0.03-0.573-0.021-1.156-0.121-1.716c-0.237-1.304-0.98-1.866-2.297-1.818c-1.108,0.04-1.81,0.753-2.006,1.973
	c-0.351,2.131,0.273,3.98,1.66,5.564c1.029,1.18,2.172,2.264,3.254,3.401c1.308,1.375,2.5,2.84,3.148,4.649
	c0.92,2.549,0.941,5.143,0.076,7.703c-0.84,2.479-2.871,3.953-5.488,4.006c-0.98,0.021-1.996-0.045-2.943-0.287
	c-2.052-0.519-3.309-1.944-3.967-3.918c-0.589-1.766-0.535-3.59-0.484-5.452c1.416,0,2.799,0,4.271,0
	c0,0.263-0.009,0.513,0.003,0.763c0.038,0.91,0.004,1.834,0.146,2.729c0.184,1.133,0.98,1.691,2.172,1.699
	c1.195,0.006,1.963-0.543,2.205-1.67c0.34-1.568,0.223-3.129-0.684-4.468c-0.795-1.176-1.775-2.229-2.709-3.305
	c-1.115-1.289-2.398-2.455-3.378-3.837c-2.231-3.15-2.446-6.646-1.202-10.213c0.85-2.435,2.76-3.581,5.284-3.75
	c1.136-0.077,2.267-0.019,3.345,0.39c2.489,0.941,3.52,2.955,3.871,5.41C80.183,8.501,80.173,9.475,80.23,10.479z"/>
<path fill="#FFFFFF" d="M140.936,88.577c1.422,0,2.806,0,4.266,0c0,0.678-0.012,1.328,0.006,1.978
	c0.01,0.438,0.021,0.877,0.102,1.303c0.265,1.393,1.024,1.985,2.406,1.914c1.323-0.068,2.043-0.931,2.154-2.438
	c0.148-2.056-0.566-3.785-1.912-5.271c-1.014-1.119-2.104-2.168-3.146-3.261c-1.606-1.685-2.969-3.524-3.473-5.86
	c-0.479-2.235-0.434-4.463,0.387-6.618c0.922-2.438,2.775-3.628,5.332-3.791c1.678-0.106,3.297,0.097,4.703,1.118
	c1.592,1.156,2.246,2.838,2.496,4.694c0.127,0.953,0.123,1.929,0.18,2.914c-1.498,0-2.881,0-4.271,0
	c-0.062-0.86-0.056-1.696-0.188-2.513c-0.211-1.273-0.961-1.834-2.246-1.805c-1.125,0.025-1.845,0.721-2.047,1.928
	c-0.313,1.888,0.084,3.623,1.271,5.099c0.932,1.158,1.984,2.216,3.021,3.283c1.254,1.282,2.473,2.597,3.282,4.211
	c1.459,2.905,1.556,5.935,0.488,8.952c-0.883,2.498-2.853,3.688-5.438,3.826c-0.879,0.049-1.789-0.039-2.651-0.217
	c-1.954-0.404-3.271-1.623-4.035-3.445C140.818,92.655,140.876,90.635,140.936,88.577z"/>
<path fill="#FFFFFF" d="M126.277,33.212c0-10.352,0-20.656,0-30.974c4.125,0,8.209,0,12.322,0c0,1.467,0,2.888,0,4.371
	c-2.582,0-5.153,0-7.773,0c0,2.89,0,5.721,0,8.635c2.012,0,4.046,0,6.117,0c0,1.537,0,2.991,0,4.487c-2.047,0-4.064,0-6.129,0
	c0,3.032,0,6.022,0,9.073c2.547,0,5.102,0,7.703,0c0,1.498,0,2.934,0,4.408C134.446,33.212,130.384,33.212,126.277,33.212z"/>
<path fill="#FFFFFF" d="M105.322,65.439c-1.596,0-3.042,0-4.535,0c0-8.846,0-17.68,0-26.573c-1.57,0-3.111,0-4.695,0
	c0-1.5,0-2.938,0-4.424c4.625,0,9.244,0,13.908,0c0,1.461,0,2.899,0,4.389c-1.529,0-3.054,0-4.678,0
	C105.322,47.715,105.322,56.549,105.322,65.439z"/>
<path fill="#FFFFFF" d="M125.972,97.758c-1.534,0-2.997,0-4.484,0c0-10.338,0-20.639,0-30.98c1.508,0,2.98,0,4.484,0
	C125.972,77.109,125.972,87.411,125.972,97.758z"/>
<path fill="#C32328" stroke="#C32328" stroke-miterlimit="10" d="M73.671,34.848c0.246,0.038,0.489,0.012,0.738,0.031
	c2.121,0.158,3.936,1.281,4.83,3.41c0.646,1.537,0.697,3.146,0.688,4.778c-0.021,3.896-0.008,7.789-0.008,11.684
	c0,3.396-0.002,6.786-0.004,10.179c0,0.059-0.01,0.109-0.02,0.191c-0.113,0.005-0.217,0.015-0.316,0.015
	c-2.236,0-4.476,0.041-6.711-0.013c-2.135-0.047-3.77-1.021-4.781-2.93c-0.486-0.912-0.703-1.908-0.84-2.938
	c-0.227-1.688-0.156-3.389-0.076-5.069c0.078-1.646,0.475-3.246,1.57-4.572c0.715-0.863,1.621-1.414,2.696-1.723
	c1.084-0.312,2.185-0.31,3.287-0.203c0.351,0.031,0.688,0.139,1.063,0.219c0.008-0.104,0.021-0.188,0.021-0.27
	c0.002-1.979,0.021-3.955-0.015-5.931c-0.008-0.496-0.149-1.004-0.307-1.479c-0.318-0.969-1.479-1.22-2.271-1.078
	c-1.082,0.194-1.551,1.273-1.625,2.284c-0.022,0.34-0.022,0.683-0.02,1.03c0,0.941,0.229,0.839-0.93,0.839c-0.947,0-1.897,0-2.881,0
	c-0.922,0-0.633,0.028-0.633-0.66c0-0.485,0.061-1.198,0.1-1.683c0.023-0.334,0.082-0.668,0.145-0.996
	c0.361-1.904,1.189-3.504,2.986-4.441c0.729-0.381,1.508-0.593,2.334-0.645c0.25-0.014,0.494,0.009,0.738-0.029
	C73.515,34.848,73.593,34.848,73.671,34.848z M75.937,56.598c-0.045-1.604-0.016-1.75-0.109-2.613
	c-0.186-1.664-1.686-2.084-2.9-1.608c-0.787,0.313-1.101,1.015-1.125,1.772c-0.058,1.604-0.058,3.216-0.008,4.82
	c0.033,0.969,0.486,1.805,1.612,2.002c0.771,0.135,2.062-0.113,2.372-1.033c0.16-0.473,0.102-0.979,0.145-1.479
	C75.976,57.844,75.937,57.536,75.937,56.598z"/>
<polygon fill="#C22227" points="170.001,0.001 219.999,49.998 170,99.999 160,89.999 200.003,49.994 160.001,10 "/>
<polygon fill="#C22227" points="49.999,0.001 0.001,49.998 50,99.999 60,89.999 19.997,49.994 59.999,10 "/>
</svg>
