<?xml version="1.0" encoding="utf-8"?>
<!-- Generator: Adobe Illustrator 16.0.0, SVG Export Plug-In . SVG Version: 6.00 Build 0)  -->
<!DOCTYPE svg PUBLIC "-//W3C//DTD SVG 1.1//EN" "http://www.w3.org/Graphics/SVG/1.1/DTD/svg11.dtd">
<svg version="1.1" xmlns="http://www.w3.org/2000/svg" xmlns:xlink="http://www.w3.org/1999/xlink" x="0px" y="0px" width="2200px"
	 height="100px" viewBox="0 0 2200 100" enable-background="new 0 0 2200 100" xml:space="preserve">
<g id="Layer_3" display="none">
	<rect x="-6" display="inline" stroke="#000000" stroke-miterlimit="10" width="2205.98" height="100"/>
</g>
<g id="Layer_1" display="none">
	<rect x="1979.982" display="inline" fill="#999999" stroke="#000000" stroke-miterlimit="10" width="219.998" height="99.999"/>
	
		<rect x="1539.986" y="0.001" display="inline" fill="#999999" stroke="#000000" stroke-miterlimit="10" width="219.998" height="99.999"/>
	<rect x="1099.99" display="inline" fill="#999999" stroke="#000000" stroke-miterlimit="10" width="219.998" height="99.999"/>
	<rect x="659.994" display="inline" fill="#999999" stroke="#000000" stroke-miterlimit="10" width="219.998" height="99.999"/>
	<rect x="218.998" display="inline" fill="#999999" stroke="#000000" stroke-miterlimit="10" width="219.998" height="99.999"/>
</g>
<g id="Layer_2">
	<g>
		<path fill="#FFFFFF" d="M65.833,88.48c1.405,0,2.812,0,4.292,0c0,0.279-0.009,0.555,0.001,0.824
			c0.032,0.83-0.002,1.676,0.124,2.488c0.199,1.299,0.979,1.883,2.275,1.855c1.377-0.029,2.139-0.869,2.262-2.395
			c0.167-2.072-0.549-3.83-1.915-5.33c-1.151-1.264-2.392-2.439-3.55-3.695c-1.443-1.563-2.618-3.305-3.066-5.43
			c-0.477-2.258-0.429-4.508,0.416-6.68c0.926-2.379,2.764-3.572,5.266-3.699c0.921-0.049,1.873,0.027,2.771,0.223
			c1.885,0.396,3.145,1.604,3.889,3.359c0.092,0.221,0.18,0.439,0.27,0.654c0.004,0.012,0.039,0.006,0.102,0.012
			c0-1.287,0-2.568,0-3.898c5.935,0,11.823,0,17.812,0c0,0.258,0,0.508,0,0.758c-0.014,7.572-0.026,15.146-0.033,22.725
			c0,0.477,0.029,0.955,0.102,1.422c0.205,1.391,1,2.076,2.32,2.047c1.276-0.027,2.088-0.814,2.217-2.182
			c0.043-0.453,0.047-0.912,0.047-1.369c0.021-7.596,0.039-15.188,0.061-22.779c0.001-0.193,0.02-0.391,0.025-0.609
			c1.418,0,2.799,0,4.256,0c0,1.275,0.002,2.521,0,3.771c-0.02,6.521-0.023,13.041-0.071,19.563c-0.01,1.084-0.08,2.195-0.334,3.242
			c-0.765,3.18-2.881,4.766-6.26,4.834c-3.916,0.078-6.551-2.238-6.766-6.143c-0.15-2.836-0.115-5.684-0.125-8.521
			c-0.014-3.916,0.01-7.832,0.016-11.746c0-0.178-0.016-0.354-0.022-0.563c-1.308,0-2.588,0-3.974,0c0,8.834,0,17.666,0,26.537
			c-1.563,0-3.024,0-4.535,0c0-8.828,0-17.66,0-26.535c-1.567,0-3.104,0-4.586,0c0.088,1.307,0.176,2.6,0.265,3.922
			c-1.513,0-2.896,0-4.287,0c-0.062-0.861-0.056-1.697-0.188-2.512c-0.213-1.273-0.963-1.836-2.248-1.807
			c-1.125,0.025-1.85,0.725-2.047,1.934c-0.313,1.887,0.102,3.607,1.271,5.104c0.746,0.949,1.582,1.836,2.438,2.689
			c1.463,1.467,2.932,2.93,3.873,4.803c1.461,2.906,1.549,5.936,0.479,8.957c-0.873,2.477-2.826,3.637-5.383,3.826
			c-1.217,0.092-2.424-0.01-3.568-0.479c-2.139-0.869-3.18-2.586-3.641-4.744c-0.086-0.398-0.162-0.809-0.242-1.211
			C65.833,90.627,65.833,89.555,65.833,88.48z"/>
		<path fill="#FFFFFF" d="M100.371,20.481c0,4.249,0,8.401,0,12.601c-1.506,0-2.983,0-4.497,0c0-10.314,0-20.623,0-30.955
			c0.1-0.021,0.172-0.051,0.246-0.051c2.365,0.004,4.732-0.022,7.098,0.024c3.569,0.07,5.529,1.63,6.004,5.146
			c0.275,2.045,0.17,4.165,0.026,6.238c-0.131,1.897-0.999,3.492-2.86,4.466c2.625,1.352,2.961,3.748,3.035,6.224
			c0.067,2.204,0,4.413,0.041,6.618c0.014,0.678,0.158,1.598,0.252,2.271c0.065-0.008,0.088,0.066-3.811,0.08
			c-0.49,0-0.75-0.121-0.781-0.617c-0.074-1.166-0.18-2.331-0.213-3.499c-0.059-1.945-0.008-3.896-0.119-5.839
			c-0.107-1.876-1.07-2.698-2.933-2.71C101.371,20.479,100.885,20.481,100.371,20.481z M100.432,6.522c0,3.216,0,6.361,0,9.529
			c0.685,0,1.318,0.026,1.953-0.005c1.416-0.072,2.313-0.836,2.389-2.243c0.092-1.74,0.078-3.493,0.003-5.235
			c-0.052-1.211-0.813-1.977-1.866-2.036C102.1,6.485,101.287,6.522,100.432,6.522z"/>
		<path fill="#FFFFFF" d="M111.333,2.119c4.148,0,8.234,0,12.352,0c0,1.467,0,2.89,0,4.373c-2.586,0-5.158,0-7.774,0
			c0,2.893,0,5.723,0,8.638c2.021,0,4.059,0,6.126,0c0,1.523,0,2.966,0,4.471c-2.033,0-4.064,0-6.143,0c0,3.053,0,6.044,0,9.098
			c2.569,0,5.123,0,7.718,0c0,1.498,0,2.936,0,4.433c-0.229,0-0.423,0-0.615,0c-1.859,0-10.771,0-11.611,0
			C111.379,31.226,111.333,8.708,111.333,2.119z"/>
		<path fill="#FFFFFF" d="M139.536,2.228c1.93,0,3.789,0,5.68,0c1.5,6.135,2.99,12.243,4.483,18.352
			c0.036-0.004,0.075-0.008,0.114-0.013c0-6.086,0-12.174,0-18.309c1.363,0,2.662,0,4.012,0c0,10.289,0,20.595,0,30.946
			c-0.15,0.02-0.299,0.049-0.45,0.049c-1.212,0.002-2.426-0.016-3.64,0.005c-0.396,0.007-0.572-0.081-0.684-0.515
			c-1.725-7.084-3.471-14.16-5.213-21.24c-0.043-0.186-0.096-0.37-0.25-0.542c0,7.395,0,14.792,0,22.236c-1.387,0-2.705,0-4.059,0
			C139.536,22.888,139.536,12.566,139.536,2.228z"/>
		<path fill="#FFFFFF" d="M106.428,66.738c0.313,0,0.582,0,0.854,0c2.187,0.004,4.373,0.002,6.558,0.016
			c1.813,0.016,3.463,0.48,4.726,1.869c1.094,1.193,1.584,2.668,1.653,4.238c0.104,2.262,0.113,4.523,0.107,6.791
			c-0.011,3.934,0.001,7.869-0.113,11.799c-0.062,1.975-0.707,3.785-2.342,5.08c-1,0.793-2.181,1.191-3.418,1.223
			c-2.66,0.066-5.319,0.021-8.022,0.021C106.428,87.434,106.428,77.117,106.428,66.738z M110.955,93.354
			c0.97,0,1.901,0.049,2.829-0.012c0.967-0.063,1.564-0.6,1.792-1.555c0.125-0.533,0.177-1.1,0.181-1.646
			c0.025-5.246,0.035-10.488,0.039-15.729c0.002-0.455-0.035-0.916-0.104-1.361c-0.161-1.021-0.76-1.74-1.688-1.82
			c-0.998-0.088-2.01-0.021-3.047-0.021C110.955,78.59,110.955,85.936,110.955,93.354z"/>
		<path fill="#FFFFFF" d="M85.504,52.813c0,4.25,0,8.416,0,12.615c-1.513,0-2.977,0-4.479,0c0-10.313,0-20.624,0-30.966
			c0.097-0.02,0.188-0.055,0.274-0.055c2.506,0.008,5.014-0.018,7.518,0.041c2.771,0.063,4.734,1.58,5.383,4.115
			c0.188,0.725,0.307,1.486,0.313,2.233c0.01,1.705,0.021,3.42-0.139,5.115c-0.172,1.866-1.021,3.403-2.811,4.355
			c0.354,0.238,0.676,0.424,0.961,0.652c1.34,1.077,1.836,2.581,1.931,4.2c0.115,2.002,0.069,4.012,0.13,6.02
			c0.043,1.42,0.146,2.836,0.225,4.324c-0.9,0-1.963,0-3.024,0c-1.435,0-1.476,0.008-1.646-1.404
			c-0.106-0.887-0.074-1.783-0.09-2.678c-0.037-1.967-0.008-3.938-0.115-5.896c-0.104-1.822-1.084-2.654-2.912-2.668
			C86.545,52.811,86.071,52.813,85.504,52.813z M85.541,48.373c0.754,0,1.449,0.051,2.137-0.013c1.34-0.118,2.16-0.854,2.232-2.2
			c0.096-1.761,0.074-3.531,0.002-5.295c-0.033-0.837-0.411-1.681-1.32-1.858c-0.986-0.191-2.021-0.148-3.051-0.207
			C85.541,42.065,85.541,45.183,85.541,48.373z"/>
		<path fill="#FFFFFF" d="M139.562,82.174c0,2.941,0.063,5.889-0.032,8.826c-0.037,1.146-0.322,2.322-0.712,3.404
			c-0.64,1.764-1.965,2.902-3.777,3.422c-1.688,0.482-3.391,0.484-5.044-0.078c-2.591-0.881-3.752-2.906-4.14-5.471
			c-0.109-0.727-0.129-1.465-0.131-2.197c-0.009-5.328-0.004-10.654,0.004-15.982c0-1.314,0.186-2.604,0.683-3.84
			c0.96-2.387,2.795-3.621,5.285-3.813c1.108-0.084,2.289-0.016,3.354,0.277c2.716,0.742,4.069,2.783,4.354,5.441
			c0.229,2.127,0.14,4.283,0.171,6.428c0.021,1.189,0.004,2.391,0.004,3.578C139.577,82.174,139.567,82.174,139.562,82.174z
			 M135.021,82.189c0.002,0,0.008,0,0.012,0c0-2.779,0.01-5.563-0.012-8.342c-0.002-0.51-0.078-1.033-0.225-1.521
			c-0.311-1.053-1.045-1.521-2.211-1.508c-1.063,0.016-1.813,0.527-2.066,1.533c-0.151,0.59-0.225,1.215-0.227,1.818
			c-0.021,5.426-0.023,10.85-0.021,16.271c0,0.453,0.039,0.914,0.115,1.357c0.201,1.193,0.979,1.869,2.147,1.914
			c1.224,0.045,2.056-0.563,2.323-1.771c0.107-0.498,0.146-1.021,0.15-1.533C135.029,87.674,135.021,84.932,135.021,82.189z"/>
		<path fill="#FFFFFF" d="M94.221,12.531c-1.457,0-2.838,0-4.289,0c0-1.065,0.027-2.093-0.01-3.117
			c-0.023-0.628-0.072-1.276-0.252-1.872c-0.289-0.967-1.02-1.392-2.111-1.384c-1.023,0.008-1.748,0.475-2.043,1.412
			c-0.147,0.466-0.24,0.97-0.242,1.458c-0.021,5.645-0.02,11.29-0.023,16.936c0,0.238,0,0.478,0.02,0.716
			c0.123,1.731,1.291,2.621,2.979,2.256c0.879-0.19,1.34-0.813,1.533-1.642c0.092-0.401,0.131-0.824,0.135-1.239
			c0.018-1.468,0.008-2.938,0.008-4.456c1.422,0,2.816,0,4.231,0c0,1.779,0.038,3.563-0.021,5.34
			c-0.021,0.723-0.199,1.457-0.404,2.154c-0.818,2.756-2.956,4.383-5.826,4.365c-1.038-0.006-2.126-0.09-3.104-0.414
			c-2.486-0.824-3.547-2.836-3.938-5.274c-0.111-0.702-0.141-1.424-0.141-2.137c-0.006-5.507-0.025-11.013,0.035-16.518
			c0.012-1.111,0.229-2.257,0.565-3.32c0.771-2.45,2.578-3.763,5.093-4.012c0.992-0.099,2.036-0.034,3.018,0.164
			c2.166,0.438,3.541,1.843,4.261,3.905C94.454,8.03,94.162,10.279,94.221,12.531z"/>
		<path fill="#FFFFFF" d="M79.479,10.478c-1.492,0-2.873,0-4.334,0c0-0.282,0.011-0.534-0.002-0.785
			c-0.03-0.573-0.021-1.156-0.121-1.716c-0.237-1.304-0.98-1.866-2.297-1.818c-1.108,0.04-1.81,0.753-2.006,1.973
			c-0.351,2.131,0.273,3.98,1.66,5.564c1.029,1.18,2.172,2.264,3.254,3.401c1.308,1.375,2.5,2.84,3.148,4.649
			c0.92,2.549,0.941,5.143,0.076,7.703c-0.84,2.479-2.871,3.952-5.488,4.006c-0.98,0.021-1.996-0.045-2.943-0.287
			c-2.052-0.519-3.309-1.944-3.967-3.918c-0.589-1.766-0.535-3.59-0.484-5.452c1.416,0,2.799,0,4.271,0
			c0,0.263-0.009,0.513,0.003,0.763c0.038,0.91,0.004,1.834,0.146,2.729c0.184,1.133,0.98,1.691,2.172,1.699
			c1.195,0.006,1.963-0.543,2.205-1.67c0.34-1.568,0.223-3.129-0.684-4.468c-0.795-1.176-1.775-2.229-2.709-3.305
			c-1.115-1.289-2.398-2.455-3.378-3.837c-2.231-3.15-2.446-6.646-1.202-10.213c0.85-2.435,2.76-3.581,5.284-3.75
			c1.136-0.077,2.267-0.019,3.345,0.39c2.489,0.941,3.521,2.955,3.871,5.41C79.432,8.5,79.422,9.474,79.479,10.478z"/>
		<path fill="#FFFFFF" d="M140.185,88.576c1.422,0,2.807,0,4.267,0c0,0.678-0.013,1.328,0.006,1.979
			c0.01,0.438,0.021,0.877,0.103,1.303c0.265,1.393,1.023,1.984,2.405,1.914c1.323-0.068,2.043-0.932,2.154-2.438
			c0.147-2.057-0.565-3.785-1.912-5.271c-1.015-1.119-2.104-2.168-3.146-3.262c-1.606-1.684-2.97-3.523-3.474-5.859
			c-0.479-2.234-0.434-4.463,0.388-6.617c0.922-2.439,2.774-3.629,5.332-3.791c1.678-0.107,3.297,0.096,4.702,1.117
			c1.593,1.156,2.246,2.838,2.496,4.695c0.127,0.951,0.123,1.928,0.181,2.912c-1.498,0-2.881,0-4.271,0
			c-0.063-0.859-0.057-1.695-0.188-2.512c-0.211-1.273-0.961-1.834-2.246-1.805c-1.125,0.023-1.846,0.721-2.047,1.928
			c-0.313,1.887,0.084,3.623,1.271,5.098c0.933,1.158,1.983,2.217,3.021,3.283c1.254,1.283,2.474,2.598,3.282,4.211
			c1.459,2.906,1.556,5.936,0.488,8.953c-0.883,2.498-2.853,3.688-5.438,3.826c-0.879,0.049-1.789-0.039-2.65-0.217
			c-1.954-0.404-3.271-1.623-4.035-3.445C140.067,92.654,140.125,90.635,140.185,88.576z"/>
		<path fill="#FFFFFF" d="M125.526,33.211c0-10.352,0-20.656,0-30.974c4.125,0,8.209,0,12.322,0c0,1.467,0,2.888,0,4.371
			c-2.582,0-5.153,0-7.773,0c0,2.89,0,5.721,0,8.635c2.012,0,4.046,0,6.117,0c0,1.537,0,2.991,0,4.487c-2.047,0-4.064,0-6.129,0
			c0,3.032,0,6.022,0,9.073c2.547,0,5.102,0,7.703,0c0,1.498,0,2.934,0,4.408C133.695,33.211,129.633,33.211,125.526,33.211z"/>
		<path fill="#FFFFFF" d="M104.571,65.439c-1.596,0-3.042,0-4.535,0c0-8.848,0-17.682,0-26.574c-1.57,0-3.111,0-4.695,0
			c0-1.5,0-2.938,0-4.425c4.625,0,9.244,0,13.908,0c0,1.461,0,2.899,0,4.39c-1.529,0-3.054,0-4.678,0
			C104.571,47.714,104.571,56.549,104.571,65.439z"/>
		<path fill="#FFFFFF" d="M125.222,97.758c-1.535,0-2.998,0-4.484,0c0-10.338,0-20.639,0-30.98c1.508,0,2.979,0,4.484,0
			C125.222,77.109,125.222,87.41,125.222,97.758z"/>
		<path fill="#C32328" stroke="#C32328" stroke-miterlimit="10" d="M72.92,34.847c0.246,0.038,0.489,0.012,0.738,0.031
			c2.121,0.158,3.936,1.281,4.83,3.41c0.646,1.537,0.697,3.146,0.688,4.777c-0.021,3.896-0.008,7.79-0.008,11.685
			c0,3.396-0.002,6.787-0.004,10.18c0,0.059-0.01,0.109-0.02,0.191c-0.113,0.004-0.217,0.014-0.316,0.014
			c-2.236,0-4.476,0.041-6.711-0.012c-2.135-0.047-3.77-1.021-4.781-2.93c-0.486-0.912-0.703-1.908-0.84-2.939
			c-0.227-1.688-0.156-3.389-0.076-5.068c0.078-1.646,0.475-3.247,1.57-4.572c0.715-0.863,1.621-1.414,2.696-1.724
			c1.084-0.312,2.185-0.31,3.287-0.203c0.351,0.031,0.688,0.14,1.063,0.22c0.008-0.104,0.021-0.188,0.021-0.271
			c0.002-1.979,0.021-3.955-0.015-5.931c-0.008-0.496-0.149-1.004-0.307-1.479c-0.318-0.969-1.479-1.22-2.271-1.078
			c-1.082,0.194-1.551,1.273-1.625,2.285c-0.022,0.34-0.022,0.683-0.02,1.029c0,0.941,0.229,0.839-0.93,0.839
			c-0.947,0-1.897,0-2.881,0c-0.922,0-0.633,0.028-0.633-0.659c0-0.485,0.061-1.199,0.1-1.684c0.023-0.334,0.082-0.668,0.145-0.996
			c0.361-1.904,1.189-3.504,2.986-4.441c0.729-0.381,1.508-0.592,2.334-0.645c0.25-0.014,0.494,0.01,0.738-0.029
			C72.764,34.847,72.842,34.847,72.92,34.847z M75.186,56.598c-0.045-1.604-0.016-1.75-0.109-2.613
			c-0.186-1.664-1.686-2.084-2.9-1.607c-0.787,0.313-1.101,1.016-1.125,1.771c-0.058,1.604-0.058,3.217-0.008,4.82
			c0.033,0.969,0.486,1.805,1.612,2.002c0.771,0.135,2.062-0.113,2.372-1.033c0.16-0.473,0.102-0.979,0.145-1.479
			C75.225,57.844,75.186,57.535,75.186,56.598z"/>
		<polygon fill="#C22227" points="169.25,0 219.248,49.997 169.249,99.998 159.249,89.998 199.252,49.993 159.25,9.999 		"/>
		<polygon fill="#C22227" points="49.248,0 -0.75,49.997 49.249,99.998 59.249,89.998 19.246,49.993 59.248,9.999 		"/>
	</g>
</g>
<g id="Layer_4">
	<path fill="#FFFFFF" d="M285.78,95.26c0.6,1.05,1.48,1.88,2.75,2.4c1.14,0.47,2.34,0.57,3.55,0.479c2.54-0.189,4.47-1.35,5.34-3.83
		c1.06-3.02,0.98-6.05-0.47-8.96c-0.94-1.869-2.4-3.33-3.85-4.8c-0.85-0.85-1.68-1.74-2.42-2.689c-1.16-1.49-1.57-3.221-1.26-5.101
		c0.19-1.21,0.91-1.91,2.03-1.939c1.28-0.03,2.02,0.54,2.23,1.81c0.13,0.82,0.13,1.65,0.19,2.51c1.38,0,2.75,0,4.26,0
		c-0.09-1.319-0.18-2.609-0.27-3.92c1.47,0,3,0,4.56,0c0,8.88,0,17.71,0,26.54c1.5,0,2.95,0,4.5,0c0-8.88,0-17.71,0-26.54
		c1.37,0,2.65,0,3.94,0c0.01,0.21,0.03,0.38,0.03,0.561c-0.01,3.92-0.03,7.83-0.02,11.75c0.01,2.84-0.02,5.68,0.12,8.52
		c0.22,3.9,2.83,6.22,6.72,6.141c3.36-0.07,5.46-1.65,6.22-4.83c0.25-1.051,0.32-2.16,0.33-3.24c0.05-6.53,0.05-13.05,0.07-19.57
		c0-1.25,0-2.49,0-3.77c-1.45,0-2.82,0-4.23,0c0,0.22-0.02,0.42-0.02,0.609c-0.02,7.591-0.04,15.181-0.06,22.78
		c0,0.46,0,0.92-0.05,1.37c-0.13,1.37-0.93,2.15-2.2,2.18c-1.31,0.03-2.1-0.66-2.3-2.05c-0.07-0.46-0.1-0.939-0.1-1.42
		c0-7.58,0.02-15.15,0.03-22.72c0-0.25,0-0.5,0-0.761c-5.95,0-11.79,0-17.69,0c0,1.33,0,2.61,0,3.9c-0.06-0.01-0.09,0-0.1-0.01
		c-0.09-0.22-0.17-0.44-0.26-0.66c-0.74-1.75-1.99-2.96-3.87-3.36c-0.89-0.189-1.83-0.27-2.75-0.22c-2.25,0.12-3.96,1.11-4.95,3.07
		v9.35c0.58,1.25,1.41,2.36,2.35,3.391c1.15,1.25,2.39,2.43,3.53,3.689c1.36,1.5,2.07,3.26,1.9,5.33c-0.12,1.53-0.88,2.37-2.24,2.4
		c-1.29,0.029-2.07-0.561-2.26-1.86c-0.13-0.81-0.1-1.66-0.13-2.49c-0.01-0.26,0-0.54,0-0.819c-1.08,0-2.12,0-3.15,0V95.26z"/>
	<path fill="#FFFFFF" d="M318.964,20.481c0,4.249,0,8.401,0,12.601c-1.495,0-2.961,0-4.465,0c0-10.314,0-20.623,0-30.955
		c0.099-0.021,0.17-0.051,0.245-0.051c2.348,0.004,4.698-0.022,7.047,0.024c3.544,0.07,5.49,1.63,5.961,5.146
		c0.273,2.045,0.169,4.165,0.026,6.238c-0.13,1.897-0.992,3.492-2.839,4.466c2.606,1.352,2.94,3.748,3.013,6.224
		c0.067,2.204,0,4.413,0.041,6.618c0.014,0.678,0.157,1.598,0.25,2.271c0.064-0.008,0.087,0.066-3.784,0.08
		c-0.486,0-0.745-0.121-0.775-0.617c-0.074-1.166-0.179-2.331-0.211-3.499c-0.059-1.945-0.008-3.896-0.119-5.839
		c-0.106-1.876-1.062-2.698-2.912-2.71C319.957,20.479,319.475,20.481,318.964,20.481z M319.025,6.522c0,3.216,0,6.361,0,9.529
		c0.68,0,1.309,0.026,1.939-0.005c1.405-0.072,2.297-0.836,2.372-2.243c0.092-1.74,0.078-3.493,0.003-5.235
		c-0.051-1.211-0.807-1.977-1.852-2.036C320.681,6.485,319.874,6.522,319.025,6.522z"/>
	<path fill="#FFFFFF" d="M329.849,2.119c4.119,0,8.176,0,12.264,0c0,1.467,0,2.89,0,4.373c-2.568,0-5.122,0-7.72,0
		c0,2.893,0,5.723,0,8.638c2.007,0,4.03,0,6.083,0c0,1.523,0,2.966,0,4.471c-2.019,0-4.035,0-6.099,0c0,3.053,0,6.044,0,9.098
		c2.552,0,5.087,0,7.664,0c0,1.498,0,2.936,0,4.433c-0.228,0-0.42,0-0.611,0c-1.846,0-10.694,0-11.529,0
		C329.894,31.226,329.849,8.708,329.849,2.119z"/>
	<path fill="#FFFFFF" d="M370.43,2.26v30.99c-0.81,0-1.63,0-2.45,0.01c-0.39,0-0.57-0.08-0.68-0.52
		c-1.71-7.08-3.45-14.16-5.18-21.24c-0.04-0.18-0.09-0.37-0.24-0.54V33.2h-4.03V2.23h5.64c1.49,6.13,2.97,12.24,4.45,18.35
		c0.04,0,0.08-0.01,0.12-0.01V2.26H370.43z"/>
	<path fill="#FFFFFF" d="M324.978,66.738c0.31,0,0.578,0,0.848,0c2.171,0.004,4.343,0.002,6.511,0.016
		c1.801,0.016,3.438,0.48,4.692,1.869c1.086,1.193,1.573,2.668,1.642,4.238c0.104,2.262,0.112,4.523,0.106,6.791
		c-0.011,3.934,0.001,7.869-0.112,11.799c-0.061,1.975-0.702,3.785-2.325,5.08c-0.993,0.793-2.166,1.191-3.394,1.223
		c-2.642,0.066-5.282,0.021-7.965,0.021C324.978,87.434,324.978,77.117,324.978,66.738z M329.473,93.354
		c0.963,0,1.888,0.049,2.809-0.012c0.96-0.063,1.553-0.6,1.779-1.555c0.124-0.533,0.176-1.1,0.18-1.646
		c0.025-5.246,0.035-10.488,0.039-15.729c0.002-0.455-0.035-0.916-0.103-1.361c-0.16-1.021-0.754-1.74-1.676-1.82
		c-0.991-0.088-1.995-0.021-3.025-0.021C329.473,78.59,329.473,85.936,329.473,93.354z"/>
	<path fill="#FFFFFF" d="M304.202,52.813c0,4.25,0,8.416,0,12.615c-1.502,0-2.956,0-4.447,0c0-10.313,0-20.624,0-30.966
		c0.097-0.02,0.187-0.055,0.272-0.055c2.489,0.008,4.979-0.018,7.465,0.041c2.751,0.063,4.701,1.58,5.346,4.115
		c0.187,0.725,0.304,1.486,0.311,2.233c0.01,1.705,0.021,3.42-0.138,5.115c-0.17,1.866-1.014,3.403-2.792,4.355
		c0.352,0.238,0.672,0.424,0.954,0.652c1.331,1.077,1.823,2.581,1.917,4.2c0.115,2.002,0.069,4.012,0.129,6.02
		c0.042,1.42,0.145,2.836,0.223,4.324c-0.894,0-1.949,0-3.002,0c-1.425,0-1.465,0.008-1.634-1.404
		c-0.105-0.887-0.074-1.783-0.09-2.678c-0.037-1.967-0.008-3.938-0.114-5.896c-0.104-1.822-1.077-2.654-2.892-2.668
		C305.236,52.811,304.766,52.813,304.202,52.813z M304.239,48.373c0.749,0,1.438,0.051,2.122-0.013
		c1.331-0.118,2.145-0.854,2.216-2.2c0.095-1.761,0.074-3.531,0.002-5.295c-0.033-0.837-0.408-1.681-1.311-1.858
		c-0.979-0.191-2.007-0.148-3.029-0.207C304.239,42.065,304.239,45.183,304.239,48.373z"/>
	<path fill="#FFFFFF" d="M357.877,82.174c0,2.941,0.063,5.889-0.032,8.826c-0.037,1.146-0.32,2.322-0.707,3.404
		c-0.635,1.764-1.951,2.902-3.751,3.422c-1.676,0.482-3.367,0.484-5.008-0.078c-2.573-0.881-3.726-2.906-4.111-5.471
		c-0.108-0.727-0.128-1.465-0.13-2.197c-0.009-5.328-0.004-10.654,0.004-15.982c0-1.314,0.184-2.604,0.678-3.84
		c0.953-2.387,2.775-3.621,5.248-3.813c1.101-0.084,2.273-0.016,3.33,0.277c2.697,0.742,4.041,2.783,4.324,5.441
		c0.227,2.127,0.139,4.283,0.17,6.428c0.021,1.189,0.004,2.391,0.004,3.578C357.893,82.174,357.883,82.174,357.877,82.174z
		 M353.369,82.189c0.002,0,0.007,0,0.011,0c0-2.779,0.01-5.563-0.011-8.342c-0.002-0.51-0.078-1.033-0.223-1.521
		c-0.309-1.053-1.038-1.521-2.195-1.508c-1.055,0.016-1.8,0.527-2.052,1.533c-0.15,0.59-0.223,1.215-0.225,1.818
		c-0.021,5.426-0.023,10.85-0.021,16.271c0,0.453,0.039,0.914,0.115,1.357c0.2,1.193,0.972,1.869,2.132,1.914
		c1.215,0.045,2.041-0.563,2.307-1.771c0.107-0.498,0.146-1.021,0.149-1.533C353.377,87.674,353.369,84.932,353.369,82.189z"/>
	<path fill="#FFFFFF" d="M312.857,12.531c-1.446,0-2.818,0-4.258,0c0-1.065,0.027-2.093-0.01-3.117
		c-0.023-0.628-0.071-1.276-0.25-1.872c-0.287-0.967-1.013-1.392-2.096-1.384c-1.015,0.008-1.736,0.475-2.028,1.412
		c-0.146,0.466-0.239,0.97-0.241,1.458c-0.021,5.645-0.02,11.29-0.023,16.936c0,0.238,0,0.478,0.02,0.716
		c0.123,1.731,1.282,2.621,2.958,2.256c0.873-0.19,1.33-0.813,1.522-1.642c0.091-0.401,0.13-0.824,0.134-1.239
		c0.018-1.468,0.008-2.938,0.008-4.456c1.412,0,2.796,0,4.202,0c0,1.779,0.038,3.563-0.021,5.34
		c-0.021,0.723-0.197,1.457-0.401,2.154c-0.813,2.756-2.936,4.383-5.785,4.365c-1.03-0.006-2.11-0.09-3.082-0.414
		c-2.468-0.824-3.522-2.836-3.91-5.274c-0.11-0.702-0.14-1.424-0.14-2.137c-0.006-5.507-0.025-11.013,0.034-16.518
		c0.012-1.111,0.228-2.257,0.562-3.32c0.765-2.45,2.559-3.763,5.057-4.012c0.985-0.099,2.022-0.034,2.997,0.164
		c2.151,0.438,3.516,1.843,4.231,3.905C313.089,8.03,312.799,10.279,312.857,12.531z"/>
	<path fill="#FFFFFF" d="M285.78,5.11c0.9-2.17,2.73-3.2,5.1-3.36c1.12-0.08,2.25-0.02,3.32,0.39c2.47,0.94,3.49,2.95,3.84,5.41
		c0.13,0.95,0.12,1.92,0.18,2.93c-1.48,0-2.85,0-4.3,0c0-0.28,0.01-0.54-0.01-0.79c-0.03-0.57-0.02-1.15-0.12-1.71
		c-0.23-1.31-0.97-1.87-2.28-1.82c-1.1,0.04-1.79,0.75-1.99,1.97c-0.35,2.13,0.27,3.98,1.65,5.57c1.02,1.18,2.16,2.26,3.23,3.4
		c1.3,1.37,2.48,2.84,3.13,4.65c0.91,2.54,0.93,5.14,0.07,7.7c-0.83,2.48-2.85,3.95-5.45,4.01c-0.97,0.02-1.98-0.05-2.92-0.29
		c-1.63-0.41-2.74-1.41-3.45-2.79V23.8c1.08,0,2.15,0,3.27,0c0,0.26-0.01,0.51,0.01,0.76c0.03,0.91,0,1.84,0.14,2.73
		c0.18,1.13,0.97,1.69,2.16,1.7c1.18,0.01,1.95-0.54,2.19-1.67c0.33-1.57,0.22-3.13-0.68-4.47c-0.79-1.18-1.77-2.23-2.69-3.3
		c-1.11-1.29-2.38-2.46-3.36-3.84c-0.42-0.6-0.77-1.21-1.04-1.84V5.11z"/>
	<path fill="#FFFFFF" d="M370.43,84.91c-0.78-1.37-1.86-2.53-2.96-3.66c-1.03-1.07-2.07-2.13-3-3.28c-1.17-1.479-1.57-3.21-1.26-5.1
		c0.2-1.21,0.92-1.91,2.03-1.93c1.28-0.03,2.03,0.529,2.23,1.81c0.13,0.81,0.13,1.65,0.19,2.51c0.91,0,1.83,0,2.77,0
		c0.48,0,0.97,0,1.47,0c-0.06-0.99-0.05-1.96-0.18-2.91c-0.17-1.3-0.54-2.51-1.29-3.52c-0.32-0.43-0.71-0.83-1.19-1.18
		c-1.39-1.021-3-1.221-4.66-1.12c-2.54,0.17-4.38,1.35-5.3,3.79c-0.81,2.16-0.86,4.39-0.38,6.62c0.5,2.34,1.85,4.18,3.45,5.859
		c1.03,1.09,2.11,2.141,3.12,3.26c1.34,1.49,2.04,3.221,1.9,5.271c-0.11,1.51-0.83,2.37-2.14,2.439c-1.37,0.07-2.13-0.52-2.39-1.909
		c-0.08-0.431-0.09-0.87-0.1-1.311c-0.02-0.649-0.01-1.3-0.01-1.97c-1.45,0-2.82,0-4.23,0c-0.06,2.05-0.12,4.07,0.68,6
		c0.76,1.82,2.06,3.04,4.01,3.439c0.85,0.181,1.75,0.271,2.63,0.221c1.96-0.11,3.58-0.83,4.61-2.3V84.91z"/>
	<path fill="#FFFFFF" d="M343.941,33.211c0-10.352,0-20.656,0-30.974c4.096,0,8.151,0,12.235,0c0,1.467,0,2.888,0,4.371
		c-2.564,0-5.117,0-7.719,0c0,2.89,0,5.721,0,8.635c1.998,0,4.017,0,6.074,0c0,1.537,0,2.991,0,4.487c-2.032,0-4.035,0-6.085,0
		c0,3.032,0,6.022,0,9.073c2.529,0,5.066,0,7.649,0c0,1.498,0,2.934,0,4.408C352.053,33.211,348.019,33.211,343.941,33.211z"/>
	<path fill="#FFFFFF" d="M323.135,65.439c-1.585,0-3.021,0-4.503,0c0-8.848,0-17.682,0-26.574c-1.559,0-3.089,0-4.662,0
		c0-1.5,0-2.938,0-4.425c4.592,0,9.178,0,13.81,0c0,1.461,0,2.899,0,4.39c-1.519,0-3.032,0-4.645,0
		C323.135,47.714,323.135,56.549,323.135,65.439z"/>
	<path fill="#FFFFFF" d="M343.639,97.758c-1.524,0-2.977,0-4.453,0c0-10.338,0-20.639,0-30.98c1.498,0,2.959,0,4.453,0
		C343.639,77.109,343.639,87.41,343.639,97.758z"/>
	<path fill="#C32328" stroke="#C32328" stroke-miterlimit="10" d="M297.24,38.29c-0.89-2.13-2.69-3.25-4.8-3.41
		c-0.25-0.02-0.49,0-0.73-0.03h-0.24c-0.25,0.04-0.49,0.01-0.74,0.03c-0.82,0.05-1.59,0.26-2.31,0.64
		c-1.38,0.72-2.18,1.84-2.64,3.18v4.6h2.92c1.15,0,0.92,0.1,0.92-0.84c0-0.34,0-0.69,0.02-1.03c0.07-1.01,0.54-2.09,1.61-2.28
		c0.79-0.14,1.94,0.11,2.26,1.08c0.16,0.47,0.3,0.98,0.3,1.48c0.04,1.97,0.02,3.95,0.02,5.93c0,0.08-0.01,0.16-0.02,0.27
		c-0.37-0.08-0.71-0.19-1.06-0.22c-1.09-0.11-2.18-0.11-3.26,0.2c-1.07,0.31-1.97,0.86-2.68,1.72c-0.46,0.57-0.8,1.18-1.03,1.831
		V61.3c0.1,0.311,0.23,0.601,0.38,0.891c1.01,1.909,2.63,2.89,4.75,2.93c2.22,0.06,4.44,0.01,6.66,0.01c0.1,0,0.21-0.01,0.32-0.01
		c0.01-0.08,0.02-0.13,0.02-0.19V54.75c0-3.9-0.01-7.79,0.01-11.68C297.93,41.43,297.88,39.83,297.24,38.29z M293.94,58.46
		c-0.04,0.5,0.02,1-0.14,1.48c-0.31,0.92-1.59,1.17-2.35,1.029c-1.12-0.2-1.57-1.029-1.61-2c-0.04-1.6-0.04-3.22,0.01-4.819
		c0.03-0.761,0.34-1.46,1.12-1.771c1.21-0.479,2.69-0.06,2.88,1.601c0.09,0.869,0.06,1.01,0.11,2.619
		C293.96,57.54,294,57.84,293.94,58.46z"/>
	<polygon fill="#C22227" points="380.356,0 430,49.997 380.355,99.998 370.425,89.998 410.145,49.993 370.426,9.999 	"/>
	<polygon fill="#C22227" points="276.203,0 226.559,49.997 276.204,99.998 286.133,89.998 246.414,49.993 286.132,9.999 	"/>
</g>
<g id="Layer_5">
	<path display="none" fill="#999999" d="M511.78-0.1v1.82c-2.32,0.19-4.11,1.21-5,3.35v8.76c0.27,0.63,0.62,1.24,1.04,1.84
		c0.98,1.38,2.25,2.55,3.36,3.84c0.2,0.23,0.4,0.46,0.6,0.69v8.69c-0.87-0.16-1.43-0.71-1.58-1.64c-0.14-0.89-0.11-1.81-0.14-2.73
		c-0.02-0.25-0.01-0.5-0.01-0.76h-3.27v6.58c0.71,1.38,1.82,2.38,3.45,2.79c0.5,0.13,1.02,0.21,1.55,0.25v1.46h-0.05
		c-0.82,0.06-1.59,0.26-2.31,0.64c-1.38,0.73-2.18,1.84-2.64,3.19v4.59h2.92c1.15,0,0.92,0.1,0.92-0.84c0-0.34,0-0.69,0.02-1.02
		c0.06-0.86,0.4-1.75,1.14-2.13v8.35c-0.43,0.03-0.86,0.11-1.29,0.23c-1.07,0.32-1.97,0.86-2.68,1.72c-0.46,0.58-0.8,1.18-1.03,1.84
		v9.85c0.1,0.32,0.23,0.61,0.38,0.9c0.99,1.859,2.56,2.84,4.62,2.91v1.31h-0.05c-2.25,0.12-3.96,1.12-4.95,3.08v9.34
		c0.58,1.25,1.41,2.37,2.35,3.4c0.86,0.93,1.77,1.819,2.65,2.74v8.64c-0.97-0.13-1.56-0.72-1.72-1.83c-0.13-0.8-0.1-1.66-0.13-2.49
		c-0.01-0.26,0-0.54,0-0.81h-3.15v6.77c0.6,1.05,1.48,1.88,2.75,2.4c0.73,0.3,1.48,0.45,2.25,0.49v1.8h-59.57V-0.1H511.78z"/>
	<path display="none" fill="#999999" d="M646-0.1v100h-59.57V98.22c0.12,0,0.26,0,0.39-0.01c1.96-0.12,3.58-0.83,4.61-2.3V84.88
		c-0.78-1.38-1.86-2.54-2.96-3.67c-0.69-0.71-1.38-1.42-2.04-2.16v-8.13c1.17,0.021,1.85,0.57,2.04,1.79
		c0.13,0.81,0.13,1.66,0.19,2.51h4.24c-0.06-0.989-0.05-1.96-0.18-2.91c-0.17-1.3-0.54-2.51-1.29-3.52
		c-0.32-0.42-0.71-0.83-1.19-1.17c-1.15-0.86-2.45-1.14-3.81-1.15V25.01c0.63,2.57,1.25,5.13,1.87,7.7
		c0.11,0.44,0.29,0.51,0.68,0.51c0.82-0.01,1.64-0.01,2.45-0.01V2.22h-2.37v18.31c-0.04,0-0.08,0.01-0.12,0.01
		c-0.84-3.45-1.67-6.9-2.51-10.36V-0.1H646z"/>
	<g>
		<path fill="#FFFFFF" d="M517.42,94.27c-0.87,2.48-2.8,3.65-5.34,3.83c-0.44,0.04-0.87,0.04-1.3,0.011v-4.53
			c0.17,0.03,0.35,0.04,0.54,0.04c1.36-0.04,2.12-0.87,2.24-2.41c0.17-2.07-0.54-3.83-1.9-5.33c-0.29-0.32-0.58-0.63-0.88-0.939
			v-6.99c0.71,0.899,1.51,1.76,2.32,2.56c1.45,1.471,2.91,2.94,3.85,4.8C518.4,88.22,518.48,91.25,517.42,94.27z"/>
		<path fill="#FFFFFF" d="M544.33,66.75v3.76c-0.02,6.53-0.02,13.04-0.07,19.57c-0.01,1.09-0.08,2.189-0.33,3.25
			c-0.76,3.17-2.86,4.75-6.22,4.83c-3.89,0.07-6.5-2.24-6.72-6.15c-0.14-2.84-0.11-5.68-0.12-8.51c-0.01-3.92,0.01-7.83,0.02-11.75
			c0-0.19-0.02-0.36-0.03-0.57h-3.94v26.54h-4.5V71.18h-4.56c0.09,1.32,0.18,2.61,0.27,3.92h-4.26c-0.06-0.85-0.06-1.68-0.19-2.51
			c-0.21-1.26-0.95-1.84-2.23-1.8c-0.24,0-0.47,0.04-0.67,0.12v-4.53c0.9-0.05,1.83,0.04,2.7,0.22c1.88,0.4,3.13,1.61,3.87,3.36
			c0.09,0.22,0.17,0.45,0.26,0.66c0.01,0.01,0.04,0,0.1,0.01V66.73h17.69v0.77c-0.01,7.56-0.03,15.13-0.03,22.71
			c0,0.49,0.03,0.96,0.1,1.42c0.2,1.39,0.99,2.08,2.3,2.05c1.27-0.02,2.07-0.8,2.2-2.18c0.05-0.45,0.05-0.91,0.05-1.37
			c0.02-7.59,0.04-15.18,0.06-22.78c0-0.18,0.02-0.39,0.02-0.6H544.33z"/>
		<path fill="#FFFFFF" d="M538.964,20.446c0,4.249,0,8.401,0,12.601c-1.495,0-2.961,0-4.465,0c0-10.314,0-20.623,0-30.955
			c0.099-0.021,0.17-0.051,0.245-0.051c2.348,0.004,4.698-0.022,7.047,0.024c3.544,0.07,5.49,1.63,5.961,5.146
			c0.273,2.045,0.169,4.165,0.026,6.238c-0.13,1.897-0.992,3.492-2.839,4.466c2.606,1.352,2.94,3.748,3.013,6.224
			c0.067,2.204,0,4.413,0.041,6.618c0.014,0.678,0.157,1.598,0.25,2.271c0.064-0.008,0.087,0.066-3.784,0.08
			c-0.486,0-0.745-0.121-0.775-0.617c-0.074-1.166-0.179-2.331-0.211-3.499c-0.059-1.945-0.008-3.896-0.119-5.839
			c-0.106-1.876-1.062-2.698-2.912-2.71C539.957,20.444,539.475,20.446,538.964,20.446z M539.025,6.487c0,3.216,0,6.361,0,9.529
			c0.68,0,1.309,0.026,1.939-0.005c1.405-0.072,2.297-0.836,2.372-2.243c0.092-1.74,0.078-3.493,0.003-5.235
			c-0.051-1.211-0.807-1.977-1.852-2.036C540.681,6.45,539.874,6.487,539.025,6.487z"/>
		<path fill="#FFFFFF" d="M549.849,2.084c4.119,0,8.176,0,12.264,0c0,1.467,0,2.89,0,4.373c-2.568,0-5.122,0-7.72,0
			c0,2.893,0,5.723,0,8.638c2.007,0,4.03,0,6.083,0c0,1.523,0,2.966,0,4.471c-2.019,0-4.035,0-6.099,0c0,3.053,0,6.044,0,9.098
			c2.552,0,5.087,0,7.664,0c0,1.498,0,2.936,0,4.433c-0.228,0-0.42,0-0.611,0c-1.846,0-10.694,0-11.529,0
			C549.894,31.19,549.849,8.673,549.849,2.084z"/>
		<path fill="#FFFFFF" d="M585.43,10.18v14.83c-1.1-4.52-2.21-9.03-3.31-13.55c-0.04-0.18-0.09-0.37-0.24-0.54v22.25h-4.03V2.19
			h5.64C584.14,4.85,584.78,7.52,585.43,10.18z"/>
		<path fill="#FFFFFF" d="M544.978,66.703c0.31,0,0.578,0,0.848,0c2.171,0.004,4.343,0.002,6.511,0.016
			c1.801,0.016,3.438,0.48,4.692,1.869c1.086,1.193,1.573,2.668,1.642,4.238c0.104,2.262,0.112,4.523,0.106,6.791
			c-0.011,3.934,0.001,7.869-0.112,11.799c-0.061,1.975-0.702,3.785-2.325,5.08c-0.993,0.793-2.166,1.191-3.394,1.223
			c-2.642,0.066-5.282,0.021-7.965,0.021C544.978,87.398,544.978,77.082,544.978,66.703z M549.473,93.318
			c0.963,0,1.888,0.049,2.809-0.012c0.96-0.063,1.553-0.6,1.779-1.555c0.124-0.533,0.176-1.1,0.18-1.646
			c0.025-5.246,0.035-10.488,0.039-15.729c0.002-0.455-0.035-0.916-0.103-1.361c-0.16-1.021-0.754-1.74-1.676-1.82
			c-0.991-0.088-1.995-0.021-3.025-0.021C549.473,78.555,549.473,85.9,549.473,93.318z"/>
		<path fill="#FFFFFF" d="M524.202,52.777c0,4.25,0,8.416,0,12.615c-1.502,0-2.956,0-4.447,0c0-10.313,0-20.624,0-30.966
			c0.097-0.02,0.187-0.055,0.272-0.055c2.489,0.008,4.979-0.018,7.465,0.041c2.751,0.063,4.701,1.58,5.346,4.115
			c0.187,0.725,0.304,1.486,0.311,2.233c0.01,1.705,0.021,3.42-0.138,5.115c-0.17,1.866-1.014,3.403-2.792,4.355
			c0.352,0.238,0.672,0.424,0.954,0.652c1.331,1.077,1.823,2.581,1.917,4.2c0.115,2.002,0.069,4.012,0.129,6.02
			c0.042,1.42,0.145,2.836,0.223,4.324c-0.894,0-1.949,0-3.002,0c-1.425,0-1.465,0.008-1.634-1.404
			c-0.105-0.887-0.074-1.783-0.09-2.678c-0.037-1.967-0.008-3.938-0.114-5.896c-0.104-1.822-1.077-2.654-2.892-2.668
			C525.236,52.775,524.766,52.777,524.202,52.777z M524.239,48.338c0.749,0,1.438,0.051,2.122-0.013
			c1.331-0.118,2.145-0.854,2.216-2.2c0.095-1.761,0.074-3.531,0.002-5.295c-0.033-0.837-0.408-1.681-1.311-1.858
			c-0.979-0.191-2.007-0.148-3.029-0.207C524.239,42.03,524.239,45.147,524.239,48.338z"/>
		<path fill="#FFFFFF" d="M577.877,82.139c0,2.941,0.063,5.889-0.032,8.826c-0.037,1.146-0.32,2.322-0.707,3.404
			c-0.635,1.764-1.951,2.902-3.751,3.422c-1.676,0.482-3.367,0.484-5.008-0.078c-2.573-0.881-3.726-2.906-4.111-5.471
			c-0.108-0.727-0.128-1.465-0.13-2.197c-0.009-5.328-0.004-10.654,0.004-15.982c0-1.314,0.184-2.604,0.678-3.84
			c0.953-2.387,2.775-3.621,5.248-3.813c1.101-0.084,2.273-0.016,3.33,0.277c2.697,0.742,4.041,2.783,4.324,5.441
			c0.227,2.127,0.139,4.283,0.17,6.428c0.021,1.189,0.004,2.391,0.004,3.578C577.893,82.139,577.883,82.139,577.877,82.139z
			 M573.369,82.154c0.002,0,0.007,0,0.011,0c0-2.779,0.01-5.563-0.011-8.342c-0.002-0.51-0.078-1.033-0.223-1.521
			c-0.309-1.053-1.038-1.521-2.195-1.508c-1.055,0.016-1.8,0.527-2.052,1.533c-0.15,0.59-0.223,1.215-0.225,1.818
			c-0.021,5.426-0.023,10.85-0.021,16.271c0,0.453,0.039,0.914,0.115,1.357c0.2,1.193,0.972,1.869,2.132,1.914
			c1.215,0.045,2.041-0.563,2.307-1.771c0.107-0.498,0.146-1.021,0.149-1.533C573.377,87.639,573.369,84.896,573.369,82.154z"/>
		<path fill="#FFFFFF" d="M532.857,12.496c-1.446,0-2.818,0-4.258,0c0-1.065,0.027-2.093-0.01-3.117
			c-0.023-0.628-0.071-1.276-0.25-1.872c-0.287-0.967-1.013-1.392-2.096-1.384c-1.015,0.008-1.736,0.475-2.028,1.412
			c-0.146,0.466-0.239,0.97-0.241,1.458c-0.021,5.645-0.02,11.29-0.023,16.936c0,0.238,0,0.478,0.02,0.716
			c0.123,1.731,1.282,2.621,2.958,2.256c0.873-0.19,1.33-0.813,1.522-1.642c0.091-0.401,0.13-0.824,0.134-1.239
			c0.018-1.468,0.008-2.938,0.008-4.456c1.412,0,2.796,0,4.202,0c0,1.779,0.038,3.563-0.021,5.34
			c-0.021,0.723-0.197,1.457-0.401,2.154c-0.813,2.756-2.936,4.383-5.785,4.365c-1.03-0.006-2.11-0.09-3.082-0.414
			c-2.468-0.824-3.522-2.836-3.91-5.274c-0.11-0.702-0.14-1.424-0.14-2.137c-0.006-5.507-0.025-11.013,0.034-16.518
			c0.012-1.111,0.228-2.257,0.562-3.32c0.765-2.45,2.559-3.763,5.057-4.012c0.985-0.099,2.022-0.034,2.997,0.164
			c2.151,0.438,3.516,1.843,4.231,3.905C533.089,7.995,532.799,10.244,532.857,12.496z"/>
		<path fill="#FFFFFF" d="M517.6,29.42c-0.83,2.48-2.85,3.94-5.45,4c-0.45,0.01-0.91,0-1.37-0.04v-4.49
			c0.18,0.05,0.37,0.07,0.58,0.07c1.18,0,1.95-0.54,2.19-1.68c0.33-1.57,0.22-3.13-0.68-4.47c-0.62-0.93-1.36-1.77-2.09-2.61v-7.02
			c0.12,0.17,0.25,0.33,0.39,0.49c1.02,1.17,2.16,2.25,3.23,3.39c1.3,1.38,2.48,2.84,3.13,4.65
			C518.44,24.25,518.46,26.85,517.6,29.42z"/>
		<path fill="#FFFFFF" d="M511.51,6.12c-0.27,0.01-0.51,0.06-0.73,0.15V1.72c0.03,0,0.07-0.01,0.1-0.01
			c1.12-0.08,2.25-0.02,3.32,0.39c2.47,0.94,3.49,2.95,3.84,5.41c0.13,0.95,0.12,1.93,0.18,2.93h-4.3c0-0.27,0.01-0.54-0.01-0.79
			c-0.03-0.57-0.02-1.15-0.12-1.71C513.56,6.63,512.82,6.07,511.51,6.12z"/>
		<path fill="#FFFFFF" d="M583.21,72.83c-0.31,1.89,0.09,3.63,1.26,5.1c0.31,0.38,0.63,0.75,0.96,1.12v6.931
			c-1-1.101-2.06-2.141-3.08-3.221c-1.6-1.68-2.95-3.51-3.45-5.85c-0.48-2.24-0.43-4.46,0.38-6.62c0.92-2.45,2.76-3.62,5.3-3.79
			c0.28-0.02,0.57-0.03,0.85-0.03v4.45c-0.06-0.01-0.12-0.01-0.19-0.01C584.13,70.92,583.41,71.62,583.21,72.83z"/>
		<path fill="#FFFFFF" d="M585.23,93.73c0.07,0,0.13-0.011,0.2-0.03v4.52c-0.76,0-1.52-0.08-2.24-0.239
			c-1.95-0.4-3.25-1.61-4.01-3.44c-0.8-1.92-0.74-3.95-0.68-6h4.23c0,0.67-0.01,1.33,0.01,1.97c0.01,0.45,0.02,0.88,0.1,1.32
			C583.1,93.21,583.86,93.8,585.23,93.73z"/>
		<path fill="#FFFFFF" d="M563.941,33.176c0-10.352,0-20.656,0-30.974c4.096,0,8.151,0,12.235,0c0,1.467,0,2.888,0,4.371
			c-2.564,0-5.117,0-7.719,0c0,2.89,0,5.721,0,8.635c1.998,0,4.017,0,6.074,0c0,1.537,0,2.991,0,4.487c-2.032,0-4.035,0-6.085,0
			c0,3.032,0,6.022,0,9.073c2.529,0,5.066,0,7.649,0c0,1.498,0,2.934,0,4.408C572.053,33.176,568.019,33.176,563.941,33.176z"/>
		<path fill="#FFFFFF" d="M543.135,65.404c-1.585,0-3.021,0-4.503,0c0-8.848,0-17.682,0-26.574c-1.559,0-3.089,0-4.662,0
			c0-1.5,0-2.938,0-4.425c4.592,0,9.178,0,13.81,0c0,1.461,0,2.899,0,4.39c-1.519,0-3.032,0-4.645,0
			C543.135,47.679,543.135,56.514,543.135,65.404z"/>
		<path fill="#FFFFFF" d="M563.639,97.723c-1.524,0-2.977,0-4.453,0c0-10.338,0-20.639,0-30.98c1.498,0,2.959,0,4.453,0
			C563.639,77.074,563.639,87.375,563.639,97.723z"/>
		<path fill="#C32328" stroke="#C32328" stroke-miterlimit="10" d="M517.24,38.25c-0.89-2.13-2.69-3.25-4.8-3.41
			c-0.25-0.02-0.49,0-0.73-0.03h-0.24c-0.23,0.04-0.46,0.01-0.69,0.03v4.43c0.14-0.08,0.3-0.13,0.47-0.16
			c0.79-0.14,1.94,0.11,2.26,1.08c0.16,0.48,0.3,0.98,0.3,1.48c0.04,1.98,0.02,3.95,0.02,5.93c0,0.09-0.01,0.16-0.02,0.28
			c-0.37-0.09-0.71-0.19-1.06-0.23c-0.66-0.07-1.32-0.09-1.97-0.03v4.82c0.06-0.04,0.12-0.07,0.19-0.101
			c1.21-0.47,2.69-0.05,2.88,1.61c0.09,0.859,0.06,1.01,0.11,2.609c0,0.94,0.04,1.24-0.02,1.86c-0.04,0.5,0.02,1-0.14,1.49
			c-0.31,0.92-1.59,1.17-2.35,1.02c-0.26-0.05-0.48-0.13-0.67-0.239v4.38c0.04,0.01,0.09,0.01,0.13,0.01
			c2.22,0.06,4.44,0.01,6.66,0.01c0.1,0,0.21-0.01,0.32-0.01c0.01-0.08,0.02-0.12,0.02-0.19V54.71c0-3.9-0.01-7.79,0.01-11.68
			C517.93,41.4,517.88,39.79,517.24,38.25z"/>
		<polygon fill="#C22227" points="500.453,0 450.809,49.997 500.454,99.998 510.383,89.998 470.664,49.993 510.382,9.999 		"/>
		<polygon fill="#C22227" points="595.356,-0.035 645,49.962 595.355,99.963 585.425,89.963 625.145,49.958 585.426,9.964 		"/>
	</g>
</g>
<g id="Layer_6">
	<g>
		<path fill="#FFFFFF" d="M766,66.77v3.761c-0.02,6.529-0.02,13.04-0.07,19.569c-0.01,1.091-0.08,2.19-0.33,3.25
			c-0.76,3.17-2.86,4.75-6.22,4.83c-3.89,0.07-6.5-2.239-6.72-6.149c-0.14-2.84-0.11-5.681-0.12-8.511
			c-0.01-3.92,0.01-7.829,0.02-11.75c0-0.189-0.02-0.359-0.03-0.569h-3.94v26.54h-4.5V71.2h-4.04v-4.45h17.02v0.77
			c-0.01,7.561-0.03,15.131-0.03,22.711c0,0.489,0.03,0.96,0.1,1.42c0.2,1.39,0.99,2.08,2.3,2.05c1.27-0.021,2.07-0.8,2.2-2.181
			c0.05-0.449,0.05-0.909,0.05-1.369c0.02-7.591,0.04-15.181,0.06-22.78c0-0.18,0.02-0.39,0.02-0.601H766z"/>
		<path fill="#FFFFFF" d="M760.631,20.464c0,4.249,0,8.401,0,12.601c-1.495,0-2.961,0-4.465,0c0-10.314,0-20.623,0-30.955
			c0.099-0.021,0.17-0.051,0.245-0.051c2.348,0.004,4.698-0.022,7.047,0.024c3.544,0.07,5.49,1.63,5.961,5.146
			c0.273,2.045,0.169,4.165,0.026,6.238c-0.13,1.897-0.992,3.492-2.839,4.466c2.606,1.352,2.94,3.748,3.013,6.224
			c0.067,2.204,0,4.413,0.041,6.618c0.014,0.678,0.157,1.598,0.25,2.271c0.064-0.008,0.087,0.066-3.784,0.08
			c-0.486,0-0.745-0.121-0.775-0.617c-0.074-1.166-0.179-2.331-0.211-3.499c-0.059-1.945-0.008-3.896-0.119-5.839
			c-0.106-1.876-1.062-2.698-2.912-2.71C761.624,20.462,761.142,20.464,760.631,20.464z M760.692,6.505c0,3.216,0,6.361,0,9.529
			c0.68,0,1.309,0.026,1.939-0.005c1.405-0.072,2.297-0.836,2.372-2.243c0.092-1.74,0.078-3.493,0.003-5.235
			c-0.051-1.211-0.807-1.977-1.852-2.036C762.348,6.468,761.541,6.505,760.692,6.505z"/>
		<path fill="#FFFFFF" d="M771.516,2.103c4.119,0,8.176,0,12.264,0c0,1.467,0,2.89,0,4.373c-2.568,0-5.122,0-7.72,0
			c0,2.893,0,5.723,0,8.638c2.007,0,4.03,0,6.083,0c0,1.523,0,2.966,0,4.471c-2.019,0-4.035,0-6.099,0c0,3.053,0,6.044,0,9.098
			c2.552,0,5.087,0,7.664,0c0,1.498,0,2.936,0,4.433c-0.228,0-0.42,0-0.611,0c-1.846,0-10.694,0-11.529,0
			C771.561,31.209,771.516,8.691,771.516,2.103z"/>
		<path fill="#FFFFFF" d="M766.645,66.722c0.31,0,0.578,0,0.848,0c2.171,0.004,4.343,0.002,6.511,0.016
			c1.801,0.016,3.438,0.48,4.692,1.869c1.086,1.193,1.573,2.668,1.642,4.238c0.104,2.262,0.112,4.523,0.106,6.791
			c-0.011,3.934,0.001,7.869-0.112,11.799c-0.061,1.975-0.702,3.785-2.325,5.08c-0.993,0.793-2.166,1.191-3.394,1.223
			c-2.642,0.066-5.282,0.021-7.965,0.021C766.645,87.417,766.645,77.101,766.645,66.722z M771.14,93.337
			c0.963,0,1.888,0.049,2.809-0.012c0.96-0.063,1.553-0.6,1.779-1.555c0.124-0.533,0.176-1.1,0.18-1.646
			c0.025-5.246,0.035-10.488,0.039-15.729c0.002-0.455-0.035-0.916-0.103-1.361c-0.16-1.021-0.754-1.74-1.676-1.82
			c-0.991-0.088-1.995-0.021-3.025-0.021C771.14,78.573,771.14,85.919,771.14,93.337z"/>
		<path fill="#FFFFFF" d="M745.869,52.796c0,4.25,0,8.416,0,12.615c-1.502,0-2.956,0-4.447,0c0-10.313,0-20.624,0-30.966
			c0.097-0.02,0.187-0.055,0.272-0.055c2.489,0.008,4.979-0.018,7.465,0.041c2.751,0.063,4.701,1.58,5.346,4.115
			c0.187,0.725,0.304,1.486,0.311,2.233c0.01,1.705,0.021,3.42-0.138,5.115c-0.17,1.866-1.014,3.403-2.792,4.355
			c0.352,0.238,0.672,0.424,0.954,0.652c1.331,1.077,1.823,2.581,1.917,4.2c0.115,2.002,0.069,4.012,0.129,6.02
			c0.042,1.42,0.145,2.836,0.223,4.324c-0.894,0-1.949,0-3.002,0c-1.425,0-1.465,0.008-1.634-1.404
			c-0.105-0.887-0.074-1.783-0.09-2.678c-0.037-1.967-0.008-3.938-0.114-5.896c-0.104-1.822-1.077-2.654-2.892-2.668
			C746.903,52.794,746.433,52.796,745.869,52.796z M745.906,48.356c0.749,0,1.438,0.051,2.122-0.013
			c1.331-0.118,2.145-0.854,2.216-2.2c0.095-1.761,0.074-3.531,0.002-5.295c-0.033-0.837-0.408-1.681-1.311-1.858
			c-0.979-0.191-2.007-0.148-3.029-0.207C745.906,42.049,745.906,45.166,745.906,48.356z"/>
		<path fill="#FFFFFF" d="M795.04,82.17c0,2.75,0,5.49-0.02,8.22c0,0.511-0.04,1.04-0.15,1.53c-0.26,1.21-1.09,1.82-2.3,1.78
			c-1.16-0.05-1.94-0.72-2.14-1.92c-0.07-0.44-0.11-0.9-0.11-1.36c0-5.42,0-10.84,0.02-16.27c0-0.601,0.08-1.23,0.23-1.82
			c0.25-1,0.99-1.51,2.05-1.53c1.15-0.01,1.88,0.46,2.19,1.51c0.15,0.49,0.22,1.011,0.23,1.521c0.02,2.78,0.01,5.56,0.01,8.34
			C795.04,82.17,795.04,82.17,795.04,82.17z M799.09,70.63c-0.57-1.91-1.87-3.33-4.02-3.92c-1.06-0.3-2.23-0.37-3.33-0.28
			c-2.48,0.19-4.3,1.42-5.25,3.811c-0.5,1.24-0.68,2.529-0.68,3.84c-0.01,5.33-0.01,10.66,0,15.979c0,0.74,0.02,1.471,0.13,2.2
			c0.38,2.57,1.53,4.59,4.11,5.471c1.64,0.56,3.33,0.56,5,0.079c1.8-0.52,3.12-1.659,3.76-3.42c0.1-0.279,0.19-0.569,0.28-0.87
			V70.63z"/>
		<path fill="#FFFFFF" d="M754.524,12.515c-1.446,0-2.818,0-4.258,0c0-1.065,0.027-2.093-0.01-3.117
			c-0.023-0.628-0.071-1.276-0.25-1.872c-0.287-0.967-1.013-1.392-2.096-1.384c-1.015,0.008-1.736,0.475-2.028,1.412
			c-0.146,0.466-0.239,0.97-0.241,1.458c-0.021,5.645-0.02,11.29-0.023,16.936c0,0.238,0,0.478,0.02,0.716
			c0.123,1.731,1.282,2.621,2.958,2.256c0.873-0.19,1.33-0.813,1.522-1.642c0.091-0.401,0.13-0.824,0.134-1.239
			c0.018-1.468,0.008-2.938,0.008-4.456c1.412,0,2.796,0,4.202,0c0,1.779,0.038,3.563-0.021,5.34
			c-0.021,0.723-0.197,1.457-0.401,2.154c-0.813,2.756-2.936,4.383-5.785,4.365c-1.03-0.006-2.11-0.09-3.082-0.414
			c-2.468-0.824-3.522-2.836-3.91-5.274c-0.11-0.702-0.14-1.424-0.14-2.137c-0.006-5.507-0.025-11.013,0.034-16.518
			c0.012-1.111,0.228-2.257,0.562-3.32c0.765-2.45,2.559-3.763,5.057-4.012c0.985-0.099,2.022-0.034,2.997,0.164
			c2.151,0.438,3.516,1.843,4.231,3.905C754.756,8.014,754.466,10.262,754.524,12.515z"/>
		<path fill="#FFFFFF" d="M785.608,33.194c0-10.352,0-20.656,0-30.974c4.096,0,8.151,0,12.235,0c0,1.467,0,2.888,0,4.371
			c-2.564,0-5.117,0-7.719,0c0,2.89,0,5.721,0,8.635c1.998,0,4.017,0,6.074,0c0,1.537,0,2.991,0,4.487c-2.032,0-4.035,0-6.085,0
			c0,3.032,0,6.022,0,9.073c2.529,0,5.066,0,7.649,0c0,1.498,0,2.934,0,4.408C793.72,33.194,789.686,33.194,785.608,33.194z"/>
		<path fill="#FFFFFF" d="M764.802,65.423c-1.585,0-3.021,0-4.503,0c0-8.848,0-17.682,0-26.574c-1.559,0-3.089,0-4.662,0
			c0-1.5,0-2.938,0-4.425c4.592,0,9.178,0,13.81,0c0,1.461,0,2.899,0,4.39c-1.519,0-3.032,0-4.645,0
			C764.802,47.697,764.802,56.532,764.802,65.423z"/>
		<path fill="#FFFFFF" d="M785.306,97.741c-1.524,0-2.977,0-4.453,0c0-10.338,0-20.639,0-30.98c1.498,0,2.959,0,4.453,0
			C785.306,77.093,785.306,87.394,785.306,97.741z"/>
		<polygon fill="#C22227" points="730.12,0.019 680.476,50.016 730.121,100.017 740.05,90.017 700.331,50.012 740.049,10.018 		"/>
		<polygon fill="#C22227" points="809.023,-0.017 858.667,49.98 809.022,99.981 799.092,89.981 838.812,49.977 799.093,9.982 		"/>
	</g>
</g>
<g id="Layer_7">
	<g>
		<path fill="#FFFFFF" d="M986.22,66.67v3.76c-0.02,6.53-0.02,13.04-0.07,19.57c-0.01,1.09-0.08,2.19-0.33,3.25
			c-0.76,3.17-2.86,4.75-6.22,4.83c-2.31,0.04-4.16-0.75-5.33-2.23V66.65h3.02v0.77c-0.01,7.561-0.03,15.13-0.03,22.71
			c0,0.49,0.03,0.96,0.1,1.42c0.2,1.391,0.99,2.08,2.3,2.05c1.27-0.02,2.07-0.8,2.2-2.18c0.05-0.45,0.05-0.91,0.05-1.37
			c0.02-7.59,0.04-15.18,0.06-22.78c0-0.18,0.02-0.39,0.02-0.6H986.22z"/>
		<path fill="#FFFFFF" d="M980.853,20.365c0,4.249,0,8.401,0,12.601c-1.495,0-2.961,0-4.465,0c0-10.314,0-20.623,0-30.955
			c0.099-0.021,0.17-0.051,0.245-0.051c2.348,0.004,4.698-0.022,7.047,0.024c3.544,0.07,5.49,1.63,5.961,5.146
			c0.273,2.045,0.169,4.165,0.026,6.238c-0.13,1.897-0.992,3.492-2.839,4.466c2.606,1.352,2.94,3.748,3.013,6.224
			c0.067,2.204,0,4.413,0.041,6.618c0.014,0.678,0.157,1.598,0.25,2.271c0.064-0.008,0.087,0.066-3.784,0.08
			c-0.486,0-0.745-0.121-0.775-0.617c-0.074-1.166-0.179-2.331-0.211-3.499c-0.059-1.945-0.008-3.896-0.119-5.839
			c-0.106-1.876-1.062-2.698-2.912-2.71C981.846,20.363,981.364,20.365,980.853,20.365z M980.914,6.406c0,3.216,0,6.361,0,9.529
			c0.68,0,1.309,0.026,1.939-0.005c1.405-0.072,2.297-0.836,2.372-2.243c0.092-1.74,0.078-3.493,0.003-5.235
			c-0.051-1.211-0.807-1.977-1.852-2.036C982.57,6.369,981.763,6.406,980.914,6.406z"/>
		<path fill="#FFFFFF" d="M991.738,2.003c4.119,0,8.176,0,12.264,0c0,1.467,0,2.89,0,4.373c-2.568,0-5.122,0-7.72,0
			c0,2.893,0,5.723,0,8.638c2.007,0,4.03,0,6.083,0c0,1.523,0,2.966,0,4.471c-2.019,0-4.035,0-6.099,0c0,3.053,0,6.044,0,9.098
			c2.552,0,5.087,0,7.664,0c0,1.498,0,2.936,0,4.433c-0.228,0-0.42,0-0.611,0c-1.846,0-10.694,0-11.529,0
			C991.783,31.109,991.738,8.592,991.738,2.003z"/>
		<path fill="#FFFFFF" d="M986.867,66.622c0.31,0,0.578,0,0.848,0c2.171,0.004,4.343,0.002,6.511,0.016
			c1.801,0.016,3.438,0.48,4.692,1.869c1.086,1.193,1.573,2.668,1.642,4.238c0.104,2.262,0.112,4.523,0.106,6.791
			c-0.011,3.934,0.001,7.869-0.112,11.799c-0.061,1.975-0.702,3.785-2.325,5.08c-0.993,0.793-2.166,1.191-3.394,1.223
			c-2.642,0.066-5.282,0.021-7.965,0.021C986.867,87.317,986.867,77.001,986.867,66.622z M991.362,93.237
			c0.963,0,1.888,0.049,2.809-0.012c0.96-0.063,1.553-0.6,1.779-1.555c0.124-0.533,0.176-1.1,0.18-1.646
			c0.025-5.246,0.035-10.488,0.039-15.729c0.002-0.455-0.035-0.916-0.103-1.361c-0.16-1.021-0.754-1.74-1.676-1.82
			c-0.991-0.088-1.995-0.021-3.025-0.021C991.362,78.474,991.362,85.819,991.362,93.237z"/>
		<path fill="#FFFFFF" d="M975.04,40.68c-0.01-0.75-0.13-1.51-0.31-2.23c-0.11-0.44-0.27-0.85-0.46-1.23V48
			c0.36-0.66,0.56-1.4,0.63-2.2C975.06,44.1,975.05,42.39,975.04,40.68z M975.11,61.02c-0.06-2.01-0.02-4.02-0.13-6.02
			c-0.06-0.98-0.26-1.91-0.71-2.74v13.09h1.06C975.25,63.86,975.15,62.44,975.11,61.02z"/>
		<path fill="#FFFFFF" d="M974.68,21.48c0,1.78,0.04,3.57-0.02,5.34c-0.02,0.72-0.19,1.43-0.39,2.12v-7.46H974.68z"/>
		<path fill="#FFFFFF" d="M974.75,12.42h-0.48V5.9C974.97,8.02,974.69,10.22,974.75,12.42z"/>
		<path fill="#FFFFFF" d="M985.024,65.323c-1.585,0-3.021,0-4.503,0c0-8.848,0-17.682,0-26.574c-1.559,0-3.089,0-4.662,0
			c0-1.5,0-2.938,0-4.425c4.592,0,9.178,0,13.81,0c0,1.461,0,2.899,0,4.39c-1.519,0-3.032,0-4.645,0
			C985.024,47.598,985.024,56.433,985.024,65.323z"/>
		<path fill="#FFFFFF" d="M1004.31,97.64c-1.09,0-2.16,0-3.23,0c0-10.34,0-20.64,0-30.979c1.08,0,2.15,0,3.23,0V97.64z"/>
		<polygon fill="#C22227" points="964.342,-0.081 914.698,49.916 964.343,99.917 974.272,89.917 934.553,49.912 974.271,9.918 		"/>
		<polygon fill="#C22227" points="1014.245,-0.116 1063.889,49.881 1014.244,99.882 1004.314,89.882 1044.034,49.877 
			1004.315,9.883 		"/>
	</g>
</g>
<g id="Layer_8">
	<polygon fill="#C22227" points="1199.842,-0.157 1150.197,49.84 1199.843,99.841 1209.772,89.841 1170.053,49.836 1209.771,9.842 	
		"/>
	<polygon fill="#C22227" points="1219.745,-0.192 1269.389,49.805 1219.744,99.806 1209.814,89.806 1249.534,49.801 1209.815,9.807 
			"/>
</g>
<g id="Layer_9">
	<polygon fill="#C22227" points="1434.342,-0.158 1384.697,49.839 1434.343,99.84 1444.272,89.84 1404.553,49.835 1444.271,9.841 	
		"/>
	<polygon fill="#C22227" points="1424.245,-0.193 1473.889,49.804 1424.244,99.805 1414.314,89.805 1454.034,49.8 1414.315,9.806 	
		"/>
</g>
<g id="Layer_10">
	<polygon fill="#C22227" points="1669.342,-0.175 1619.697,49.822 1669.343,99.822 1679.272,89.822 1639.553,49.818 1679.271,9.824 
			"/>
	<polygon fill="#C22227" points="1629.245,-0.21 1678.889,49.787 1629.244,99.787 1619.314,89.787 1659.034,49.783 1619.315,9.789 	
		"/>
</g>
<g id="Layer_11">
	<polygon fill="#C22227" points="1904.675,-0.192 1855.03,49.805 1904.676,99.805 1914.605,89.805 1874.886,49.801 1914.604,9.807 	
		"/>
	<polygon fill="#C22227" points="1834.578,-0.228 1884.222,49.77 1834.577,99.77 1824.647,89.77 1864.367,49.766 1824.648,9.771 	
		"/>
</g>
<g id="Layer_12">
	<polygon fill="#C22227" points="2130.675,0.003 2081.03,50 2130.676,100 2140.605,90 2100.886,49.996 2140.604,10.002 	"/>
	<polygon fill="#C22227" points="2050.578,-0.032 2100.222,49.965 2050.577,99.965 2040.647,89.965 2080.367,49.961 2040.648,9.967 
			"/>
</g>
</svg>
