<svg width="512" height="512" xmlns="http://www.w3.org/2000/svg">
 <title/>

 <g>
  <title>background</title>
  <rect fill="none" id="canvas_background" height="402" width="582" y="-1" x="-1"/>
 </g>
 <g>
  <title>Layer 1</title>
  <path fill="#c22227" id="svg_1" d="m419.54,242.6a51.9,51.9 0 0 1 11.15,32.32l0,52.17a5.59,5.59 0 1 0 11.17,0l0,-52.17a62.94,62.94 0 0 0 -13.53,-39.21a5.58,5.58 0 1 0 -8.79,6.89z"/>
  <path fill="#c22227" id="svg_2" d="m77.27,330.35a5.58,5.58 0 0 0 5.59,-5.58l0,-49.85a52.3,52.3 0 0 1 13.22,-34.8a5.59,5.59 0 1 0 -8.35,-7.42a63.45,63.45 0 0 0 -16,42.22l0,49.85a5.58,5.58 0 0 0 5.54,5.58z"/>
  <path fill="#c22227" id="svg_3" d="m102.87,218.43a35.43,35.43 0 0 0 11.57,11.44a5.58,5.58 0 1 0 5.81,-9.54a24.29,24.29 0 0 1 -7.9,-7.82a66.47,66.47 0 0 1 -8.91,-22.14a21.48,21.48 0 0 1 4.85,-18.37a127.78,127.78 0 0 1 10.07,-10.31c0,1.46 -0.08,2.92 -0.08,4.38a137.11,137.11 0 0 0 23,76.2a5.59,5.59 0 0 0 9.31,-6.19a126.55,126.55 0 1 1 210.44,0.63a5.59,5.59 0 0 0 9.27,6.25a137.09,137.09 0 0 0 23.44,-76.89c0,-1.46 0,-2.92 -0.08,-4.38a127.78,127.78 0 0 1 10.05,10.31a21.48,21.48 0 0 1 4.85,18.39a66.47,66.47 0 0 1 -8.91,22.14a23.81,23.81 0 0 1 -4.92,5.67a5.59,5.59 0 0 0 7.2,8.55a35.48,35.48 0 0 0 7.2,-8.3a77.74,77.74 0 0 0 10.39,-25.85a32.61,32.61 0 0 0 -7.34,-27.89a166.5,166.5 0 0 0 -20,-19.06c-9.87,-66.31 -67.18,-117.32 -136.18,-117.32s-126.31,51 -136.2,117.3a165.71,165.71 0 0 0 -20,19.06a32.61,32.61 0 0 0 -7.34,27.89a77.74,77.74 0 0 0 10.41,25.85z"/>
  <path fill="#c22227" id="svg_4" d="0"/>
  <path fill="#c22227" id="svg_5" d="m154.88,273.21a5.59,5.59 0 0 0 5.59,-5.59a10.06,10.06 0 0 1 10.05,-10.05l171,0a10.06,10.06 0 0 1 10,10.05a5.59,5.59 0 1 0 11.17,0a21.24,21.24 0 0 0 -21.22,-21.22l-171,0a21.24,21.24 0 0 0 -21.22,21.22a5.58,5.58 0 0 0 5.63,5.59z"/>
  <path fill="#c22227" id="svg_6" d="m196.77,139.75a5.59,5.59 0 0 0 7.67,-1.87c0.57,-0.93 1.17,-1.88 1.79,-2.84a5.58,5.58 0 1 0 -9.36,-6.09c-0.69,1.05 -1.34,2.1 -2,3.12a5.59,5.59 0 0 0 1.9,7.68z"/>
  <path fill="#c22227" id="svg_7" d="m194.33,193.87a5.59,5.59 0 1 0 6.83,-8.84c-0.43,-0.35 -10.47,-8.7 -5.3,-28a5.59,5.59 0 1 0 -10.79,-2.89c-7.18,26.86 8.58,39.22 9.26,39.73z"/>
  <path fill="#c22227" id="svg_8" d="m70.72,483.67a5.58,5.58 0 0 0 5.58,-5.59l0,-48a171.21,171.21 0 0 1 15.52,-71.86c20,-43 49.18,-58.41 64.79,-63.78a58.77,58.77 0 0 1 9.93,-2.59l36.35,0l11.05,18a27.39,27.39 0 0 0 23.2,13a5.59,5.59 0 1 0 0,-11.17a16.17,16.17 0 0 1 -13.69,-7.68l-7.45,-12.11l80,0l-7.45,12.11a16.17,16.17 0 0 1 -13.69,7.65a5.59,5.59 0 1 0 0,11.17a27.39,27.39 0 0 0 23.2,-13l11.05,-18l36.36,0c4.33,0.61 47.6,8.14 74.71,66.37a171.21,171.21 0 0 1 15.52,71.86l0,48a5.59,5.59 0 1 0 11.17,0l0,-48a182.52,182.52 0 0 0 -16.56,-76.58c-30.73,-66 -81.69,-72.54 -83.84,-72.79a4.49,4.49 0 0 0 -0.64,0l-179.66,0a4.49,4.49 0 0 0 -0.64,0a64.77,64.77 0 0 0 -12.53,3.24c-17.28,5.94 -49.52,22.88 -71.29,69.62a182.52,182.52 0 0 0 -16.56,76.58l0,48a5.59,5.59 0 0 0 5.57,5.55z"/>
  <path fill="#c22227" id="svg_9" d="m365.64,481.36a5.58,5.58 0 0 0 5.58,-5.58l0,-55.78a52.56,52.56 0 0 0 -52.49,-52.5l-123.91,0a52.56,52.56 0 0 0 -52.5,52.5l0,55.8a5.59,5.59 0 0 0 11.18,0l0,-55.8a41.37,41.37 0 0 1 41.32,-41.33l123.91,0a41.37,41.37 0 0 1 41.32,41.33l0,55.8a5.58,5.58 0 0 0 5.59,5.56z"/>
  <path fill="#c22227" id="svg_10" d="m210.11,452a22.09,22.09 0 0 1 -22.06,-22a5.59,5.59 0 0 0 -11.17,0a33.17,33.17 0 1 0 24.66,-32.12a5.59,5.59 0 0 0 2.88,10.8a22.07,22.07 0 1 1 5.69,43.32z"/>
  <path fill="#c22227" id="svg_11" d="m266.65,427.12l0,5.7a5.59,5.59 0 1 0 11.18,0l0,-5.7a5.59,5.59 0 0 0 -11.18,0z"/>
  <path fill="#c22227" id="svg_12" d="m295.66,427.12l0,5.7a5.59,5.59 0 1 0 11.17,0l0,-5.7a5.59,5.59 0 0 0 -11.17,0z"/>
  <path fill="#c22227" id="svg_13" d="m324.66,427.12l0,5.7a5.59,5.59 0 1 0 11.17,0l0,-5.7a5.59,5.59 0 0 0 -11.17,0z"/>
 </g>
</svg>