<?xml version="1.0" encoding="utf-8"?>
<!-- Generator: Adobe Illustrator 21.0.0, SVG Export Plug-In . SVG Version: 6.00 Build 0)  -->
<svg version="1.1" id="Layer_1" xmlns="http://www.w3.org/2000/svg" xmlns:xlink="http://www.w3.org/1999/xlink" x="0px" y="0px"
	 viewBox="0 0 1322.9 448.6" style="enable-background:new 0 0 1322.9 448.6;" xml:space="preserve">
<style type="text/css">
	.st0{display:none;fill:#008CC4;}
	.st1{fill:#008CC4;}
	.st2{fill:none;stroke:#008CC4;stroke-width:20;stroke-linecap:round;stroke-linejoin:round;stroke-miterlimit:10;}
	.st3{fill:none;stroke:#008CC4;stroke-width:20;stroke-miterlimit:10;}
	.st4{display:none;fill:none;stroke:#008CC4;stroke-width:20;stroke-linecap:round;stroke-linejoin:round;stroke-miterlimit:10;}
	.st5{display:none;}
	.st6{display:inline;opacity:0.5;enable-background:new    ;}
</style>
<g id="Layer_2">
	<circle class="st0" cx="-323.5" cy="373.6" r="25"/>
	<circle class="st0" cx="-248.5" cy="398.6" r="50"/>
	<circle class="st0" cx="-273.5" cy="523.6" r="75"/>
	<circle class="st0" cx="-473.5" cy="473.6" r="125"/>
	<circle class="st0" cx="-398.5" cy="148.6" r="200"/>
	<g>
		<path class="st1" d="M653.5,172c0.1,2.1,0,4.2-0.1,6.3c-0.1,2.1-0.4,4.2-0.7,6.3c-0.3,2.1-0.8,4.1-1.3,6.2c-0.2,1-0.6,2-0.9,3
			c-0.3,1-0.7,2-1,3l-1.2,2.9l-1.3,2.9l-1.5,2.8l-1.6,2.7c-0.6,0.9-1.2,1.7-1.8,2.6c-0.6,0.9-1.3,1.7-2,2.5
			c-0.6,0.8-1.4,1.6-2.1,2.4c-0.4,0.4-0.7,0.8-1.1,1.2l-1.2,1.1c-0.8,0.7-1.5,1.5-2.4,2.1c-0.8,0.6-1.6,1.4-2.5,2l-2.6,1.8
			c-0.9,0.6-1.8,1.1-2.7,1.6c-0.5,0.3-0.9,0.5-1.4,0.8l-1.4,0.7c-1,0.4-1.9,0.9-2.9,1.3c-2,0.8-3.9,1.6-6,2.1c-1,0.3-2,0.7-3,0.9
			l-3.1,0.7c-0.5,0.1-1,0.2-1.5,0.3l-1.6,0.2l-3.1,0.5c-2.1,0.3-4.2,0.4-6.3,0.6l-6.3,0.2l1-1.8c2.3,3.8,4.6,7.7,6.8,11.6
			c1.1,2,2.2,4,3.2,6c1,2,2,4.1,2.9,6.1c0.9,2.1,1.8,4.2,2.5,6.3c0.4,1.1,0.7,2.2,1.1,3.2c0.3,1.1,0.6,2.2,0.9,3.3
			c0.6,2.2,1,4.5,1.3,6.7c0.1,1.1,0.3,2.3,0.4,3.4c0.1,1.1,0.2,2.3,0.2,3.4c0,2.3,0,4.6-0.3,6.9c-0.2,2.3-0.6,4.5-1.1,6.8
			c-0.5,2.2-1.1,4.4-1.8,6.6c-0.4,1.1-0.7,2.2-1.1,3.2l-1.2,3.2l-1.4,3.1c-0.5,1-1,2-1.5,3.1c-0.5,1-1,2-1.6,3c-0.6,1-1.1,2-1.7,3
			l-1.8,2.9l-1.9,2.8c-1.2,1.9-2.6,3.7-3.9,5.5l-1.1-2.1l6,0c2,0,4,0.2,6,0.4c1,0,2,0.2,3,0.3l3,0.4c0.5,0.1,1,0.1,1.5,0.2l1.5,0.3
			l3,0.6c0.5,0.1,1,0.2,1.5,0.3l1.5,0.4l2.9,0.9c1,0.3,1.9,0.6,2.9,1l2.8,1.1c0.5,0.2,0.9,0.4,1.4,0.6l1.4,0.7l2.7,1.3
			c1.7,1,3.5,2.1,5.2,3.2l2.4,1.8l1.2,0.9l0.6,0.5l0.6,0.5l2.3,2c0.8,0.7,1.5,1.3,2.2,2.1l2.1,2.2l1,1.1l0.9,1.2l1.9,2.4
			c0.3,0.4,0.6,0.8,0.9,1.2l0.8,1.3l1.7,2.5c0.3,0.4,0.6,0.8,0.8,1.3l0.7,1.3l1.5,2.6l0.7,1.3c0.2,0.4,0.4,0.9,0.7,1.3
			c0.9,1.8,1.8,3.6,2.6,5.4l2.3,5.6h-2.8l2.3-5.5c0.8-1.8,1.7-3.6,2.6-5.4c0.2-0.4,0.4-0.9,0.7-1.3l0.7-1.3l1.5-2.6l0.7-1.3
			c0.3-0.4,0.6-0.8,0.8-1.3l1.7-2.5l0.8-1.3c0.3-0.4,0.6-0.8,0.9-1.2l1.9-2.4l0.9-1.2l1-1.1l2.1-2.2c0.7-0.8,1.4-1.4,2.2-2.1l2.3-2
			l0.6-0.5l0.6-0.5l1.2-0.9l2.4-1.8c1.7-1.1,3.4-2.1,5.2-3.2l2.7-1.3l1.4-0.7c0.4-0.2,0.9-0.4,1.4-0.6l2.8-1.1
			c0.9-0.4,1.9-0.8,2.9-1l2.9-0.9l1.5-0.4c0.5-0.1,1-0.2,1.5-0.3l3-0.6l1.5-0.3c0.5-0.1,1-0.1,1.5-0.2l3-0.4c1-0.1,2-0.3,3-0.3
			c2-0.1,4-0.3,6-0.4l6,0l-1.1,2.1c-1.3-1.9-2.7-3.6-3.9-5.5l-1.9-2.8l-1.8-2.9c-0.6-1-1.1-2-1.7-3c-0.6-1-1.1-2-1.6-3
			c-0.5-1-1-2-1.5-3.1l-1.4-3.1l-1.2-3.2c-0.4-1.1-0.7-2.2-1.1-3.2c-0.7-2.2-1.3-4.4-1.8-6.6c-0.5-2.2-0.8-4.5-1.1-6.8
			c-0.2-2.3-0.3-4.6-0.3-6.9c0-1.1,0.1-2.3,0.2-3.4c0.1-1.1,0.2-2.3,0.4-3.4c0.3-2.3,0.7-4.5,1.3-6.7c0.3-1.1,0.6-2.2,0.9-3.3
			c0.3-1.1,0.7-2.2,1.1-3.2c0.7-2.2,1.6-4.3,2.5-6.3c0.9-2.1,1.9-4.1,2.9-6.1c1-2,2.1-4,3.2-6c2.2-3.9,4.5-7.8,6.8-11.6l1,1.8
			l-6.3-0.2c-2.1-0.2-4.2-0.3-6.3-0.6l-3.1-0.5l-1.6-0.2c-0.5-0.1-1-0.2-1.5-0.3l-3.1-0.7c-1-0.2-2-0.6-3-0.9c-2-0.5-4-1.4-6-2.1
			c-1-0.4-1.9-0.9-2.9-1.3l-1.4-0.7c-0.5-0.2-0.9-0.5-1.4-0.8c-0.9-0.5-1.9-1-2.7-1.6l-2.6-1.8c-0.9-0.6-1.7-1.3-2.5-2
			c-0.8-0.6-1.6-1.4-2.4-2.1l-1.2-1.1c-0.4-0.4-0.7-0.8-1.1-1.2c-0.7-0.8-1.5-1.5-2.1-2.4c-0.6-0.8-1.4-1.6-2-2.5
			c-0.6-0.9-1.2-1.7-1.8-2.6l-1.6-2.7l-1.5-2.8l-1.3-2.9l-1.2-2.9c-0.3-1-0.7-2-1-3c-0.3-1-0.6-2-0.9-3c-0.5-2-1-4.1-1.3-6.2
			c-0.3-2.1-0.6-4.2-0.7-6.3c-0.1-2.1-0.2-4.2-0.1-6.3c0-0.4,0.4-0.7,0.8-0.7c0.4,0,0.7,0.3,0.7,0.7l0,0.1c0.1,2,0.5,4.1,0.8,6.1
			c0.4,2,0.8,4,1.3,6c0.5,2,1.2,3.9,1.9,5.8c0.3,0.9,0.7,1.9,1.1,2.8c0.4,0.9,0.8,1.8,1.2,2.7l1.3,2.6l1.5,2.5l1.6,2.4l1.7,2.3
			c0.6,0.8,1.2,1.5,1.8,2.2c0.6,0.7,1.3,1.4,2,2.1c0.6,0.7,1.4,1.3,2,1.9c0.3,0.3,0.7,0.6,1,0.9l1.1,0.9c0.7,0.6,1.4,1.2,2.2,1.7
			c0.8,0.5,1.5,1.1,2.3,1.5l2.4,1.4c0.8,0.4,1.7,0.8,2.5,1.2c0.4,0.2,0.8,0.4,1.3,0.6l1.3,0.5c0.9,0.3,1.7,0.7,2.6,0.9
			c1.8,0.5,3.5,1.1,5.4,1.4c0.9,0.2,1.8,0.4,2.7,0.6l2.8,0.4c0.5,0.1,0.9,0.2,1.4,0.2l1.4,0.1l2.8,0.3c1.9,0.1,3.8,0.1,5.7,0.2
			l5.8-0.2c4.5-0.1,8.3,3.4,8.4,7.9c0,1.4-0.3,2.8-0.9,4l-0.3,0.7c-2.1,4-4.1,7.9-6,11.7c-0.9,1.9-1.8,3.9-2.7,5.8
			c-0.8,1.9-1.6,3.8-2.4,5.7c-0.7,1.9-1.4,3.8-1.9,5.7c-0.3,0.9-0.5,1.9-0.8,2.8c-0.2,0.9-0.4,1.9-0.6,2.8c-0.4,1.9-0.6,3.7-0.8,5.5
			l-0.2,2.7c0,0.9,0,1.8,0,2.7c0.1,1.8,0.2,3.6,0.5,5.4c0.1,0.9,0.2,1.8,0.5,2.7c0.2,0.9,0.4,1.8,0.6,2.7c0.4,1.8,1,3.6,1.7,5.3
			c0.3,0.9,0.6,1.8,1,2.6l1.1,2.6l1.3,2.6c0.4,0.9,0.9,1.7,1.4,2.6c0.4,0.9,1,1.7,1.5,2.6c0.5,0.8,1,1.7,1.6,2.5l1.6,2.5l1.8,2.5
			c1.1,1.7,2.4,3.3,3.7,4.9c4.1,5.6,2.9,13.4-2.7,17.4c-2.1,1.6-4.6,2.3-7,2.4l-0.6,0l-5.3,0.2c-1.7,0.1-3.4,0.3-5.2,0.4
			c-0.9,0-1.7,0.2-2.5,0.3l-2.5,0.4c-0.4,0.1-0.8,0.1-1.2,0.2l-1.2,0.3l-2.4,0.6c-0.4,0.1-0.8,0.2-1.2,0.3l-1.1,0.4l-2.3,0.7
			c-0.8,0.2-1.5,0.5-2.2,0.8l-2.2,0.9c-0.4,0.1-0.7,0.3-1.1,0.5l-1,0.5l-2.1,1.1c-1.3,0.8-2.6,1.6-3.9,2.5l-1.8,1.4l-0.9,0.7
			l-0.5,0.3l-0.4,0.4l-1.7,1.6c-0.6,0.5-1.2,1-1.7,1.6c-0.5,0.6-1.1,1.2-1.6,1.7l-0.8,0.9l-0.7,1l-1.5,1.9c-0.2,0.3-0.5,0.6-0.7,1
			l-0.7,1l-1.4,2.1c-0.2,0.3-0.5,0.7-0.7,1l-0.6,1.1l-1.2,2.2l-0.6,1.1c-0.2,0.4-0.4,0.8-0.6,1.2c-0.7,1.6-1.5,3.1-2.2,4.7l-2,4.9
			c-2.8,7-10.8,10.3-17.8,7.5c-3.5-1.4-6.1-4.2-7.5-7.4l0-0.1l-2-4.9c-0.7-1.6-1.5-3.1-2.2-4.7c-0.2-0.4-0.4-0.8-0.6-1.2l-0.6-1.1
			l-1.2-2.2l-0.6-1.1c-0.2-0.4-0.5-0.7-0.7-1l-1.4-2.1l-0.7-1c-0.2-0.3-0.5-0.6-0.7-1l-1.5-1.9l-0.7-1l-0.8-0.9l-1.6-1.7
			c-0.5-0.6-1.1-1.1-1.7-1.6l-1.7-1.6l-0.4-0.4l-0.5-0.3l-0.9-0.7l-1.8-1.4c-1.3-0.8-2.6-1.7-3.9-2.5l-2.1-1.1l-1-0.5
			c-0.3-0.2-0.7-0.4-1.1-0.5l-2.2-0.9c-0.7-0.3-1.4-0.6-2.2-0.8l-2.3-0.7l-1.2-0.4c-0.4-0.1-0.8-0.2-1.2-0.3l-2.4-0.6l-1.2-0.3
			c-0.4-0.1-0.8-0.1-1.2-0.2l-2.5-0.4c-0.8-0.1-1.7-0.3-2.5-0.3c-1.7-0.1-3.4-0.4-5.2-0.4l-5.3-0.2l-0.5,0
			c-6.9-0.2-12.3-6-12.1-12.9c0.1-2.6,1-5,2.4-7c1.2-1.6,2.5-3.3,3.6-4.9l1.8-2.5l1.7-2.5c0.6-0.8,1-1.7,1.6-2.5
			c0.5-0.9,1-1.7,1.5-2.6c0.5-0.9,1-1.7,1.4-2.6l1.3-2.6l1.1-2.6c0.4-0.9,0.7-1.8,1-2.6c0.6-1.8,1.2-3.5,1.7-5.3
			c0.3-0.9,0.4-1.8,0.6-2.7c0.2-0.9,0.3-1.8,0.5-2.7c0.3-1.8,0.4-3.6,0.5-5.4c0-0.9,0-1.8,0-2.7l-0.2-2.7c-0.2-1.8-0.4-3.7-0.8-5.5
			c-0.2-0.9-0.4-1.9-0.6-2.8c-0.2-0.9-0.5-1.9-0.8-2.8c-0.5-1.9-1.2-3.8-1.9-5.7c-0.7-1.9-1.5-3.8-2.4-5.7c-0.8-1.9-1.7-3.8-2.7-5.8
			c-1.9-3.9-3.9-7.8-6-11.7l-0.3-0.6c-2.1-4-0.6-9,3.4-11.1c1.3-0.7,2.7-1,4.1-0.9l5.8,0.2c1.9-0.1,3.8-0.1,5.7-0.2l2.8-0.3l1.4-0.1
			c0.5-0.1,0.9-0.1,1.4-0.2l2.8-0.4c0.9-0.1,1.8-0.4,2.7-0.6c1.9-0.3,3.6-0.9,5.4-1.4c0.9-0.3,1.7-0.6,2.6-0.9l1.3-0.5
			c0.4-0.2,0.8-0.4,1.3-0.6c0.8-0.4,1.7-0.8,2.5-1.2l2.4-1.4c0.8-0.5,1.5-1,2.3-1.5c0.8-0.5,1.5-1.1,2.2-1.7l1.1-0.9
			c0.4-0.3,0.7-0.6,1-0.9c0.7-0.6,1.4-1.2,2-1.9c0.6-0.7,1.4-1.3,2-2.1c0.6-0.7,1.3-1.4,1.8-2.2l1.7-2.3l1.6-2.4l1.5-2.5l1.3-2.6
			c0.4-0.9,0.8-1.8,1.2-2.7c0.4-0.9,0.7-1.8,1.1-2.8c0.7-1.9,1.3-3.8,1.9-5.7c0.5-2,1-3.9,1.4-6c0.3-2,0.7-4.1,0.8-6.1l0-0.1
			c0-0.4,0.4-0.7,0.8-0.7C653.2,171.3,653.5,171.6,653.5,172z"/>
	</g>
	<g>
		<path class="st1" d="M661.6,261.9c12.9,0,23.3,10.4,23.3,23.3c0,12.9-10.4,23.3-23.3,23.3c-12.9,0-23.3-10.4-23.3-23.3
			C638.3,272.3,648.7,261.9,661.6,261.9 M661.6,251.9c-18.4,0-33.3,15-33.3,33.3c0,18.4,15,33.3,33.3,33.3c18.4,0,33.3-15,33.3-33.3
			C694.9,266.9,680,251.9,661.6,251.9L661.6,251.9z"/>
	</g>
	<path class="st1" d="M685.3,154.4c0,18.5-47.4,18.5-47.4,0c0-71.8,12.6-98,23.7-98C672.7,56.4,685.3,82.6,685.3,154.4z"/>
	<path class="st1" d="M641.2,152.8l-24.3,11.4c-6.8-17.1,18-25.5,21.4-37.6L641.2,152.8z"/>
	<path class="st1" d="M682.2,152.8l24.3,11.4c6.8-17.1-18-25.5-21.4-37.6L682.2,152.8z"/>
	<path class="st2" d="M151.4,355v-92c0-28.4-23-51.4-51.4-51.4c-9.6,0-18.6,2.6-26.3,7.2c-15.1,9-25.2,25.4-25.2,44.2v94.7"/>
	<path class="st2" d="M316.6,211.5v98.1c0,28.4,23,51.4,51.4,51.4c28.4,0,51.4-23,51.4-51.4v-98.1"/>
	<path class="st2" d="M234,212c-28.4,0-51.4,23-51.4,51.4C182.6,235,205.6,212,234,212c28.4,0,51.4,23,51.4,51.4v21.7H182.6v-21.7
		l0,21.6v24.5c0,28.4,21.1,51.4,49.5,51.4c21.3,0,41.5-12.9,49.3-31.4"/>
	<path class="st2" d="M549.5,243.9c-7.8-18.5-28-32.4-49.3-32.4c-28.4,0-49.5,23-49.5,51.4v24.5l-0.1,70.2"/>
	<path class="st2" d="M875.2,355v-92c0-28.4-23-51.4-51.4-51.4c-9.6,0-18.6,2.6-26.3,7.2c-15.1,9-25.2,25.4-25.2,44.2v94.7"/>
	<path class="st2" d="M1041.3,211.5v98.1c0,28.4,23,51.4,51.4,51.4c28.4,0,51.4-23,51.4-51.4v-98.1"/>
	<path class="st2" d="M1273.4,329.6c-7.8,18.5-28,31.4-49.3,31.4c-28.4,0-49.5-23-49.5-51.4v-24.5l-0.1-73.6"/>
	<line class="st2" x1="1175.5" y1="263.6" x2="1274.4" y2="263.6"/>
	<g>
		<path class="st3" d="M1009.3,263.5v21.6H906.4l0-21.6c0-28.4,23-51.4,51.4-51.4C986.3,212,1009.3,235,1009.3,263.5z"/>
		<polygon class="st4" points="906.4,263.5 906.4,285.1 906.4,285.1 		"/>
		<line class="st2" x1="906.4" y1="357.7" x2="906.4" y2="285.1"/>
		<path class="st2" d="M1009.3,285.1v72.6V285.1z"/>
	</g>
</g>
<g id="Contours" class="st5">
	<path class="st6" d="M1290.8,1.1c-1.8-1.4-2.2-4.2-0.9-6.1c0.4,2,0.8,3.9,1.2,5.9L1290.8,1.1z"/>
	<path class="st6" d="M593.3,338c14.5-22.9,11.5-52.7,4-78.7c-2.1-7.4-3-18.1,4.4-20.3c30-8.8,52.7-38.2,53.7-69.5
		c7-1.4,10.9,7.9,10.8,15c-0.6,29-23.1,53.9-49.5,65.9c-5.6,2.5-4.4,10.7-2.9,16.6c5,18.9,4.7,39.2-0.9,58
		c-1.4,4.8-2.2,11.8,2.7,13.2c22.5,6.5,42.3,21.9,54.1,42.1c13.7-17.6,31-32.4,50.5-43.2c5.4-3,12-8.9,8.7-14.1
		c-12.7-19.5-12.4-46.6,0.6-65.9c2.2-3.3,4.1-9,0.3-10.3c-16.5-5.5-32.9-13.3-44-26.7c-11.1-13.4-15.4-33.5-6.7-48.5
		c5.8,1.5,7,9,8.1,14.8c4.2,22.3,24.2,40.7,46.8,42.9c10.4,1,14.8,14.5,12.3,24.7s-9.2,18.9-11.5,29.1c-3.8,17.2,5.6,34.4,15.9,48.8
		c2.7,3.9,4.2,11.2-0.6,11.6c-28.1,2.2-48.7,26.1-68.6,46.1c-3.7,3.7-7.8,7.5-12.9,8.9c-5.1,1.4-11.5-0.6-13.4-5.5
		c-7.4-19.5-25-34.8-45.3-39.3c-4.4-1-9-1.6-12.7-4.1C593.2,347,590.9,341.7,593.3,338 M666.1,388c1.5-1.6,1.1-4.6-0.8-5.6
		c-1.1,1.8-0.9,4.2,0.5,5.8 M675.5,384.5c-0.8-0.2-1.8-0.1-2.5,0.4c-0.2,0.9,0,1.8,0.5,2.6C675,387.5,676.6,385.6,675.5,384.5
		 M652.1,374c-0.3,1.4,1.4,2.8,2.7,2.2c0-1.4-1.4-2.6-2.8-2.4L652.1,374z"/>
	<path class="st6" d="M312.3,358.5c-10,21.4-30.8,37.6-54.2,41s-48.4-6.6-62.1-25.9c-8.1-11.4-12.1-25.1-15.3-38.7
		c-4.1-17.6-7.2-36.3-1.7-53.5c3.6-11.3,10.6-21.2,18.8-29.7c13.2-13.7,30.3-24.1,49.1-27c18.8-2.8,39.3,2.8,52.2,16.8
		c4.2,4.6,7.5,9.9,10.4,15.4c6.8,12.9,11.6,27.4,10.3,42c-0.4,4.6-1.5,9.3-4.6,12.7c-4.6,5.2-12.4,6-19.4,6.5c-29,1.9-58,3.8-87,5.7
		c-3.2,0.2-6.8,0.7-8.5,3.4c-1,1.6-1,3.7-0.9,5.6c1.9,24,22.6,45.2,46.6,47.5c24,2.4,48.4-14.4,55-37.6c1.5-5.2,10.1-4.5,12.6,0.3
		C316.3,347.7,314.6,353.6,312.3,358.5 M197.2,302.8c4,4.8,11,5.6,17.2,5.7c27.7,0.7,55.2-3.4,82.6-7.5c3-0.4,6.4-1.2,7.7-4
		c0.7-1.5,0.5-3.2,0.3-4.8c-1.4-12.5-3-25.5-10-35.9c-11.2-16.5-34.4-22.1-53.4-16.2c-19,6-33.9,21.6-43.1,39.3
		C194.7,286.8,191.9,296.4,197.2,302.8z"/>
	<path class="st6" d="M941.9,279.2c10.8-5.7,22.8-10.6,34.9-8.8c11,1.6,20.4,8.6,29.3,15.3c-0.1-11.6-0.2-23.4-4.1-34.4
		s-12-21.1-23.2-24c-6-1.6-12.2-1.1-18.4-0.5c-12.5,1.1-26.9,3.4-33,14.3c-1.6,2.9-2.5,6.3-4.6,8.9c-2,2.6-6,4.4-8.7,2.5
		c-2.4-1.6-2.8-4.9-2.5-7.8c1.2-11.7,10.1-21.6,20.7-26.9c10.5-5.3,22.6-6.8,34.3-7.7c7.8-0.6,15.8-0.9,23.3,1.5
		c12.5,4.1,21.5,15.4,26,27.7c4.5,12.3,5.3,25.6,6,38.7c1.8,33.5,3.5,67.1,5.3,100.6c0.3,4.9-1.1,11.6-6,11.6c-3.6,0-5.8-4-6.3-7.5
		c-0.6-3.5-0.4-7.4-2.6-10.3c-15.8,10.3-35,16.4-53.6,13.8c-18.7-2.6-36.4-15-42.7-32.8c-3.2-9.1-3.3-19-3.1-28.6
		c0.2-8.4,0.7-17.2,4.5-24.7C922.5,290.4,932.3,284.2,941.9,279.2 M993,299.8c-5.2-7.2-14.2-11.2-23.1-11.5
		c-8.9-0.4-17.7,2.6-25.4,7.1c-4.7,2.8-9.1,6.2-12.1,10.7c-5.7,8.5-5.5,19.6-4.3,29.8c1,8,2.6,16.3,7.3,22.9
		c7.1,9.8,19.9,13.9,32,14.3c10.1,0.3,20.5-1.7,28.8-7.3c8.3-5.7,14.2-15.4,13.6-25.5c-0.6-9.8-1.1-19.7-1.7-29.5
		c-3.1,1.5-6.9,0-9.3-2.5C996.5,305.8,995,302.6,993,299.8z"/>
	<path class="st6" d="M172.1,378.6c0.2,4.9,0.2,10.3-3.2,13.8c-3.4,3.5-11.1,2.1-11-2.7c0.6-26.9-0.7-53.9-3.9-80.7
		c-2-16.3-4.9-33.1-13.5-47.1c-8.6-14-24.3-24.8-40.7-23.1c-16.6,1.7-29.4,15-39.6,28.2c-6.8,8.7-13.5,18.6-13.3,29.7
		c0.4,24.9,0.7,49.8,1.1,74.7c0,3.4,0.1,6.9-1.4,9.9c-1.5,3-5,5.3-8.2,4.2c-3.9-1.3-4.8-6.3-5-10.4c-2.5-44.5-1.8-89.3,2-133.7
		c0.3-3.8,0.8-7.9,3-11c2.2-3.1,6.9-4.8,10-2.5c6.6,4.9-3,16.9,2.3,23.2c15.5-21.2,42.1-36.9,67.6-30.7c20.3,5,35.5,22.8,42.8,42.3
		s8.2,40.8,9,61.7C170.7,342.4,171.4,360.5,172.1,378.6z"/>
	<path class="st6" d="M885,389.1c-6.3-4.7-7.2-13.7-7.4-21.6c-1-28.4-1.9-56.8-2.9-85.2c-0.5-14.6-1.5-30.6-11.1-41.6
		c-9.4-10.7-25.4-14-39.3-10.9c-13.9,3.1-26,11.8-36.2,21.7c-4.8,4.7-9.6,10.2-10,16.9c-2.6,35.9-2.5,71.9,0.2,107.8
		c0.4,4.8-0.4,11.3-5.2,12.1c-5.4,0.9-7.8-6.6-8-12c-1.7-53.8-0.7-107.8,3.2-161.5c-0.3-4.2,6.5-5.5,9.3-2.3c2.8,3.1,2.5,7.8,2.1,12
		c-0.4,4.2-0.8,8.9,2,12c14.5-12,31.7-21.8,50.4-23.3c18.8-1.5,39,6.7,48,23.3c4.6,8.6,6,18.5,7,28.2c4,36.2,5.8,72.7,5.2,109.2
		C892.1,380,890.8,387.5,885,389.1z"/>
	<path class="st6" d="M1040.6,217.9c4.3,2,4.5,7.8,4.2,12.5c-2.6,39.8,1.7,80,12.7,118.3c3,10.5,6.8,21.3,15,28.4
		c11.4,10,30.4,9.7,41.5-0.7c6.9-6.4,10.5-15.5,12.9-24.6c10.2-38.5,2.4-79.1,0.6-118.9c-0.2-5.1,0.7-11.7,5.7-12.8
		c6-1.3,9.2,6.8,9.8,12.9c3.9,35.7,7.8,71.8,2.3,107.3c-1.5,9.3-3.6,18.6-7.7,27.1c-11.3,23.6-41.5,38.6-65.1,27.3
		c-21.1-10.1-29.5-35.4-34.1-58.3c-6.8-34.1-10-69-9.5-103.8c0.1-3.8,0.2-7.7,2.1-10.9C1033,218.6,1037.2,216.3,1040.6,217.9z"/>
	<path class="st6" d="M647.9,156.8c-0.7-0.4-1.5-0.1-2.2,0.2c-7.4,3.4-14.8,6.8-22.2,10.2c-4.2-7.9,2-17.2,8.6-23.2
		c6.6-6,14.7-12.3,15-21.2c0.6-21.1,5.8-42.1,15-61c2.2-4.4,6.2-9.5,10.9-7.9c2.8,0.9,4.3,3.9,5.4,6.5c7.7,17.9,13,36.9,15.8,56.2
		c1,6.8,2.4,14.8,8.7,17.5c11.8,5.1,19.9,17.8,19.6,30.7c-12.8-6.1-27.9-7.3-41.4-3.1C670,165,657.5,163.2,647.9,156.8z"/>
	<path class="st6" d="M439.7,238.1c-0.4-6.1,1.2-14.5,7.3-14.5c5.7,0.1,7.5,7.5,7.7,13.2c1.1,38.5,2.2,77.4-4.9,115.3
		c-4,21.3-21.2,39.4-42.2,44.5c-21,5.1-44.7-3.2-57.9-20.3c-14.9-19.3-15.9-45.6-16.1-70c-0.3-26.5-0.6-53-0.9-79.5
		c0-3.4,5.3-4.5,7.8-2.2c2.5,2.3,2.8,6.1,3,9.6c1.3,30.8,2.6,61.6,3.9,92.3c0.6,14.6,1.7,30.5,11.5,41.4c7.5,8.3,18.9,12.1,30,13.5
		c10.8,1.4,22.5,0.7,31.5-5.5c13.8-9.5,17-28.3,18.3-45C441.2,300.1,441.5,269,439.7,238.1z"/>
	<path class="st6" d="M1177.3,383.2c-14.1-15.2-16.8-37.6-17.8-58.4c-1.6-31-1.3-62.1,0.9-93c0.2-3.5,0.7-7.4,3.3-9.7
		c2.6-2.3,8-1.2,8,2.4c-0.1,19.1-0.1,38.1-0.2,57.2c0,2.2,0.8,5.2,3,5.1c22.7-1.5,45.4-3,68.1-4.5c3.4-0.2,7.5-0.1,9.1,2.9
		c1.4,2.6-0.2,5.9-2.6,7.6c-2.4,1.6-5.5,1.9-8.4,2.2c-20.5,1.8-41,3.7-61.5,5.5c-2.2,0.2-4.7,0.6-5.8,2.4c-0.8,1.3-0.7,3-0.6,4.6
		c0.9,8.9,1.8,17.7,2.7,26.6c1.7,17.1,5.2,37.1,20.5,45c9.6,5,21.6,3.4,30.9-2.1c9.3-5.5,16-14.5,20.9-24.1c1.7-3.4,7.4-2.6,9.5,0.6
		c2.1,3.2,1.5,7.5,0.4,11.2c-4.8,16-18.6,28.9-34.8,32.7C1206.7,401,1188.7,395.4,1177.3,383.2z"/>
	<path class="st6" d="M567.1,227.9c6.3,4.9,9.5,12.6,12.5,20c2.2,5.4,3,13.8-2.7,15.1c-3.7,0.9-7-2.4-9.4-5.3
		c-9.8-11.7-21.7-23.7-36.9-24.9c-14.6-1.2-28,8-39.2,17.5c-4.5,3.8-9.2,8.5-9.3,14.4c-0.6,35.1-1.2,70.2-1.8,105.3
		c-0.1,5.3-0.4,11.2-4.3,14.9c-3.9,3.6-12.2,1.8-11.9-3.5c3.1-49.8,4-99.6,2.9-149.5c-0.1-3.8,0.2-8.4,3.5-10.4
		c5.6-3.4,11.5,5.4,9.6,11.6c-0.7,2.3,2.4,4.3,4.8,3.7c2.4-0.6,4-2.7,5.6-4.5c14.4-15.9,39.4-15.8,60.3-10.9
		C556.7,222.7,562.5,224.3,567.1,227.9z"/>
	<path class="st6" d="M689.5,261.4c10.1,7.4,12.3,21.5,12.5,34.1c0.1,5.7-0.1,11.7-2.9,16.7c-5.2,9.1-17,11.7-27.4,13.1
		c-9.7,1.3-20.1-1.3-27.2-7.9c-7.2-6.6-10.5-17.5-7.2-26.7c3.9-10.9,9.9-21.6,19.5-28.1C666.4,256,680.1,254.5,689.5,261.4
		 M670.1,271.5c-13.1,3.8-21.9,18.7-19,32c0.5,2.4,1.5,4.9,3.5,6.4c1.6,1.2,3.7,1.6,5.7,1.9c5.3,0.8,10.9,0.9,15.9-1
		c5-1.8,9.5-5.9,10.7-11.1c0.6-2.5,0.4-5.1,0.2-7.7c-0.2-2.5-0.3-5-0.5-7.4c-0.3-3.9-0.7-8.1-3.3-11
		C680.1,270.3,674.7,270.2,670.1,271.5z"/>
</g>
</svg>
