<?xml version="1.0" encoding="utf-8"?>
<!-- Generator: Adobe Illustrator 21.0.0, SVG Export Plug-In . SVG Version: 6.00 Build 0)  -->
<svg version="1.1" id="Layer_1" xmlns="http://www.w3.org/2000/svg" xmlns:xlink="http://www.w3.org/1999/xlink" x="0px" y="0px"
	 viewBox="0 0 1583.9 373.5" style="enable-background:new 0 0 1583.9 373.5;" xml:space="preserve">
<style type="text/css">
	.st0{display:none;fill:#008CC4;}
	.st1{fill:#008CC4;}
	.st2{fill:none;stroke:#008CC4;stroke-width:12;stroke-linecap:round;stroke-linejoin:round;stroke-miterlimit:10;}
	.st3{fill:none;stroke:#008CC4;stroke-width:12;stroke-miterlimit:10;}
	.st4{display:none;fill:none;stroke:#008CC4;stroke-width:12;stroke-linecap:round;stroke-linejoin:round;stroke-miterlimit:10;}
	.st5{fill:none;stroke:#008CC4;stroke-width:12;stroke-linejoin:round;stroke-miterlimit:10;}
	.st6{display:none;}
	.st7{display:inline;opacity:0.5;enable-background:new    ;}
	.st8{fill:none;stroke:#008CC4;stroke-width:11.3514;stroke-linecap:round;stroke-linejoin:round;stroke-miterlimit:10;}
	.st9{fill:#008CC4;stroke:#008CC4;stroke-miterlimit:10;}
	.st10{fill:none;stroke:#008CC4;stroke-width:10;stroke-linecap:round;stroke-miterlimit:10;}
</style>
<g id="Layer_2">
	<circle class="st0" cx="-197.6" cy="253" r="25"/>
	<circle class="st0" cx="-122.6" cy="278" r="50"/>
	<circle class="st0" cx="-147.6" cy="403" r="75"/>
	<circle class="st0" cx="-347.6" cy="353" r="125"/>
	<circle class="st0" cx="-272.6" cy="28" r="200"/>
	<g>
		<path class="st1" d="M1440.6,182c-15.7,0-15.6-40.2,0.1-40.1c60.8,0.1,82.9,10.8,82.9,20.2S1501.4,182.1,1440.6,182z"/>
		<path class="st1" d="M1438.6,144.7l-9.6-20.6c14.5-5.7,21.6,15.3,31.8,18.2L1438.6,144.7z"/>
		<path class="st1" d="M1438.6,179.4l-9.7,20.6c14.5,5.8,21.6-15.2,31.9-18.1L1438.6,179.4z"/>
	</g>
	<path class="st2" d="M277.4,234.4v-92c0-28.4-23-51.4-51.4-51.4c-9.6,0-18.6,2.6-26.3,7.2c-15.1,9-25.2,25.4-25.2,44.2v94.7"/>
	<path class="st2" d="M442.6,90.9V189c0,28.4,23,51.4,51.4,51.4c28.4,0,51.4-23,51.4-51.4V90.9"/>
	<path class="st2" d="M360,91.4c-28.4,0-51.4,23-51.4,51.4C308.6,114.4,331.6,91.4,360,91.4s51.4,23,51.4,51.4v21.7H308.6v-21.7
		v21.6v24.5c0,28.4,21.1,51.4,49.5,51.4c21.3,0,41.5-12.9,49.3-31.4"/>
	<path class="st2" d="M675.5,123.3c-7.8-18.5-28-32.4-49.3-32.4c-28.4,0-49.5,23-49.5,51.4v24.5l-0.1,70.2"/>
	<path class="st2" d="M1001.2,234.4v-92c0-28.4-23-51.4-51.4-51.4c-9.6,0-18.6,2.6-26.3,7.2c-15.1,9-25.2,25.4-25.2,44.2v94.7"/>
	<path class="st2" d="M1167.3,90.9V189c0,28.4,23,51.4,51.4,51.4s51.4-23,51.4-51.4V90.9"/>
	<path class="st2" d="M1399.4,209c-7.8,18.5-28,31.4-49.3,31.4c-28.4,0-49.5-23-49.5-51.4v-24.5l-0.1-73.6"/>
	<line class="st2" x1="1300.5" y1="162" x2="1399.4" y2="162"/>
	<g>
		<path class="st3" d="M1135.3,142.9v21.6h-102.9v-21.6c0-28.4,23-51.4,51.4-51.4C1112.3,91.4,1135.3,114.4,1135.3,142.9z"/>
		<polygon class="st4" points="1032.4,142.9 1032.4,164.5 1032.4,164.5 		"/>
		<line class="st2" x1="1032.4" y1="237.1" x2="1032.4" y2="164.5"/>
		<path class="st2" d="M1135.3,164.5v72.6V164.5z"/>
	</g>
	<polyline class="st5" points="723.6,181.3 723.6,206.4 788.7,243.9 853.7,206.4 853.7,131.3 788.7,93.7 723.6,131.3 723.6,181.3 	
		"/>
</g>
<g id="Contours" class="st6">
	<path class="st7" d="M1409.2-119.5c-1.8-1.4-2.2-4.2-0.9-6.1c0.4,2,0.8,3.9,1.2,5.9L1409.2-119.5z"/>
	<path class="st7" d="M711.7,217.4c14.5-22.9,11.5-52.7,4-78.7c-2.1-7.4-3-18.1,4.4-20.3c30-8.8,52.7-38.2,53.7-69.5
		c7-1.4,10.9,7.9,10.8,15c-0.6,29-23.1,53.9-49.5,65.9c-5.6,2.5-4.4,10.7-2.9,16.6c5,18.9,4.7,39.2-0.9,58
		c-1.4,4.8-2.2,11.8,2.7,13.2c22.5,6.5,42.3,21.9,54.1,42.1c13.7-17.6,31-32.4,50.5-43.2c5.4-3,12-8.9,8.7-14.1
		c-12.7-19.5-12.4-46.6,0.6-65.9c2.2-3.3,4.1-9,0.3-10.3c-16.5-5.5-32.9-13.3-44-26.7S788.8,66,797.5,51c5.8,1.5,7,9,8.1,14.8
		c4.2,22.3,24.2,40.7,46.8,42.9c10.4,1,14.8,14.5,12.3,24.7s-9.2,18.9-11.5,29.1c-3.8,17.2,5.6,34.4,15.9,48.8
		c2.7,3.9,4.2,11.2-0.6,11.6c-28.1,2.2-48.7,26.1-68.6,46.1c-3.7,3.7-7.8,7.5-12.9,8.9c-5.1,1.4-11.5-0.6-13.4-5.5
		c-7.4-19.5-25-34.8-45.3-39.3c-4.4-1-9-1.6-12.7-4.1C711.6,226.4,709.3,221.1,711.7,217.4 M784.5,267.4c1.5-1.6,1.1-4.6-0.8-5.6
		c-1.1,1.8-0.9,4.2,0.5,5.8 M793.9,263.9c-0.8-0.2-1.8-0.1-2.5,0.4c-0.2,0.9,0,1.8,0.5,2.6C793.4,266.9,795,265,793.9,263.9
		 M770.5,253.4c-0.3,1.4,1.4,2.8,2.7,2.2c0-1.4-1.4-2.6-2.8-2.4L770.5,253.4z"/>
	<path class="st7" d="M430.7,237.9c-10,21.4-30.8,37.6-54.2,41s-48.4-6.6-62.1-25.9c-8.1-11.4-12.1-25.1-15.3-38.7
		c-4.1-17.6-7.2-36.3-1.7-53.5c3.6-11.3,10.6-21.2,18.8-29.7c13.2-13.7,30.3-24.1,49.1-27c18.8-2.8,39.3,2.8,52.2,16.8
		c4.2,4.6,7.5,9.9,10.4,15.4c6.8,12.9,11.6,27.4,10.3,42c-0.4,4.6-1.5,9.3-4.6,12.7c-4.6,5.2-12.4,6-19.4,6.5c-29,1.9-58,3.8-87,5.7
		c-3.2,0.2-6.8,0.7-8.5,3.4c-1,1.6-1,3.7-0.9,5.6c1.9,24,22.6,45.2,46.6,47.5c24,2.4,48.4-14.4,55-37.6c1.5-5.2,10.1-4.5,12.6,0.3
		C434.7,227.1,433,233,430.7,237.9 M315.6,182.2c4,4.8,11,5.6,17.2,5.7c27.7,0.7,55.2-3.4,82.6-7.5c3-0.4,6.4-1.2,7.7-4
		c0.7-1.5,0.5-3.2,0.3-4.8c-1.4-12.5-3-25.5-10-35.9c-11.2-16.5-34.4-22.1-53.4-16.2c-19,6-33.9,21.6-43.1,39.3
		C313.1,166.2,310.3,175.8,315.6,182.2z"/>
	<path class="st7" d="M1060.3,158.6c10.8-5.7,22.8-10.6,34.9-8.8c11,1.6,20.4,8.6,29.3,15.3c-0.1-11.6-0.2-23.4-4.1-34.4
		s-12-21.1-23.2-24c-6-1.6-12.2-1.1-18.4-0.5c-12.5,1.1-26.9,3.4-33,14.3c-1.6,2.9-2.5,6.3-4.6,8.9c-2,2.6-6,4.4-8.7,2.5
		c-2.4-1.6-2.8-4.9-2.5-7.8c1.2-11.7,10.1-21.6,20.7-26.9c10.5-5.3,22.6-6.8,34.3-7.7c7.8-0.6,15.8-0.9,23.3,1.5
		c12.5,4.1,21.5,15.4,26,27.7s5.3,25.6,6,38.7c1.8,33.5,3.5,67.1,5.3,100.6c0.3,4.9-1.1,11.6-6,11.6c-3.6,0-5.8-4-6.3-7.5
		c-0.6-3.5-0.4-7.4-2.6-10.3c-15.8,10.3-35,16.4-53.6,13.8c-18.7-2.6-36.4-15-42.7-32.8c-3.2-9.1-3.3-19-3.1-28.6
		c0.2-8.4,0.7-17.2,4.5-24.7C1040.9,169.8,1050.7,163.6,1060.3,158.6 M1111.4,179.2c-5.2-7.2-14.2-11.2-23.1-11.5
		c-8.9-0.4-17.7,2.6-25.4,7.1c-4.7,2.8-9.1,6.2-12.1,10.7c-5.7,8.5-5.5,19.6-4.3,29.8c1,8,2.6,16.3,7.3,22.9
		c7.1,9.8,19.9,13.9,32,14.3c10.1,0.3,20.5-1.7,28.8-7.3c8.3-5.7,14.2-15.4,13.6-25.5c-0.6-9.8-1.1-19.7-1.7-29.5
		c-3.1,1.5-6.9,0-9.3-2.5C1114.9,185.2,1113.4,182,1111.4,179.2z"/>
	<path class="st7" d="M290.5,258c0.2,4.9,0.2,10.3-3.2,13.8s-11.1,2.1-11-2.7c0.6-26.9-0.7-53.9-3.9-80.7
		c-2-16.3-4.9-33.1-13.5-47.1s-24.3-24.8-40.7-23.1c-16.6,1.7-29.4,15-39.6,28.2c-6.8,8.7-13.5,18.6-13.3,29.7
		c0.4,24.9,0.7,49.8,1.1,74.7c0,3.4,0.1,6.9-1.4,9.9s-5,5.3-8.2,4.2c-3.9-1.3-4.8-6.3-5-10.4c-2.5-44.5-1.8-89.3,2-133.7
		c0.3-3.8,0.8-7.9,3-11s6.9-4.8,10-2.5c6.6,4.9-3,16.9,2.3,23.2c15.5-21.2,42.1-36.9,67.6-30.7c20.3,5,35.5,22.8,42.8,42.3
		s8.2,40.8,9,61.7C289.1,221.8,289.8,239.9,290.5,258z"/>
	<path class="st7" d="M1003.4,268.5c-6.3-4.7-7.2-13.7-7.4-21.6c-1-28.4-1.9-56.8-2.9-85.2c-0.5-14.6-1.5-30.6-11.1-41.6
		c-9.4-10.7-25.4-14-39.3-10.9c-13.9,3.1-26,11.8-36.2,21.7c-4.8,4.7-9.6,10.2-10,16.9c-2.6,35.9-2.5,71.9,0.2,107.8
		c0.4,4.8-0.4,11.3-5.2,12.1c-5.4,0.9-7.8-6.6-8-12c-1.7-53.8-0.7-107.8,3.2-161.5c-0.3-4.2,6.5-5.5,9.3-2.3c2.8,3.1,2.5,7.8,2.1,12
		s-0.8,8.9,2,12c14.5-12,31.7-21.8,50.4-23.3c18.8-1.5,39,6.7,48,23.3c4.6,8.6,6,18.5,7,28.2c4,36.2,5.8,72.7,5.2,109.2
		C1010.5,259.4,1009.2,266.9,1003.4,268.5z"/>
	<path class="st7" d="M1159,97.3c4.3,2,4.5,7.8,4.2,12.5c-2.6,39.8,1.7,80,12.7,118.3c3,10.5,6.8,21.3,15,28.4
		c11.4,10,30.4,9.7,41.5-0.7c6.9-6.4,10.5-15.5,12.9-24.6c10.2-38.5,2.4-79.1,0.6-118.9c-0.2-5.1,0.7-11.7,5.7-12.8
		c6-1.3,9.2,6.8,9.8,12.9c3.9,35.7,7.8,71.8,2.3,107.3c-1.5,9.3-3.6,18.6-7.7,27.1c-11.3,23.6-41.5,38.6-65.1,27.3
		c-21.1-10.1-29.5-35.4-34.1-58.3c-6.8-34.1-10-69-9.5-103.8c0.1-3.8,0.2-7.7,2.1-10.9C1151.4,98,1155.6,95.7,1159,97.3z"/>
	<path class="st7" d="M766.3,36.2c-0.7-0.4-1.5-0.1-2.2,0.2c-7.4,3.4-14.8,6.8-22.2,10.2c-4.2-7.9,2-17.2,8.6-23.2
		s14.7-12.3,15-21.2c0.6-21.1,5.8-42.1,15-61c2.2-4.4,6.2-9.5,10.9-7.9c2.8,0.9,4.3,3.9,5.4,6.5c7.7,17.9,13,36.9,15.8,56.2
		c1,6.8,2.4,14.8,8.7,17.5c11.8,5.1,19.9,17.8,19.6,30.7c-12.8-6.1-27.9-7.3-41.4-3.1C788.4,44.4,775.9,42.6,766.3,36.2z"/>
	<path class="st7" d="M558.1,117.5c-0.4-6.1,1.2-14.5,7.3-14.5c5.7,0.1,7.5,7.5,7.7,13.2c1.1,38.5,2.2,77.4-4.9,115.3
		c-4,21.3-21.2,39.4-42.2,44.5s-44.7-3.2-57.9-20.3c-14.9-19.3-15.9-45.6-16.1-70c-0.3-26.5-0.6-53-0.9-79.5c0-3.4,5.3-4.5,7.8-2.2
		s2.8,6.1,3,9.6c1.3,30.8,2.6,61.6,3.9,92.3c0.6,14.6,1.7,30.5,11.5,41.4c7.5,8.3,18.9,12.1,30,13.5c10.8,1.4,22.5,0.7,31.5-5.5
		c13.8-9.5,17-28.3,18.3-45C559.6,179.5,559.9,148.4,558.1,117.5z"/>
	<path class="st7" d="M1295.7,262.6c-14.1-15.2-16.8-37.6-17.8-58.4c-1.6-31-1.3-62.1,0.9-93c0.2-3.5,0.7-7.4,3.3-9.7
		c2.6-2.3,8-1.2,8,2.4c-0.1,19.1-0.1,38.1-0.2,57.2c0,2.2,0.8,5.2,3,5.1c22.7-1.5,45.4-3,68.1-4.5c3.4-0.2,7.5-0.1,9.1,2.9
		c1.4,2.6-0.2,5.9-2.6,7.6c-2.4,1.6-5.5,1.9-8.4,2.2c-20.5,1.8-41,3.7-61.5,5.5c-2.2,0.2-4.7,0.6-5.8,2.4c-0.8,1.3-0.7,3-0.6,4.6
		c0.9,8.9,1.8,17.7,2.7,26.6c1.7,17.1,5.2,37.1,20.5,45c9.6,5,21.6,3.4,30.9-2.1s16-14.5,20.9-24.1c1.7-3.4,7.4-2.6,9.5,0.6
		s1.5,7.5,0.4,11.2c-4.8,16-18.6,28.9-34.8,32.7C1325.1,280.4,1307.1,274.8,1295.7,262.6z"/>
	<path class="st7" d="M685.5,107.3c6.3,4.9,9.5,12.6,12.5,20c2.2,5.4,3,13.8-2.7,15.1c-3.7,0.9-7-2.4-9.4-5.3
		c-9.8-11.7-21.7-23.7-36.9-24.9c-14.6-1.2-28,8-39.2,17.5c-4.5,3.8-9.2,8.5-9.3,14.4c-0.6,35.1-1.2,70.2-1.8,105.3
		c-0.1,5.3-0.4,11.2-4.3,14.9c-3.9,3.6-12.2,1.8-11.9-3.5c3.1-49.8,4-99.6,2.9-149.5c-0.1-3.8,0.2-8.4,3.5-10.4
		c5.6-3.4,11.5,5.4,9.6,11.6c-0.7,2.3,2.4,4.3,4.8,3.7c2.4-0.6,4-2.7,5.6-4.5c14.4-15.9,39.4-15.8,60.3-10.9
		C675.1,102.1,680.9,103.7,685.5,107.3z"/>
	<path class="st7" d="M807.9,140.8c10.1,7.4,12.3,21.5,12.5,34.1c0.1,5.7-0.1,11.7-2.9,16.7c-5.2,9.1-17,11.7-27.4,13.1
		c-9.7,1.3-20.1-1.3-27.2-7.9c-7.2-6.6-10.5-17.5-7.2-26.7c3.9-10.9,9.9-21.6,19.5-28.1C784.8,135.4,798.5,133.9,807.9,140.8
		 M788.5,150.9c-13.1,3.8-21.9,18.7-19,32c0.5,2.4,1.5,4.9,3.5,6.4c1.6,1.2,3.7,1.6,5.7,1.9c5.3,0.8,10.9,0.9,15.9-1
		c5-1.8,9.5-5.9,10.7-11.1c0.6-2.5,0.4-5.1,0.2-7.7c-0.2-2.5-0.3-5-0.5-7.4c-0.3-3.9-0.7-8.1-3.3-11
		C798.5,149.7,793.1,149.6,788.5,150.9z"/>
</g>
<line class="st8" x1="788.7" y1="165.9" x2="627.9" y2="165.9"/>
<g>
	<path class="st9" d="M597.4,317.3c0-0.6,0.3-0.8,0.8-0.8c0.4,0,0.7,0.3,0.9,0.8c0.6,1.1,1.3,2.2,2.1,3.2s1.8,1.9,2.9,2.7
		c1.1,0.8,2.3,1.4,3.7,1.8c1.4,0.5,2.9,0.7,4.7,0.7c1.6,0,3.2-0.2,4.8-0.6s3.1-1,4.4-1.8c1.3-0.8,2.4-2,3.2-3.3
		c0.8-1.4,1.2-3.1,1.2-5.1c0-1.9-0.4-3.5-1.1-4.9c-0.7-1.4-1.7-2.6-3-3.5c-1.3-1-2.7-1.7-4.3-2.2s-3.4-0.7-5.2-0.7
		c-1.9,0-3.6-0.1-5.3-0.4s-3.1-0.8-4.3-1.5s-2.2-1.8-2.9-3.1c-0.7-1.3-1.1-3.1-1.1-5.3c0-3.5,1.2-6.2,3.7-8.2c2.4-2,5.8-3.1,10-3.1
		c2.6,0.1,5,0.7,7.3,1.7c2.2,1.1,4,2.7,5.2,4.9c0.1,0.1,0.1,0.3,0.1,0.5c0,0.6-0.3,0.8-0.9,0.8c-0.3,0-0.6-0.2-0.8-0.5
		c-1.1-1.7-2.6-3.1-4.4-4.1c-1.8-1-4-1.6-6.5-1.6c-2.1,0-3.9,0.3-5.4,0.8s-2.7,1.3-3.7,2.1c-1,0.9-1.7,1.9-2.1,3s-0.7,2.3-0.7,3.6
		c0,1.7,0.3,3.1,0.8,4.2s1.3,2,2.3,2.6s2.3,1.1,3.7,1.3c1.5,0.2,3.1,0.4,5,0.4c2.1,0,4.1,0.3,6,0.9s3.5,1.4,4.9,2.5s2.5,2.5,3.3,4.1
		s1.2,3.5,1.2,5.6s-0.4,3.9-1.2,5.5s-1.9,2.9-3.3,4c-1.4,1.1-3,1.8-4.9,2.4c-1.9,0.5-3.9,0.8-6,0.8c-0.5,0-1.3-0.1-2.5-0.2
		c-1.2-0.2-2.5-0.5-4-1.2c-1.5-0.6-3-1.6-4.5-2.8c-1.5-1.3-2.8-3-3.9-5.2C597.5,317.6,597.4,317.4,597.4,317.3z"/>
	<path class="st9" d="M646.9,297.1c0-2.1,0.4-4.1,1.2-6s1.9-3.5,3.3-4.9c1.4-1.4,3-2.5,4.9-3.3s3.9-1.2,6.1-1.2c2.1,0,4.1,0.4,6,1.2
		c1.9,0.8,3.5,1.9,4.9,3.3s2.5,3,3.3,4.9s1.2,3.9,1.2,6v14.8c0,2.1-0.4,4.1-1.2,6s-1.9,3.5-3.3,4.9c-1.4,1.4-3,2.5-4.9,3.3
		s-3.9,1.2-6,1.2s-4.1-0.4-6-1.2c-1.9-0.8-3.5-1.9-4.9-3.3s-2.5-3-3.3-4.9s-1.2-3.9-1.2-6L646.9,297.1L646.9,297.1z M648.9,311.8
		c0,1.9,0.4,3.7,1.1,5.3c0.7,1.6,1.7,3,3,4.2s2.7,2.2,4.3,2.8c1.9,0.8,3.8,1.1,5.9,1c1.3-0.1,2.7-0.4,3.9-0.9c1.8-0.7,3.4-1.7,4.7-3
		c1.2-1.2,2.2-2.6,2.9-4.2s1.1-3.4,1.1-5.2v-14.6c0-1.9-0.4-3.6-1.1-5.2c-0.7-1.6-1.7-3-3-4.2c-1.2-1.2-2.7-2.2-4.3-2.9
		c-1.6-0.7-3.3-1.1-5-1.1c-1.8,0-3.6,0.3-5.2,1c-1.6,0.7-3.1,1.6-4.3,2.8c-1.3,1.2-2.2,2.6-3,4.2c-0.7,1.6-1.1,3.4-1.1,5.3
		L648.9,311.8L648.9,311.8z"/>
	<path class="st9" d="M695.9,284c-0.1-0.6,0.2-0.9,0.8-0.9s0.9,0.3,1.2,0.9v39.5h26.4c0.6,0.6,0.9,0.9,0.9,1.5s-0.3,0.9-0.9,0.5
		h-27.5h-0.1h-0.1c-0.5,0.3-0.7,0-0.6-0.5v-41H695.9z"/>
	<path class="st9" d="M742.9,283.9c-0.3-0.6,0-0.8,0.6-0.8s1.4,0.8,1.4,0.8v28c0,1.7,0.4,3.4,1.1,5.1c0.7,1.6,1.7,3.1,2.9,4.3
		c1.2,1.2,2.7,2.2,4.3,3c1.6,0.7,3.3,1.1,5.2,1.1c1.7,0,3.4-0.4,5.1-1.1c1.6-0.7,3.1-1.7,4.3-3c1.3-1.2,2.3-2.7,3-4.3
		c0.7-1.6,1.1-3.3,1.1-5.1v-28c0,0,0.2-0.8,0.7-0.8c0.6,0,1.3,0.8,1.3,0.8v27.8c0,2.1-0.4,4.1-1.3,5.9c-0.8,1.9-2,3.5-3.4,4.9
		s-3.1,2.5-4.9,3.4c-1.9,0.8-3.8,1.3-5.9,1.3s-4.1-0.4-5.9-1.3c-1.9-0.8-3.5-2-4.9-3.4s-2.5-3-3.4-4.9c-0.8-1.9-1.3-3.8-1.3-5.9
		L742.9,283.9L742.9,283.9z"/>
	<path class="st9" d="M803.9,284.5H791c-0.6,0.3-0.9,0.1-0.9-0.5s0.3-0.9,0.9-1.5h14.1h14.1c0.6,0.6,0.8,0.9,0.8,1.5
		s-0.3,0.8-0.8,0.5h-13.3V325c0.1,0.6-0.2,0.8-0.8,0.8s-0.8-0.3-1.2-0.8L803.9,284.5L803.9,284.5z"/>
	<path class="st9" d="M837.9,284c-0.1-0.6,0.2-0.9,0.7-0.9c0.6,0,0.9,0.3,1.3,0.9v41c-0.3,0.6-0.6,0.8-1.3,0.8
		c-0.6,0-0.8-0.3-0.7-0.8V284z"/>
	<path class="st9" d="M856.9,297.1c0-2.1,0.4-4.1,1.2-6s1.9-3.5,3.3-4.9c1.4-1.4,3-2.5,4.9-3.3s3.9-1.2,6.1-1.2c2.1,0,4.1,0.4,6,1.2
		c1.9,0.8,3.5,1.9,4.9,3.3s2.5,3,3.3,4.9s1.2,3.9,1.2,6v14.8c0,2.1-0.4,4.1-1.2,6s-1.9,3.5-3.3,4.9c-1.4,1.4-3,2.5-4.9,3.3
		s-3.9,1.2-6,1.2s-4.1-0.4-6-1.2c-1.9-0.8-3.5-1.9-4.9-3.3s-2.5-3-3.3-4.9s-1.2-3.9-1.2-6L856.9,297.1L856.9,297.1z M858.9,311.8
		c0,1.9,0.4,3.7,1.1,5.3c0.7,1.6,1.7,3,3,4.2s2.7,2.2,4.3,2.8c1.9,0.8,3.8,1.1,5.9,1c1.3-0.1,2.7-0.4,3.9-0.9c1.8-0.7,3.4-1.7,4.7-3
		c1.2-1.2,2.2-2.6,2.9-4.2s1.1-3.4,1.1-5.2v-14.6c0-1.9-0.4-3.6-1.1-5.2c-0.7-1.6-1.7-3-3-4.2c-1.2-1.2-2.7-2.2-4.3-2.9
		c-1.6-0.7-3.3-1.1-5-1.1c-1.8,0-3.6,0.3-5.2,1c-1.6,0.7-3.1,1.6-4.3,2.8c-1.3,1.2-2.2,2.6-3,4.2c-0.7,1.6-1.1,3.4-1.1,5.3
		L858.9,311.8L858.9,311.8z"/>
	<path class="st9" d="M904.9,298.2c0-2.1,0.4-4,1.3-5.9c0.8-1.9,2-3.5,3.4-4.9s3-2.5,4.9-3.4c1.9-0.8,3.8-1.3,5.9-1.3
		s4.1,0.4,5.9,1.3c1.9,0.8,3.5,2,4.9,3.4s2.6,3,3.4,4.9c0.8,1.9,1.3,3.8,1.3,5.9V325c0,0-0.2,0.8-0.8,0.8s-1.2-0.8-1.2-0.8v-26.9
		c0-1.7-0.4-3.4-1.1-5c-0.7-1.6-1.7-3.1-3-4.3c-1.3-1.3-2.7-2.3-4.3-3s-3.3-1.1-5.1-1.1s-3.6,0.4-5.2,1.1c-1.6,0.7-3,1.7-4.3,3
		c-1.2,1.3-2.2,2.7-2.9,4.3c-0.7,1.6-1.1,3.3-1.1,5V325c0,0-0.4,0.8-0.9,0.8c-0.6,0-1.1-0.8-1.1-0.8L904.9,298.2L904.9,298.2z"/>
	<path class="st9" d="M953.1,317.3c0-0.6,0.3-0.8,0.8-0.8c0.4,0,0.7,0.3,0.9,0.8c0.6,1.1,1.3,2.2,2.1,3.2s1.8,1.9,2.9,2.7
		s2.3,1.4,3.7,1.8c1.4,0.5,2.9,0.7,4.7,0.7c1.6,0,3.2-0.2,4.8-0.6s3.1-1,4.4-1.8s2.4-2,3.2-3.3c0.8-1.4,1.2-3.1,1.2-5.1
		c0-1.9-0.4-3.5-1.1-4.9c-0.7-1.4-1.7-2.6-3-3.5s-2.7-1.7-4.3-2.2s-3.4-0.7-5.2-0.7c-1.9,0-3.6-0.1-5.3-0.4s-3.1-0.8-4.3-1.5
		s-2.2-1.8-2.9-3.1c-0.7-1.3-1.1-3.1-1.1-5.3c0-3.5,1.2-6.2,3.7-8.2c2.4-2,5.8-3.1,10-3.1c2.6,0.1,5,0.7,7.3,1.7
		c2.2,1.1,4,2.7,5.2,4.9c0.1,0.1,0.1,0.3,0.1,0.5c0,0.6-0.3,0.8-0.9,0.8c-0.3,0-0.6-0.2-0.8-0.5c-1.1-1.7-2.6-3.1-4.4-4.1
		c-1.8-1-4-1.6-6.5-1.6c-2.1,0-3.9,0.3-5.4,0.8s-2.7,1.3-3.7,2.1c-1,0.9-1.7,1.9-2.1,3c-0.5,1.1-0.7,2.3-0.7,3.6
		c0,1.7,0.3,3.1,0.8,4.2s1.3,2,2.3,2.6s2.3,1.1,3.7,1.3c1.5,0.2,3.1,0.4,5,0.4c2.1,0,4.1,0.3,6,0.9s3.5,1.4,4.9,2.5s2.5,2.5,3.3,4.1
		s1.2,3.5,1.2,5.6s-0.4,3.9-1.2,5.5s-1.9,2.9-3.3,4c-1.4,1.1-3,1.8-4.9,2.4c-1.9,0.5-3.9,0.8-6,0.8c-0.5,0-1.3-0.1-2.5-0.2
		c-1.2-0.2-2.5-0.5-4-1.2c-1.5-0.6-3-1.6-4.5-2.8c-1.5-1.3-2.8-3-3.9-5.2C953.2,317.6,953.1,317.4,953.1,317.3z"/>
</g>
<line class="st10" x1="147" y1="164.5" x2="55.5" y2="164.5"/>
</svg>
