<?xml version="1.0" encoding="utf-8"?>
<!-- Generator: Adobe Illustrator 21.0.0, SVG Export Plug-In . SVG Version: 6.00 Build 0)  -->
<svg version="1.1" id="Layer_1" xmlns="http://www.w3.org/2000/svg" xmlns:xlink="http://www.w3.org/1999/xlink" x="0px" y="0px"
	 viewBox="0 0 583 870" style="enable-background:new 0 0 583 870;" xml:space="preserve">
<style type="text/css">
	.st0{fill:none;stroke:#008CC4;stroke-width:3;stroke-miterlimit:10;}
	.st1{fill:#008CC4;}
	.st2{fill:#1FB6E5;}
	.st3{fill:none;stroke:#008CC4;stroke-width:2;stroke-miterlimit:10;}
	.st4{fill:none;stroke:#728287;stroke-miterlimit:10;}
	.st5{fill:none;}
	.st6{display:none;fill:#008CC4;}
	.st7{fill:none;stroke:#008CC4;stroke-width:4.8;stroke-linecap:round;stroke-linejoin:round;stroke-miterlimit:10;}
	.st8{fill:none;stroke:#008CC4;stroke-width:4.8;stroke-miterlimit:10;}
	.st9{display:none;fill:none;stroke:#008CC4;stroke-width:4.8;stroke-linecap:round;stroke-linejoin:round;stroke-miterlimit:10;}
	.st10{fill:none;stroke:#008CC4;stroke-width:4.8;stroke-linejoin:round;stroke-miterlimit:10;}
	.st11{fill:#008CC4;stroke:#008CC4;stroke-width:0.4;stroke-miterlimit:10;}
</style>
<polygon class="st0" points="1041.4,247.5 963.3,247.5 924.3,315.1 963.3,382.8 1041.4,382.8 1080.5,315.1 "/>
<polygon class="st0" points="277.8,212.5 161.2,212.5 102.9,313.5 161.2,414.5 277.8,414.5 336.1,313.5 "/>
<g>
	<polygon class="st1" points="266.6,232 172.4,232 125.4,313.5 172.4,395 266.6,395 313.6,313.5 	"/>
</g>
<polygon class="st1" points="472.6,567.7 422.1,538.7 422,480.5 472.4,451.3 522.9,480.3 523,538.5 "/>
<polygon class="st2" points="210.6,325.8 133.9,325.8 95.5,392.3 133.9,458.7 210.6,458.7 249,392.3 "/>
<polygon class="st2" points="515.3,282 479.2,282 461.2,313.3 479.2,344.5 515.3,344.5 533.4,313.3 "/>
<polygon class="st2" points="533.9,458 506.1,458 492.3,482 506.1,506 533.9,506 547.7,482 "/>
<polygon class="st1" points="472,365.4 454,354.9 454.1,334 472.2,323.6 490.3,334.2 490.2,355 "/>
<polygon class="st2" points="957.3,770.6 1057.2,714.4 1155.9,772.7 1154.7,887.4 1054.8,943.6 956.1,885.3 "/>
<polygon class="st1" points="1032.8,725.3 957.9,681 882.1,723.7 881.2,810.7 956.1,855 1031.9,812.3 "/>
<polygon class="st2" points="1068.7,196 1013.3,196 985.6,244 1013.3,292 1068.7,292 1096.4,244 "/>
<polygon class="st1" points="1025,271.8 1008.9,244 1025,216.2 1057,216.2 1073.1,244 1057,271.8 "/>
<polygon class="st0" points="902,792.3 852.6,764.3 852.1,707.5 901,678.7 950.4,706.7 950.9,763.5 "/>
<polygon class="st0" points="448.2,565.7 411.5,586.8 374.8,565.7 374.8,523.3 411.5,502.2 448.2,523.3 "/>
<g>
	<title>Asset 1</title>
	<g id="Layer_2_1_">
		<g id="Layer_1-2_1_">
			<g id="Layer_2-2_1_">
				<path class="st1" d="M1276.1,541.9c-8.6,13.1-42.2-9-33.5-22c33.4-50.8,54.4-63.5,62.3-58.3
					C1312.8,466.7,1309.5,491.1,1276.1,541.9z"/>
				<path class="st1" d="M1243.8,523.1l-22.5-3.2c3.2-15.3,24.6-9.7,32.6-16.6L1243.8,523.1z"/>
				<path class="st1" d="M1272.8,542.1l11.9,19.4c12.8-9-0.9-26.4,2.3-36.6L1272.8,542.1z"/>
			</g>
		</g>
	</g>
</g>
<g>
	<g>
		<path class="st1" d="M131.7,457.6c-16.3,28.2-32.6,56.4-48.8,84.6C57.1,586.8,31.3,631.4,5.6,676c-5.9,10.3-11.9,20.6-17.8,30.9
			c-1,1.7,1.6,3.2,2.6,1.5c16.3-28.2,32.6-56.4,48.8-84.6c25.7-44.6,51.5-89.2,77.2-133.8c5.9-10.3,11.9-20.6,17.8-30.9
			C135.2,457.5,132.6,456,131.7,457.6L131.7,457.6z"/>
	</g>
</g>
<line class="st3" x1="336.5" y1="313.5" x2="460.5" y2="313.5"/>
<line class="st3" x1="472" y1="365" x2="472" y2="452"/>
<line class="st0" x1="852" y1="708" x2="523" y2="539"/>
<line class="st0" x1="1110" y1="745" x2="1251" y2="545"/>
<polygon class="st4" points="291.7,616 261.5,633.4 231.3,616 231.3,581 261.5,563.6 291.7,581 "/>
<polygon class="st4" points="632.3,780 588.7,754.6 588.9,704.1 632.7,679 676.3,704.4 676.1,754.9 "/>
<polygon class="st4" points="732.3,224.5 709.7,224.5 698.5,244 709.7,263.5 732.3,263.5 743.5,244 "/>
<polygon class="st4" points="1258.4,332.9 1225.2,351.7 1192.3,332.3 1192.6,294.1 1225.8,275.3 1258.7,294.7 "/>
<polygon class="st4" points="120.4,774 103,784.1 85.6,774 85.6,754 103,743.9 120.4,754 "/>
<polygon class="st4" points="1258.3,692.5 1238.7,692.5 1228.9,709.5 1238.7,726.5 1258.3,726.5 1268.1,709.5 "/>
<polygon class="st4" points="76.3,318.5 45.7,318.5 30.4,345 45.7,371.5 76.3,371.5 91.6,345 "/>
<g>
	<rect x="200" y="705.9" class="st5" width="354" height="92.1"/>
	<path class="st1" d="M201.5,722.4c0-1.2,0.2-2.3,0.6-3.3c0.5-1,1.1-1.9,1.9-2.7c0.8-0.8,1.7-1.4,2.7-1.8c1-0.4,2.1-0.7,3.3-0.7
		s2.2,0.2,3.2,0.6c1,0.4,1.9,1,2.7,1.8s1.4,1.6,1.9,2.7c0.5,1,0.7,2.2,0.7,3.4v6.8c0,1.2-0.2,2.3-0.6,3.3c-0.5,1-1.1,1.9-1.9,2.7
		s-1.7,1.4-2.7,1.8c-1,0.4-2.1,0.7-3.2,0.7s-2.2-0.2-3.3-0.7c-1-0.5-2-1.1-2.7-1.8c-0.8-0.8-1.4-1.7-1.9-2.7c-0.5-1-0.7-2.1-0.6-3.3
		V722.4z M202.8,729.2c0,1.1,0.2,2,0.6,2.9c0.4,0.9,0.9,1.6,1.6,2.3c0.7,0.6,1.4,1.1,2.3,1.5s1.8,0.5,2.7,0.5s1.8-0.2,2.7-0.5
		c0.9-0.3,1.6-0.8,2.3-1.4c0.7-0.6,1.2-1.4,1.6-2.3c0.4-0.9,0.6-1.9,0.6-3v-6.8c0-1.1-0.2-2.1-0.6-3c-0.4-0.9-1-1.7-1.6-2.3
		c-0.7-0.6-1.4-1.1-2.3-1.4c-0.9-0.3-1.8-0.5-2.7-0.5c-1,0-1.9,0.2-2.8,0.5c-0.9,0.3-1.6,0.8-2.3,1.5c-0.7,0.6-1.2,1.4-1.6,2.3
		s-0.6,1.8-0.6,2.9V729.2z"/>
	<path class="st1" d="M221.8,722.4c0-1.2,0.2-2.2,0.6-3.3c0.5-1,1.1-1.9,1.9-2.7c0.8-0.8,1.7-1.4,2.7-1.8c1-0.5,2.1-0.7,3.3-0.7
		s2.2,0.2,3.2,0.7c1,0.4,2,1,2.7,1.8c0.8,0.8,1.4,1.7,1.9,2.7c0.5,1,0.7,2.1,0.6,3.3v6.8c0,1.2-0.2,2.4-0.7,3.4
		c-0.5,1-1.1,1.9-1.9,2.7s-1.7,1.3-2.7,1.8c-1,0.4-2.1,0.6-3.2,0.6c-1.5,0-2.9-0.4-4.1-1.1c-1.3-0.7-2.3-1.7-3.1-2.9V745
		c0,0.5-0.2,0.7-0.6,0.7s-0.6-0.2-0.6-0.7V722.4z M223.1,729.5c0,1,0.3,1.9,0.7,2.8c0.4,0.9,0.9,1.6,1.6,2.2
		c0.7,0.6,1.4,1.1,2.3,1.4c0.8,0.3,1.7,0.5,2.7,0.5c0.9,0,1.8-0.2,2.7-0.5s1.6-0.8,2.3-1.4s1.2-1.4,1.7-2.3c0.4-0.9,0.6-1.9,0.6-3
		v-6.8c0-1.1-0.2-2.1-0.6-3c-0.4-0.9-0.9-1.6-1.6-2.3c-0.7-0.6-1.4-1.1-2.3-1.4c-0.9-0.3-1.8-0.5-2.7-0.5s-1.8,0.2-2.7,0.5
		c-0.9,0.3-1.6,0.8-2.3,1.5c-0.7,0.6-1.2,1.4-1.6,2.3s-0.6,1.9-0.6,2.9V729.5z"/>
	<path class="st1" d="M242.1,729.7V707c0-0.2,0.1-0.3,0.2-0.4c0.1-0.1,0.3-0.1,0.4-0.1c0.1,0,0.3,0,0.4,0.1c0.1,0.1,0.2,0.2,0.2,0.4
		v7.2H256c0.4,0,0.6,0.2,0.6,0.6c0,0.4-0.2,0.6-0.6,0.6h-12.6v14.3c0,0.9,0.2,1.8,0.6,2.6c0.4,0.8,0.9,1.5,1.6,2.1
		c0.7,0.6,1.4,1.1,2.3,1.4c0.9,0.3,1.8,0.5,2.8,0.5c0.7,0,1.4-0.1,2.1-0.4c0.7-0.2,1.3-0.6,1.9-1c0.6-0.4,1.1-0.9,1.6-1.5
		c0.5-0.6,0.8-1.2,1.1-1.8c0.1-0.1,0.1-0.3,0.2-0.4c0.1-0.1,0.2-0.2,0.4-0.2c0.3,0,0.4,0.1,0.5,0.2c0.1,0.2,0.1,0.4,0,0.6
		c-0.5,1.3-1.2,2.3-2,3c-0.8,0.7-1.6,1.3-2.4,1.7c-0.8,0.4-1.6,0.6-2.2,0.7c-0.7,0.1-1.1,0.1-1.3,0.1c-1.1,0-2.2-0.2-3.2-0.6
		c-1-0.4-1.9-0.9-2.7-1.6c-0.8-0.7-1.4-1.5-1.9-2.5C242.4,731.9,242.2,730.9,242.1,729.7z"/>
	<path class="st1" d="M260.5,708v-1.5c0-0.4,0.2-0.7,0.6-0.7c0.4,0,0.7,0.2,0.7,0.7v1.5v0.1c0,0.4-0.2,0.6-0.7,0.6
		C260.7,708.7,260.5,708.5,260.5,708z M260.5,714.8c0-0.4,0.2-0.7,0.6-0.7c0.4,0,0.7,0.2,0.7,0.7v22c0,0.4-0.2,0.6-0.7,0.6
		c-0.4,0-0.6-0.2-0.6-0.6V714.8z"/>
	<path class="st1" d="M279.8,736.8c0,0.4-0.2,0.6-0.7,0.6c-0.4,0-0.6-0.2-0.6-0.6v-14.4c0-1-0.2-2-0.5-2.9c-0.3-0.9-0.7-1.7-1.3-2.3
		c-0.5-0.6-1.2-1.1-2-1.5c-0.8-0.4-1.6-0.5-2.5-0.5c-1,0-1.8,0.2-2.6,0.5c-0.8,0.4-1.4,0.9-2,1.5c-0.5,0.6-0.9,1.4-1.2,2.3
		c-0.3,0.9-0.4,1.8-0.4,2.9v14.5c-0.1,0.4-0.3,0.6-0.7,0.6c-0.4,0-0.6-0.2-0.6-0.6v-14.4c0-1.2,0.2-2.3,0.5-3.4
		c0.3-1,0.8-1.9,1.5-2.7c0.7-0.8,1.4-1.3,2.4-1.8c0.9-0.4,1.9-0.6,3.1-0.6c1.7,0,3.1,0.4,4.3,1.3c1.2,0.9,2.1,2.1,2.6,3.6
		c0.5-1.5,1.4-2.7,2.6-3.6c1.2-0.9,2.6-1.3,4.3-1.3c1.1,0,2.2,0.2,3.1,0.6c0.9,0.4,1.7,1,2.4,1.8c0.7,0.8,1.2,1.6,1.5,2.7
		c0.3,1,0.5,2.2,0.5,3.4v14.4c0,0.4-0.2,0.6-0.6,0.6c-0.4,0-0.6-0.2-0.7-0.6v-14.5c0-1-0.1-2-0.4-2.9c-0.3-0.9-0.7-1.6-1.2-2.3
		c-0.5-0.6-1.2-1.1-2-1.5c-0.8-0.4-1.6-0.5-2.6-0.5c-0.9,0-1.8,0.2-2.5,0.5c-0.8,0.4-1.4,0.9-2,1.5c-0.6,0.6-1,1.4-1.3,2.3
		c-0.3,0.9-0.5,1.9-0.5,2.9V736.8z"/>
	<path class="st1" d="M296,708v-1.5c0-0.4,0.2-0.7,0.6-0.7c0.4,0,0.7,0.2,0.7,0.7v1.5v0.1c0,0.4-0.2,0.6-0.7,0.6
		C296.2,708.7,296,708.5,296,708z M296,714.8c0-0.4,0.2-0.7,0.6-0.7c0.4,0,0.7,0.2,0.7,0.7v22c0,0.4-0.2,0.6-0.7,0.6
		c-0.4,0-0.6-0.2-0.6-0.6V714.8z"/>
	<path class="st1" d="M301.1,714.8c0-0.4,0.2-0.7,0.6-0.7h15.7c0.3,0,0.4,0.1,0.5,0.3c0.1,0.2,0,0.4-0.2,0.7L302,736.2h15.6
		c0.4,0,0.7,0.2,0.7,0.7c0,0.4-0.2,0.6-0.7,0.6H301c-0.2,0-0.4,0-0.7,0s-0.5-0.2-0.5-0.5c0-0.1,0.1-0.3,0.3-0.6
		c0.2-0.3,0.5-0.7,0.9-1.2c0.5-0.6,1.1-1.3,1.8-2.3c0.8-1,1.7-2.2,2.9-3.8c1.2-1.6,2.6-3.4,4.2-5.7c1.6-2.2,3.6-4.9,5.8-8h-14.1
		C301.3,715.4,301.1,715.2,301.1,714.8z"/>
	<path class="st1" d="M336.8,732.8c-0.3,0.7-0.8,1.3-1.3,1.9c-0.5,0.6-1.1,1.1-1.8,1.5c-0.7,0.4-1.4,0.8-2.1,1s-1.5,0.4-2.2,0.4
		c-1.3,0-2.5-0.2-3.6-0.6c-1.1-0.4-2-1-2.8-1.7s-1.4-1.6-1.8-2.6c-0.4-1-0.7-2-0.7-3.2V722c0-1.1,0.3-2.2,0.8-3.2
		c0.5-1,1.2-1.8,2-2.6s1.8-1.3,2.9-1.7s2.2-0.6,3.3-0.6s2.2,0.2,3.1,0.6c1,0.4,1.8,1,2.6,1.7c0.7,0.7,1.3,1.6,1.7,2.6s0.6,2,0.6,3.2
		v3.8c0,0.4-0.2,0.7-0.6,0.7h-15.1v3.1c0,0.9,0.2,1.8,0.6,2.6c0.4,0.8,0.9,1.6,1.6,2.2c0.7,0.6,1.5,1.1,2.4,1.5
		c0.9,0.4,2,0.5,3.1,0.5c1.3,0,2.5-0.4,3.7-1.2c1.1-0.8,2.1-1.9,2.8-3.3c0.1-0.2,0.3-0.2,0.5-0.2s0.4,0.1,0.5,0.2
		c0.1,0.2,0.2,0.3,0.1,0.5C336.9,732.5,336.9,732.7,336.8,732.8z M321.7,725.2h14.5V722c0-0.9-0.2-1.8-0.6-2.6
		c-0.4-0.8-0.9-1.6-1.5-2.2c-0.6-0.6-1.3-1.1-2.2-1.5c-0.8-0.4-1.7-0.5-2.6-0.5c-1,0-1.9,0.2-2.8,0.5c-0.9,0.4-1.7,0.9-2.4,1.5
		c-0.7,0.6-1.3,1.4-1.7,2.2c-0.4,0.8-0.7,1.7-0.7,2.6V725.2z"/>
	<path class="st1" d="M369.5,732.8c-0.3,0.7-0.8,1.3-1.3,1.9c-0.5,0.6-1.1,1.1-1.8,1.5c-0.7,0.4-1.4,0.8-2.1,1s-1.5,0.4-2.2,0.4
		c-1.3,0-2.5-0.2-3.6-0.6c-1.1-0.4-2-1-2.8-1.7s-1.4-1.6-1.8-2.6c-0.4-1-0.7-2-0.7-3.2V722c0-1.1,0.3-2.2,0.8-3.2
		c0.5-1,1.2-1.8,2-2.6s1.8-1.3,2.9-1.7s2.2-0.6,3.3-0.6s2.2,0.2,3.1,0.6c1,0.4,1.8,1,2.6,1.7c0.7,0.7,1.3,1.6,1.7,2.6s0.6,2,0.6,3.2
		v3.8c0,0.4-0.2,0.7-0.6,0.7h-15.1v3.1c0,0.9,0.2,1.8,0.6,2.6c0.4,0.8,0.9,1.6,1.6,2.2c0.7,0.6,1.5,1.1,2.4,1.5
		c0.9,0.4,2,0.5,3.1,0.5c1.3,0,2.5-0.4,3.7-1.2c1.1-0.8,2.1-1.9,2.8-3.3c0.1-0.2,0.3-0.2,0.5-0.2s0.4,0.1,0.5,0.2
		c0.1,0.2,0.2,0.3,0.1,0.5C369.6,732.5,369.6,732.7,369.5,732.8z M354.4,725.2h14.5V722c0-0.9-0.2-1.8-0.6-2.6
		c-0.4-0.8-0.9-1.6-1.5-2.2c-0.6-0.6-1.3-1.1-2.2-1.5c-0.8-0.4-1.7-0.5-2.6-0.5c-1,0-1.9,0.2-2.8,0.5c-0.9,0.4-1.7,0.9-2.4,1.5
		c-0.7,0.6-1.3,1.4-1.7,2.2c-0.4,0.8-0.7,1.7-0.7,2.6V725.2z"/>
	<path class="st1" d="M380.7,737.3l-9.6-22.3c-0.2-0.4,0-0.7,0.4-0.8c0.3-0.1,0.6,0,0.8,0.5l9.1,21.1l9.1-21.1
		c0.2-0.4,0.5-0.6,0.8-0.5c0.4,0.1,0.5,0.4,0.4,0.8l-9.6,22.3c-0.1,0.3-0.3,0.4-0.7,0.4C381.1,737.6,380.9,737.5,380.7,737.3z"/>
	<path class="st1" d="M408.6,732.8c-0.3,0.7-0.8,1.3-1.3,1.9c-0.5,0.6-1.1,1.1-1.8,1.5c-0.7,0.4-1.4,0.8-2.1,1s-1.5,0.4-2.2,0.4
		c-1.3,0-2.5-0.2-3.6-0.6c-1.1-0.4-2-1-2.8-1.7s-1.4-1.6-1.8-2.6c-0.4-1-0.7-2-0.7-3.2V722c0-1.1,0.3-2.2,0.8-3.2
		c0.5-1,1.2-1.8,2-2.6s1.8-1.3,2.9-1.7s2.2-0.6,3.3-0.6s2.2,0.2,3.1,0.6c1,0.4,1.8,1,2.6,1.7c0.7,0.7,1.3,1.6,1.7,2.6s0.6,2,0.6,3.2
		v3.8c0,0.4-0.2,0.7-0.6,0.7h-15.1v3.1c0,0.9,0.2,1.8,0.6,2.6c0.4,0.8,0.9,1.6,1.6,2.2c0.7,0.6,1.5,1.1,2.4,1.5
		c0.9,0.4,2,0.5,3.1,0.5c1.3,0,2.5-0.4,3.7-1.2c1.1-0.8,2.1-1.9,2.8-3.3c0.1-0.2,0.3-0.2,0.5-0.2s0.4,0.1,0.5,0.2
		c0.1,0.2,0.2,0.3,0.1,0.5C408.7,732.5,408.7,732.7,408.6,732.8z M393.5,725.2H408V722c0-0.9-0.2-1.8-0.6-2.6
		c-0.4-0.8-0.9-1.6-1.5-2.2c-0.6-0.6-1.3-1.1-2.2-1.5c-0.8-0.4-1.7-0.5-2.6-0.5c-1,0-1.9,0.2-2.8,0.5c-0.9,0.4-1.7,0.9-2.4,1.5
		c-0.7,0.6-1.3,1.4-1.7,2.2c-0.4,0.8-0.7,1.7-0.7,2.6V725.2z"/>
	<path class="st1" d="M421.1,714c1.1,0.1,2,0.2,2.8,0.5s1.3,0.7,1.9,1.2c0.2,0.2,0.2,0.4,0.2,0.5c0,0.2-0.1,0.3-0.2,0.4
		c-0.1,0.1-0.2,0.1-0.4,0.1c-0.2,0-0.3-0.1-0.5-0.2c-0.4-0.4-0.9-0.8-1.6-0.9s-1.4-0.3-2.2-0.4c-0.9,0-1.8,0.2-2.7,0.5
		c-0.9,0.3-1.6,0.8-2.3,1.4s-1.2,1.3-1.6,2.2s-0.6,1.8-0.7,2.8v14.7c0,0.4-0.2,0.6-0.6,0.6c-0.4,0-0.7-0.2-0.7-0.6v-22
		c0-0.4,0.2-0.7,0.6-0.7c0.4,0,0.7,0.2,0.7,0.7v3.1c0.8-1.2,1.8-2.2,3.1-2.9C418.2,714.3,419.6,714,421.1,714z"/>
	<path class="st1" d="M435.4,737.6c-1.1-0.1-2.1-0.3-3.1-0.8c-1-0.5-1.8-1-2.5-1.8c-0.7-0.7-1.3-1.6-1.7-2.6c-0.4-1-0.6-2.1-0.6-3.2
		v-14.5c0-0.4,0.2-0.6,0.6-0.6c0.4,0,0.6,0.2,0.7,0.6v14.5c0,1,0.2,2,0.6,2.9c0.4,0.9,0.9,1.6,1.6,2.3c0.7,0.6,1.4,1.1,2.3,1.5
		c0.9,0.4,1.8,0.5,2.8,0.5c0.9,0,1.8-0.2,2.7-0.5c0.9-0.4,1.6-0.9,2.3-1.5c0.7-0.6,1.2-1.4,1.6-2.3c0.4-0.9,0.6-1.9,0.6-2.9v-14.4
		c0-0.4,0.2-0.6,0.6-0.6c0.4,0,0.7,0.2,0.7,0.6v14.5c0,1.2-0.2,2.2-0.6,3.2c-0.4,1-1,1.9-1.7,2.6s-1.6,1.4-2.5,1.8
		c-1,0.5-2,0.7-3,0.8v7.5c0,0.4-0.2,0.6-0.7,0.6c-0.4,0-0.6-0.2-0.6-0.6V737.6z"/>
	<path class="st1" d="M448,729.7V707c0-0.2,0.1-0.3,0.2-0.4c0.1-0.1,0.3-0.1,0.4-0.1c0.1,0,0.3,0,0.4,0.1c0.1,0.1,0.2,0.2,0.2,0.4
		v7.2h12.6c0.4,0,0.6,0.2,0.6,0.6c0,0.4-0.2,0.6-0.6,0.6h-12.6v14.3c0,0.9,0.2,1.8,0.6,2.6s0.9,1.5,1.6,2.1c0.7,0.6,1.4,1.1,2.3,1.4
		c0.9,0.3,1.8,0.5,2.8,0.5c0.7,0,1.4-0.1,2.1-0.4c0.7-0.2,1.3-0.6,1.9-1c0.6-0.4,1.1-0.9,1.6-1.5c0.5-0.6,0.8-1.2,1.1-1.8
		c0.1-0.1,0.1-0.3,0.2-0.4c0.1-0.1,0.2-0.2,0.4-0.2c0.3,0,0.4,0.1,0.5,0.2c0.1,0.2,0.1,0.4,0,0.6c-0.5,1.3-1.2,2.3-2,3
		c-0.8,0.7-1.6,1.3-2.4,1.7c-0.8,0.4-1.6,0.6-2.2,0.7s-1.1,0.1-1.3,0.1c-1.1,0-2.2-0.2-3.2-0.6c-1-0.4-1.9-0.9-2.7-1.6
		c-0.8-0.7-1.4-1.5-1.9-2.5C448.3,731.9,448,730.9,448,729.7z"/>
	<path class="st1" d="M466.3,736.8v-30.3c0-0.4,0.2-0.7,0.6-0.7c0.4,0,0.7,0.2,0.7,0.7V718c0.8-1.2,1.8-2.2,3.1-2.9
		c1.3-0.7,2.7-1.1,4.2-1.1c1.1,0,2.2,0.2,3.2,0.6c1,0.4,1.9,1,2.7,1.8c0.8,0.8,1.4,1.6,1.9,2.7c0.5,1,0.7,2.2,0.7,3.4v14.4
		c0,0.4-0.2,0.6-0.7,0.6c-0.4,0-0.6-0.2-0.6-0.6v-14.4c0-1-0.2-2-0.6-2.9c-0.4-0.9-1-1.7-1.6-2.3c-0.7-0.6-1.5-1.1-2.3-1.5
		c-0.9-0.4-1.7-0.5-2.7-0.5c-0.9,0-1.8,0.2-2.7,0.5c-0.9,0.3-1.6,0.8-2.3,1.4s-1.2,1.3-1.6,2.2s-0.6,1.8-0.7,2.8v14.7
		c0,0.4-0.2,0.7-0.7,0.7C466.5,737.5,466.3,737.2,466.3,736.8z"/>
	<path class="st1" d="M486.9,708v-1.5c0-0.4,0.2-0.7,0.6-0.7c0.4,0,0.7,0.2,0.7,0.7v1.5v0.1c0,0.4-0.2,0.6-0.7,0.6
		C487.1,708.7,486.9,708.5,486.9,708z M486.9,714.8c0-0.4,0.2-0.7,0.6-0.7c0.4,0,0.7,0.2,0.7,0.7v22c0,0.4-0.2,0.6-0.7,0.6
		c-0.4,0-0.6-0.2-0.6-0.6V714.8z"/>
	<path class="st1" d="M506.9,736.8v-14.4c0-1-0.2-2-0.6-2.9c-0.4-0.9-1-1.7-1.6-2.3c-0.7-0.6-1.5-1.1-2.3-1.5
		c-0.9-0.4-1.7-0.5-2.7-0.5c-1,0-1.9,0.2-2.8,0.5c-0.9,0.4-1.6,0.9-2.3,1.5c-0.7,0.6-1.2,1.4-1.6,2.3c-0.4,0.9-0.6,1.8-0.6,2.9v14.5
		c-0.1,0.4-0.3,0.6-0.7,0.6c-0.4,0-0.6-0.2-0.6-0.6v-14.4c0-1.2,0.2-2.3,0.7-3.4c0.5-1,1.1-1.9,1.9-2.7s1.7-1.3,2.7-1.8
		c1-0.4,2.1-0.6,3.2-0.6s2.2,0.2,3.2,0.6c1,0.4,1.9,1,2.7,1.8s1.4,1.6,1.9,2.7c0.5,1,0.7,2.2,0.7,3.4v14.4c0,0.4-0.2,0.6-0.7,0.6
		C507.1,737.5,506.9,737.3,506.9,736.8z"/>
	<path class="st1" d="M519.5,745.2c-0.1-0.4,0.1-0.7,0.6-0.7c0.9,0,1.8-0.2,2.7-0.6c0.9-0.4,1.6-0.9,2.3-1.6
		c0.7-0.6,1.2-1.4,1.6-2.2c0.4-0.8,0.6-1.7,0.7-2.6v-3.7c-0.8,1.2-1.8,2.1-3.1,2.8s-2.6,1.1-4.1,1.1c-1.1,0-2.2-0.2-3.3-0.7
		c-1-0.5-2-1.1-2.7-1.8c-0.8-0.8-1.4-1.7-1.9-2.7c-0.5-1-0.7-2.1-0.6-3.3v-6.8c0-1.2,0.2-2.3,0.6-3.3c0.5-1,1.1-1.9,1.9-2.7
		c0.8-0.8,1.7-1.4,2.7-1.8c1-0.4,2.1-0.7,3.3-0.7s2.2,0.2,3.2,0.6c1,0.4,1.9,1,2.7,1.8s1.4,1.6,1.9,2.7c0.5,1,0.7,2.2,0.7,3.4v6.8
		v2.8v5.5c0,1.1-0.2,2.2-0.7,3.2c-0.4,1-1,1.9-1.8,2.6s-1.7,1.3-2.7,1.8c-1,0.4-2.2,0.7-3.3,0.7
		C519.7,745.7,519.5,745.5,519.5,745.2z M512.9,729.2c0,1.1,0.2,2,0.6,2.9c0.4,0.9,0.9,1.6,1.6,2.3c0.7,0.6,1.4,1.1,2.3,1.5
		c0.9,0.3,1.8,0.5,2.7,0.5c0.9,0,1.8-0.2,2.6-0.5c0.8-0.3,1.6-0.8,2.3-1.4c0.7-0.6,1.2-1.3,1.6-2.2c0.4-0.8,0.6-1.8,0.7-2.8v-7.1
		c0-1.1-0.2-2.1-0.6-3c-0.4-0.9-1-1.7-1.6-2.3s-1.4-1.1-2.3-1.4c-0.9-0.3-1.8-0.5-2.7-0.5c-1,0-1.9,0.2-2.8,0.5
		c-0.9,0.3-1.6,0.8-2.3,1.5c-0.7,0.6-1.2,1.4-1.6,2.3c-0.4,0.9-0.6,1.8-0.6,2.9V729.2z"/>
	<path class="st1" d="M531.7,736.4c0-0.3,0.1-0.6,0.3-0.8c0.2-0.2,0.5-0.3,0.8-0.3s0.6,0.1,0.8,0.3c0.2,0.2,0.3,0.5,0.3,0.8
		c0,0.3-0.1,0.6-0.3,0.8c-0.2,0.2-0.5,0.3-0.8,0.3s-0.6-0.1-0.8-0.3C531.8,737,531.7,736.7,531.7,736.4z"/>
</g>
<g>
	<g id="Layer_2_2_">
		<circle class="st6" cx="534.7" cy="551.8" r="10"/>
		<circle class="st6" cx="564.7" cy="561.8" r="20"/>
		<circle class="st6" cx="554.7" cy="611.8" r="30"/>
		<circle class="st6" cx="474.7" cy="591.8" r="50"/>
		<circle class="st6" cx="504.7" cy="461.8" r="80"/>
		<path class="st7" d="M724.6,544.3v-36.5c0-10.8-8.2-20-19-20.8c-4.4-0.3-8.6,0.7-12.1,2.8c-6,3.6-10.1,10.2-10.1,17.7v37.9"/>
		<path class="st7" d="M790.6,487.1v38.9c0,10.7,8.1,19.9,18.7,20.8c12.2,1.1,22.5-8.5,22.5-20.5v-39.1"/>
		<path class="st7" d="M757.6,487c-11.4,0-20.6,9.2-20.6,20.6c0-12,10.2-21.5,22.5-20.5c10.7,0.9,18.7,10.1,18.7,20.8v8.4H737v-8.7
			v8.6v10.2c0,10.6,8.3,19.6,18.9,20.1c8.9,0.4,17.5-4.9,20.7-12.5"/>
		<path class="st7" d="M883.8,499.9c-3.1-7.4-11.2-13-19.7-13c-11.4,0-19.8,9.2-19.8,20.6v9.8l0,28.2"/>
		<path class="st7" d="M1014.2,544.3v-36.5c0-10.8-8.2-20-19-20.8c-4.4-0.3-8.6,0.7-12.1,2.8c-6,3.6-10.1,10.2-10.1,17.7v37.9"/>
		<path class="st7" d="M1080.6,487.1v38.9c0,10.7,8.1,19.9,18.7,20.8c12.2,1.1,22.5-8.5,22.5-20.5v-39.1"/>
		<path class="st7" d="M1173.4,534.2c-3.1,7.5-11.3,12.6-19.9,12.6c-10.9-0.1-19.6-9.2-19.6-20.1v-10.2l0-29.3"/>
		<line class="st7" x1="1133.8" y1="515.5" x2="1173.4" y2="515.5"/>
		<g>
			<path class="st8" d="M1067.8,507.6v8.6h-41.2v-8.6c0-11.4,9.2-20.6,20.6-20.6C1058.6,487,1067.8,496.2,1067.8,507.6z"/>
			<polygon class="st9" points="1026.7,507.7 1026.7,516.4 1026.7,516.4 			"/>
			<line class="st7" x1="1026.6" y1="545.5" x2="1026.6" y2="516.3"/>
			<path class="st7" d="M1067.8,516.4v29V516.4z"/>
		</g>
		<polyline class="st10" points="903,523.1 903,533.1 929.1,548.1 955,533.1 955,503.1 929.1,488.1 903,503.1 903,523.1 		"/>
	</g>
	<line class="st7" x1="929" y1="517.1" x2="857.4" y2="517.1"/>
	<g>
		<path class="st11" d="M852.7,577.5c0-0.2,0.1-0.3,0.3-0.3c0.2,0,0.3,0.1,0.4,0.3c0.2,0.4,0.5,0.9,0.8,1.3c0.3,0.4,0.7,0.8,1.2,1.1
			s0.9,0.6,1.5,0.7c0.6,0.2,1.2,0.3,1.9,0.3c0.6,0,1.3-0.1,1.9-0.2c0.6-0.2,1.2-0.4,1.8-0.7c0.5-0.3,1-0.8,1.3-1.3
			c0.3-0.6,0.5-1.2,0.5-2c0-0.8-0.2-1.4-0.4-2c-0.3-0.6-0.7-1-1.2-1.4c-0.5-0.4-1.1-0.7-1.7-0.9c-0.6-0.2-1.4-0.3-2.1-0.3
			c-0.8,0-1.4,0-2.1-0.2c-0.7-0.1-1.2-0.3-1.7-0.6c-0.5-0.3-0.9-0.7-1.2-1.2c-0.3-0.5-0.4-1.2-0.4-2.1c0-1.4,0.5-2.5,1.5-3.3
			c1-0.8,2.3-1.2,4-1.2c1,0,2,0.3,2.9,0.7c0.9,0.4,1.6,1.1,2.1,2c0,0,0,0.1,0,0.2c0,0.2-0.1,0.3-0.4,0.3c-0.1,0-0.2-0.1-0.3-0.2
			c-0.4-0.7-1-1.2-1.8-1.6c-0.7-0.4-1.6-0.6-2.6-0.6c-0.8,0-1.6,0.1-2.2,0.3c-0.6,0.2-1.1,0.5-1.5,0.8c-0.4,0.4-0.7,0.8-0.8,1.2
			c-0.2,0.4-0.3,0.9-0.3,1.4c0,0.7,0.1,1.2,0.3,1.7c0.2,0.4,0.5,0.8,0.9,1c0.4,0.2,0.9,0.4,1.5,0.5c0.6,0.1,1.2,0.2,2,0.2
			c0.8,0,1.6,0.1,2.4,0.4c0.8,0.2,1.4,0.6,2,1c0.6,0.4,1,1,1.3,1.6c0.3,0.6,0.5,1.4,0.5,2.2c0,0.8-0.2,1.6-0.5,2.2
			c-0.3,0.6-0.8,1.2-1.3,1.6c-0.6,0.4-1.2,0.7-2,1c-0.8,0.2-1.6,0.3-2.4,0.3c-0.2,0-0.5,0-1-0.1c-0.5-0.1-1-0.2-1.6-0.5
			c-0.6-0.2-1.2-0.6-1.8-1.1c-0.6-0.5-1.1-1.2-1.6-2.1C852.7,577.6,852.7,577.5,852.7,577.5z"/>
		<path class="st11" d="M872.8,569.3c0-0.8,0.2-1.6,0.5-2.3s0.7-1.4,1.3-1.9c0.5-0.5,1.2-1,1.9-1.3c0.7-0.3,1.5-0.5,2.4-0.5
			c0.8,0,1.6,0.2,2.3,0.5c0.7,0.3,1.4,0.7,1.9,1.3c0.5,0.5,1,1.2,1.3,1.9s0.5,1.5,0.5,2.3v6c0,0.8-0.2,1.7-0.5,2.4
			c-0.3,0.8-0.8,1.4-1.3,2c-0.6,0.6-1.2,1-2,1.3s-1.6,0.5-2.4,0.5s-1.7-0.2-2.4-0.5c-0.8-0.3-1.4-0.8-2-1.3c-0.6-0.6-1-1.2-1.3-2
			c-0.3-0.8-0.5-1.6-0.5-2.4L872.8,569.3L872.8,569.3z M873.6,575.4c0,0.7,0.2,1.4,0.4,2s0.7,1.2,1.2,1.6c0.5,0.5,1,0.9,1.7,1.1
			c0.7,0.3,1.5,0.4,2.3,0.4c0.5,0,1-0.2,1.5-0.3c0.7-0.3,1.3-0.7,1.8-1.2c0.5-0.5,0.9-1,1.1-1.6s0.4-1.3,0.4-2v-5.9
			c0-0.8-0.2-1.4-0.4-2.1c-0.3-0.6-0.7-1.2-1.2-1.7c-0.5-0.5-1.1-0.9-1.7-1.2c-0.6-0.3-1.3-0.4-2-0.4c-0.7,0-1.4,0.1-2.1,0.4
			s-1.2,0.6-1.7,1.1c-0.5,0.5-0.9,1-1.2,1.7c-0.3,0.6-0.4,1.4-0.4,2.1L873.6,575.4L873.6,575.4z"/>
		<path class="st11" d="M892,564.1c0-0.2,0.1-0.4,0.3-0.4s0.4,0.1,0.5,0.4v16h10.6c0.2,0.2,0.4,0.4,0.4,0.6s-0.1,0.4-0.4,0.2h-11h0
			h0c-0.2,0.1-0.3,0-0.3-0.2L892,564.1L892,564.1z"/>
		<path class="st11" d="M910.8,564.1c-0.1-0.2,0-0.3,0.2-0.3c0.2,0,0.6,0.3,0.6,0.3v11.2c0,0.7,0.2,1.4,0.4,2
			c0.3,0.6,0.7,1.2,1.2,1.7c0.5,0.5,1.1,0.9,1.7,1.2c0.6,0.3,1.3,0.4,2.1,0.4c0.7,0,1.4-0.2,2-0.4c0.6-0.3,1.2-0.7,1.7-1.2
			c0.5-0.5,0.9-1.1,1.2-1.7c0.3-0.6,0.4-1.3,0.4-2v-11.2c0,0,0.1-0.3,0.3-0.3c0.2,0,0.5,0.3,0.5,0.3v11.1c0,0.8-0.2,1.6-0.5,2.4
			c-0.3,0.8-0.8,1.4-1.4,2s-1.2,1-2,1.4c-0.8,0.3-1.5,0.5-2.4,0.5s-1.6-0.2-2.4-0.5c-0.8-0.3-1.4-0.8-2-1.4s-1-1.2-1.4-2
			c-0.3-0.8-0.5-1.5-0.5-2.4L910.8,564.1L910.8,564.1z"/>
		<path class="st11" d="M935.2,564.5h-5.2c-0.2,0.1-0.4,0-0.4-0.2s0.1-0.4,0.4-0.6h5.6h5.6c0.2,0.2,0.3,0.4,0.3,0.6
			s-0.1,0.3-0.3,0.2H936v16.2c0,0.2-0.1,0.3-0.3,0.3s-0.3-0.1-0.5-0.3V564.5L935.2,564.5z"/>
		<path class="st11" d="M948.8,564.2c0-0.2,0.1-0.4,0.3-0.4c0.2,0,0.4,0.1,0.5,0.4v16.4c-0.1,0.2-0.2,0.3-0.5,0.3
			c-0.2,0-0.3-0.1-0.3-0.3V564.2z"/>
		<path class="st11" d="M956.8,569.3c0-0.8,0.2-1.6,0.5-2.3s0.7-1.4,1.3-1.9c0.5-0.5,1.2-1,1.9-1.3c0.7-0.3,1.5-0.5,2.4-0.5
			c0.8,0,1.6,0.2,2.3,0.5c0.7,0.3,1.4,0.7,1.9,1.3c0.5,0.5,1,1.2,1.3,1.9s0.5,1.5,0.5,2.3v6c0,0.8-0.2,1.7-0.5,2.4
			c-0.3,0.8-0.8,1.4-1.3,2c-0.6,0.6-1.2,1-2,1.3s-1.6,0.5-2.4,0.5s-1.7-0.2-2.4-0.5c-0.8-0.3-1.4-0.8-2-1.3c-0.6-0.6-1-1.2-1.3-2
			c-0.3-0.8-0.5-1.6-0.5-2.4L956.8,569.3L956.8,569.3z M957.6,575.4c0,0.7,0.2,1.4,0.4,2s0.7,1.2,1.2,1.6c0.5,0.5,1,0.9,1.7,1.1
			c0.7,0.3,1.5,0.4,2.3,0.4c0.5,0,1-0.2,1.5-0.3c0.7-0.3,1.3-0.7,1.8-1.2c0.5-0.5,0.9-1,1.1-1.6s0.4-1.3,0.4-2v-5.9
			c0-0.8-0.2-1.4-0.4-2.1c-0.3-0.6-0.7-1.2-1.2-1.7c-0.5-0.5-1.1-0.9-1.7-1.2c-0.6-0.3-1.3-0.4-2-0.4c-0.7,0-1.4,0.1-2.1,0.4
			s-1.2,0.6-1.7,1.1c-0.5,0.5-0.9,1-1.2,1.7c-0.3,0.6-0.4,1.4-0.4,2.1L957.6,575.4L957.6,575.4z"/>
		<path class="st11" d="M975.6,569.9c0-0.8,0.2-1.6,0.5-2.4c0.3-0.8,0.8-1.4,1.4-2s1.2-1,2-1.4c0.8-0.3,1.5-0.5,2.4-0.5
			c0.8,0,1.6,0.2,2.4,0.5c0.8,0.3,1.4,0.8,2,1.4s1,1.2,1.4,2s0.5,1.5,0.5,2.4v10.7c0,0-0.1,0.3-0.3,0.3s-0.5-0.3-0.5-0.3v-10.8
			c0-0.7-0.2-1.4-0.4-2c-0.3-0.6-0.7-1.2-1.2-1.7c-0.5-0.5-1.1-0.9-1.7-1.2c-0.6-0.3-1.3-0.4-2-0.4c-0.7,0-1.4,0.2-2.1,0.4
			c-0.6,0.3-1.2,0.7-1.7,1.2c-0.5,0.5-0.9,1.1-1.2,1.7c-0.3,0.6-0.4,1.3-0.4,2v10.8c0,0-0.2,0.3-0.4,0.3c-0.2,0-0.4-0.3-0.4-0.3
			L975.6,569.9L975.6,569.9z"/>
		<path class="st11" d="M995,577.5c0-0.2,0.1-0.3,0.3-0.3c0.2,0,0.3,0.1,0.4,0.3c0.2,0.4,0.5,0.9,0.8,1.3c0.3,0.4,0.7,0.8,1.2,1.1
			s0.9,0.6,1.5,0.7c0.6,0.2,1.2,0.3,1.9,0.3c0.6,0,1.3-0.1,1.9-0.2c0.6-0.2,1.2-0.4,1.8-0.7c0.5-0.3,1-0.8,1.3-1.3
			c0.3-0.6,0.5-1.2,0.5-2c0-0.8-0.2-1.4-0.4-2c-0.3-0.6-0.7-1-1.2-1.4s-1.1-0.7-1.7-0.9c-0.6-0.2-1.4-0.3-2.1-0.3
			c-0.8,0-1.4,0-2.1-0.2s-1.2-0.3-1.7-0.6c-0.5-0.3-0.9-0.7-1.2-1.2c-0.3-0.5-0.4-1.2-0.4-2.1c0-1.4,0.5-2.5,1.5-3.3
			c1-0.8,2.3-1.2,4-1.2c1,0,2,0.3,2.9,0.7c0.9,0.4,1.6,1.1,2.1,2c0,0,0,0.1,0,0.2c0,0.2-0.1,0.3-0.4,0.3c-0.1,0-0.2-0.1-0.3-0.2
			c-0.4-0.7-1-1.2-1.8-1.6c-0.7-0.4-1.6-0.6-2.6-0.6c-0.8,0-1.6,0.1-2.2,0.3c-0.6,0.2-1.1,0.5-1.5,0.8c-0.4,0.4-0.7,0.8-0.8,1.2
			c-0.2,0.4-0.3,0.9-0.3,1.4c0,0.7,0.1,1.2,0.3,1.7s0.5,0.8,0.9,1c0.4,0.2,0.9,0.4,1.5,0.5c0.6,0.1,1.2,0.2,2,0.2
			c0.8,0,1.6,0.1,2.4,0.4c0.8,0.2,1.4,0.6,2,1s1,1,1.3,1.6c0.3,0.6,0.5,1.4,0.5,2.2c0,0.8-0.2,1.6-0.5,2.2c-0.3,0.6-0.8,1.2-1.3,1.6
			s-1.2,0.7-2,1c-0.8,0.2-1.6,0.3-2.4,0.3c-0.2,0-0.5,0-1-0.1c-0.5-0.1-1-0.2-1.6-0.5c-0.6-0.2-1.2-0.6-1.8-1.1
			c-0.6-0.5-1.1-1.2-1.6-2.1C995,577.6,995,577.5,995,577.5z"/>
	</g>
</g>
<line class="st0" x1="161.5" y1="212.5" x2="61.5" y2="83.5"/>
<line class="st0" x1="61.5" y1="83.5" x2="149.5" y2="83.5"/>
<line class="st0" x1="291.5" y1="159.5" x2="291.5" y2="159.5"/>
<g>
</g>
<g>
</g>
<g>
</g>
<g>
</g>
<g>
</g>
<g>
</g>
<g>
</g>
<g>
</g>
<g>
</g>
<g>
</g>
<g>
</g>
<g>
</g>
<g>
</g>
<g>
</g>
<g>
</g>
</svg>
