<?xml version="1.0" encoding="utf-8"?>
<!-- Generator: Adobe Illustrator 21.0.0, SVG Export Plug-In . SVG Version: 6.00 Build 0)  -->
<svg version="1.1" id="Layer_1" xmlns="http://www.w3.org/2000/svg" xmlns:xlink="http://www.w3.org/1999/xlink" x="0px" y="0px"
	 viewBox="0 0 1366 841.6" style="enable-background:new 0 0 1366 841.6;" xml:space="preserve">
<style type="text/css">
	.st0{fill:none;stroke:#008CC4;stroke-width:3.0665;stroke-miterlimit:10;}
	.st1{fill:none;stroke:#008CC4;stroke-width:3;stroke-miterlimit:10;}
	.st2{fill:#008CC4;}
	.st3{fill:#1FB6E5;}
	.st4{fill:none;stroke:#008CC4;stroke-width:3.0344;stroke-miterlimit:10;}
	.st5{fill:none;stroke:#728287;stroke-miterlimit:10;}
	.st6{fill:none;}
	.st7{display:none;fill:#008CC4;}
	.st8{fill:none;stroke:#008CC4;stroke-width:4.8;stroke-linecap:round;stroke-linejoin:round;stroke-miterlimit:10;}
	.st9{fill:none;stroke:#008CC4;stroke-width:4.8;stroke-miterlimit:10;}
	.st10{display:none;fill:none;stroke:#008CC4;stroke-width:4.8;stroke-linecap:round;stroke-linejoin:round;stroke-miterlimit:10;}
	.st11{fill:none;stroke:#008CC4;stroke-width:4.8;stroke-linejoin:round;stroke-miterlimit:10;}
	.st12{fill:none;stroke:#008CC4;stroke-width:4.5381;stroke-linecap:round;stroke-linejoin:round;stroke-miterlimit:10;}
	.st13{fill:#008CC4;stroke:#008CC4;stroke-width:0.4;stroke-miterlimit:10;}
	.st14{opacity:0.76;fill:#768084;}
	.st15{opacity:0.84;fill:#768084;}
</style>
<line class="st0" x1="1106.3" y1="646.7" x2="1251" y2="443"/>
<polygon class="st1" points="1041.4,145.5 963.3,145.5 924.3,213.1 963.3,280.8 1041.4,280.8 1080.5,213.1 "/>
<polygon class="st1" points="277.8,110.5 161.2,110.5 102.9,211.5 161.2,312.5 277.8,312.5 336.1,211.5 "/>
<g>
	<polygon class="st2" points="266.6,130 172.4,130 125.4,211.5 172.4,293 266.6,293 313.6,211.5 	"/>
</g>
<polygon class="st2" points="472.6,465.7 422.1,436.7 422,378.5 472.4,349.3 522.9,378.3 523,436.5 "/>
<polygon class="st3" points="210.6,223.8 133.9,223.8 95.5,290.3 133.9,356.7 210.6,356.7 249,290.3 "/>
<polygon class="st3" points="515.3,180 479.2,180 461.2,211.3 479.2,242.5 515.3,242.5 533.4,211.3 "/>
<polygon class="st3" points="533.9,356 506.1,356 492.3,380 506.1,404 533.9,404 547.7,380 "/>
<polygon class="st2" points="472,263.4 454,252.9 454.1,232 472.2,221.6 490.3,232.2 490.2,253 "/>
<polygon class="st3" points="957.3,668.6 1057.2,612.4 1155.9,670.7 1154.7,785.4 1054.8,841.6 956.1,783.3 "/>
<polygon class="st2" points="1032.8,623.3 957.9,579 882.1,621.7 881.2,708.7 956.1,753 1031.9,710.3 "/>
<polygon class="st3" points="1068.7,94 1013.3,94 985.6,142 1013.3,190 1068.7,190 1096.4,142 "/>
<polygon class="st2" points="1025,169.8 1008.9,142 1025,114.2 1057,114.2 1073.1,142 1057,169.8 "/>
<polygon class="st1" points="902,690.3 852.6,662.3 852.1,605.5 901,576.7 950.4,604.7 950.9,661.5 "/>
<polygon class="st1" points="448.2,463.7 411.5,484.8 374.8,463.7 374.8,421.3 411.5,400.2 448.2,421.3 "/>
<g>
	<title>Asset 1</title>
	<g id="Layer_2_1_">
		<g id="Layer_1-2_1_">
			<g id="Layer_2-2_1_">
				<path class="st2" d="M1274.7,444c-8.9,12.9-42-9.9-33-22.7c34.5-50.1,55.8-62.3,63.6-56.9C1313,369.6,1309.2,394,1274.7,444z"/>
				<path class="st2" d="M1242.8,424.5l-22.4-3.7c3.5-15.2,24.8-9.2,33-15.9L1242.8,424.5z"/>
				<path class="st2" d="M1271.4,444.1l11.5,19.7c13-8.7-0.3-26.4,3.1-36.5L1271.4,444.1z"/>
			</g>
		</g>
	</g>
</g>
<g>
	<g>
		<path class="st2" d="M131.7,355.6c-16.3,28.2-32.6,56.4-48.8,84.6C57.1,484.8,31.3,529.4,5.6,574c-5.9,10.3-11.9,20.6-17.8,30.9
			c-1,1.7,1.6,3.2,2.6,1.5C6.7,578.2,23,550,39.2,521.8c25.7-44.6,51.5-89.2,77.2-133.8c5.9-10.3,11.9-20.6,17.8-30.9
			C135.2,355.5,132.6,354,131.7,355.6L131.7,355.6z"/>
	</g>
</g>
<line class="st1" x1="336.5" y1="212" x2="462" y2="212"/>
<line class="st1" x1="472" y1="263" x2="472" y2="350"/>
<line class="st4" x1="852" y1="606" x2="520" y2="434.7"/>
<polygon class="st5" points="249.7,498 219.5,515.4 189.3,498 189.3,463 219.5,445.6 249.7,463 "/>
<polygon class="st5" points="632.3,678 588.7,652.6 588.9,602.1 632.7,577 676.3,602.4 676.1,652.9 "/>
<polygon class="st5" points="732.3,122.5 709.7,122.5 698.5,142 709.7,161.5 732.3,161.5 743.5,142 "/>
<polygon class="st5" points="1258.4,230.9 1225.2,249.7 1192.3,230.3 1192.6,192.1 1225.8,173.3 1258.7,192.7 "/>
<polygon class="st5" points="120.4,672 103,682.1 85.6,672 85.6,652 103,641.9 120.4,652 "/>
<polygon class="st5" points="1258.3,590.5 1238.7,590.5 1228.9,607.5 1238.7,624.5 1258.3,624.5 1268.1,607.5 "/>
<polygon class="st5" points="88.3,35.5 57.7,35.5 42.4,62 57.7,88.5 88.3,88.5 103.6,62 "/>
<g>
	<rect x="200" y="603.9" class="st6" width="354" height="92.1"/>
	<path class="st2" d="M201.5,620.4c0-1.2,0.2-2.3,0.6-3.3c0.5-1,1.1-1.9,1.9-2.7c0.8-0.8,1.7-1.4,2.7-1.8c1-0.4,2.1-0.7,3.3-0.7
		s2.2,0.2,3.2,0.6c1,0.4,1.9,1,2.7,1.8s1.4,1.6,1.9,2.7c0.5,1,0.7,2.2,0.7,3.4v6.8c0,1.2-0.2,2.3-0.6,3.3c-0.5,1-1.1,1.9-1.9,2.7
		s-1.7,1.4-2.7,1.8c-1,0.4-2.1,0.7-3.2,0.7s-2.2-0.2-3.3-0.7c-1-0.5-2-1.1-2.7-1.8c-0.8-0.8-1.4-1.7-1.9-2.7s-0.7-2.1-0.6-3.3
		L201.5,620.4L201.5,620.4z M202.8,627.2c0,1.1,0.2,2,0.6,2.9c0.4,0.9,0.9,1.6,1.6,2.3c0.7,0.6,1.4,1.1,2.3,1.5s1.8,0.5,2.7,0.5
		s1.8-0.2,2.7-0.5s1.6-0.8,2.3-1.4c0.7-0.6,1.2-1.4,1.6-2.3c0.4-0.9,0.6-1.9,0.6-3v-6.8c0-1.1-0.2-2.1-0.6-3c-0.4-0.9-1-1.7-1.6-2.3
		c-0.7-0.6-1.4-1.1-2.3-1.4c-0.9-0.3-1.8-0.5-2.7-0.5c-1,0-1.9,0.2-2.8,0.5c-0.9,0.3-1.6,0.8-2.3,1.5c-0.7,0.6-1.2,1.4-1.6,2.3
		s-0.6,1.8-0.6,2.9v6.8H202.8z"/>
	<path class="st2" d="M221.8,620.4c0-1.2,0.2-2.2,0.6-3.3c0.5-1,1.1-1.9,1.9-2.7c0.8-0.8,1.7-1.4,2.7-1.8c1-0.5,2.1-0.7,3.3-0.7
		s2.2,0.2,3.2,0.7c1,0.4,2,1,2.7,1.8c0.8,0.8,1.4,1.7,1.9,2.7s0.7,2.1,0.6,3.3v6.8c0,1.2-0.2,2.4-0.7,3.4s-1.1,1.9-1.9,2.7
		s-1.7,1.3-2.7,1.8c-1,0.4-2.1,0.6-3.2,0.6c-1.5,0-2.9-0.4-4.1-1.1c-1.3-0.7-2.3-1.7-3.1-2.9V643c0,0.5-0.2,0.7-0.6,0.7
		s-0.6-0.2-0.6-0.7L221.8,620.4L221.8,620.4z M223.1,627.5c0,1,0.3,1.9,0.7,2.8c0.4,0.9,0.9,1.6,1.6,2.2c0.7,0.6,1.4,1.1,2.3,1.4
		c0.8,0.3,1.7,0.5,2.7,0.5c0.9,0,1.8-0.2,2.7-0.5s1.6-0.8,2.3-1.4s1.2-1.4,1.7-2.3c0.4-0.9,0.6-1.9,0.6-3v-6.8c0-1.1-0.2-2.1-0.6-3
		c-0.4-0.9-0.9-1.6-1.6-2.3c-0.7-0.6-1.4-1.1-2.3-1.4c-0.9-0.3-1.8-0.5-2.7-0.5s-1.8,0.2-2.7,0.5s-1.6,0.8-2.3,1.5
		c-0.7,0.6-1.2,1.4-1.6,2.3s-0.6,1.9-0.6,2.9v7.1H223.1z"/>
	<path class="st2" d="M242.1,627.7V605c0-0.2,0.1-0.3,0.2-0.4c0.1-0.1,0.3-0.1,0.4-0.1c0.1,0,0.3,0,0.4,0.1c0.1,0.1,0.2,0.2,0.2,0.4
		v7.2H256c0.4,0,0.6,0.2,0.6,0.6c0,0.4-0.2,0.6-0.6,0.6h-12.6v14.3c0,0.9,0.2,1.8,0.6,2.6c0.4,0.8,0.9,1.5,1.6,2.1
		c0.7,0.6,1.4,1.1,2.3,1.4c0.9,0.3,1.8,0.5,2.8,0.5c0.7,0,1.4-0.1,2.1-0.4c0.7-0.2,1.3-0.6,1.9-1c0.6-0.4,1.1-0.9,1.6-1.5
		s0.8-1.2,1.1-1.8c0.1-0.1,0.1-0.3,0.2-0.4c0.1-0.1,0.2-0.2,0.4-0.2c0.3,0,0.4,0.1,0.5,0.2c0.1,0.2,0.1,0.4,0,0.6
		c-0.5,1.3-1.2,2.3-2,3c-0.8,0.7-1.6,1.3-2.4,1.7c-0.8,0.4-1.6,0.6-2.2,0.7c-0.7,0.1-1.1,0.1-1.3,0.1c-1.1,0-2.2-0.2-3.2-0.6
		c-1-0.4-1.9-0.9-2.7-1.6c-0.8-0.7-1.4-1.5-1.9-2.5C242.4,629.9,242.2,628.9,242.1,627.7z"/>
	<path class="st2" d="M260.5,606v-1.5c0-0.4,0.2-0.7,0.6-0.7s0.7,0.2,0.7,0.7v1.5v0.1c0,0.4-0.2,0.6-0.7,0.6
		C260.7,606.7,260.5,606.5,260.5,606z M260.5,612.8c0-0.4,0.2-0.7,0.6-0.7s0.7,0.2,0.7,0.7v22c0,0.4-0.2,0.6-0.7,0.6
		c-0.4,0-0.6-0.2-0.6-0.6V612.8z"/>
	<path class="st2" d="M279.8,634.8c0,0.4-0.2,0.6-0.7,0.6c-0.4,0-0.6-0.2-0.6-0.6v-14.4c0-1-0.2-2-0.5-2.9s-0.7-1.7-1.3-2.3
		c-0.5-0.6-1.2-1.1-2-1.5s-1.6-0.5-2.5-0.5c-1,0-1.8,0.2-2.6,0.5c-0.8,0.4-1.4,0.9-2,1.5c-0.5,0.6-0.9,1.4-1.2,2.3
		c-0.3,0.9-0.4,1.8-0.4,2.9v14.5c-0.1,0.4-0.3,0.6-0.7,0.6c-0.4,0-0.6-0.2-0.6-0.6v-14.4c0-1.2,0.2-2.3,0.5-3.4
		c0.3-1,0.8-1.9,1.5-2.7s1.4-1.3,2.4-1.8c0.9-0.4,1.9-0.6,3.1-0.6c1.7,0,3.1,0.4,4.3,1.3c1.2,0.9,2.1,2.1,2.6,3.6
		c0.5-1.5,1.4-2.7,2.6-3.6c1.2-0.9,2.6-1.3,4.3-1.3c1.1,0,2.2,0.2,3.1,0.6c0.9,0.4,1.7,1,2.4,1.8c0.7,0.8,1.2,1.6,1.5,2.7
		c0.3,1,0.5,2.2,0.5,3.4v14.4c0,0.4-0.2,0.6-0.6,0.6s-0.6-0.2-0.7-0.6v-14.5c0-1-0.1-2-0.4-2.9s-0.7-1.6-1.2-2.3
		c-0.5-0.6-1.2-1.1-2-1.5s-1.6-0.5-2.6-0.5c-0.9,0-1.8,0.2-2.5,0.5c-0.8,0.4-1.4,0.9-2,1.5s-1,1.4-1.3,2.3c-0.3,0.9-0.5,1.9-0.5,2.9
		v14.4H279.8z"/>
	<path class="st2" d="M296,606v-1.5c0-0.4,0.2-0.7,0.6-0.7s0.7,0.2,0.7,0.7v1.5v0.1c0,0.4-0.2,0.6-0.7,0.6
		C296.2,606.7,296,606.5,296,606z M296,612.8c0-0.4,0.2-0.7,0.6-0.7s0.7,0.2,0.7,0.7v22c0,0.4-0.2,0.6-0.7,0.6
		c-0.4,0-0.6-0.2-0.6-0.6V612.8z"/>
	<path class="st2" d="M301.1,612.8c0-0.4,0.2-0.7,0.6-0.7h15.7c0.3,0,0.4,0.1,0.5,0.3s0,0.4-0.2,0.7L302,634.2h15.6
		c0.4,0,0.7,0.2,0.7,0.7c0,0.4-0.2,0.6-0.7,0.6H301c-0.2,0-0.4,0-0.7,0s-0.5-0.2-0.5-0.5c0-0.1,0.1-0.3,0.3-0.6
		c0.2-0.3,0.5-0.7,0.9-1.2c0.5-0.6,1.1-1.3,1.8-2.3c0.8-1,1.7-2.2,2.9-3.8c1.2-1.6,2.6-3.4,4.2-5.7c1.6-2.2,3.6-4.9,5.8-8h-14.1
		C301.3,613.4,301.1,613.2,301.1,612.8z"/>
	<path class="st2" d="M336.8,630.8c-0.3,0.7-0.8,1.3-1.3,1.9c-0.5,0.6-1.1,1.1-1.8,1.5c-0.7,0.4-1.4,0.8-2.1,1s-1.5,0.4-2.2,0.4
		c-1.3,0-2.5-0.2-3.6-0.6c-1.1-0.4-2-1-2.8-1.7s-1.4-1.6-1.8-2.6s-0.7-2-0.7-3.2V620c0-1.1,0.3-2.2,0.8-3.2s1.2-1.8,2-2.6
		s1.8-1.3,2.9-1.7s2.2-0.6,3.3-0.6s2.2,0.2,3.1,0.6c1,0.4,1.8,1,2.6,1.7c0.7,0.7,1.3,1.6,1.7,2.6s0.6,2,0.6,3.2v3.8
		c0,0.4-0.2,0.7-0.6,0.7h-15.1v3.1c0,0.9,0.2,1.8,0.6,2.6s0.9,1.6,1.6,2.2c0.7,0.6,1.5,1.1,2.4,1.5s2,0.5,3.1,0.5
		c1.3,0,2.5-0.4,3.7-1.2c1.1-0.8,2.1-1.9,2.8-3.3c0.1-0.2,0.3-0.2,0.5-0.2s0.4,0.1,0.5,0.2c0.1,0.2,0.2,0.3,0.1,0.5
		C336.9,630.5,336.9,630.7,336.8,630.8z M321.7,623.2h14.5V620c0-0.9-0.2-1.8-0.6-2.6s-0.9-1.6-1.5-2.2c-0.6-0.6-1.3-1.1-2.2-1.5
		c-0.8-0.4-1.7-0.5-2.6-0.5c-1,0-1.9,0.2-2.8,0.5c-0.9,0.4-1.7,0.9-2.4,1.5c-0.7,0.6-1.3,1.4-1.7,2.2c-0.4,0.8-0.7,1.7-0.7,2.6
		L321.7,623.2L321.7,623.2z"/>
	<path class="st2" d="M369.5,630.8c-0.3,0.7-0.8,1.3-1.3,1.9c-0.5,0.6-1.1,1.1-1.8,1.5c-0.7,0.4-1.4,0.8-2.1,1s-1.5,0.4-2.2,0.4
		c-1.3,0-2.5-0.2-3.6-0.6c-1.1-0.4-2-1-2.8-1.7s-1.4-1.6-1.8-2.6s-0.7-2-0.7-3.2V620c0-1.1,0.3-2.2,0.8-3.2s1.2-1.8,2-2.6
		s1.8-1.3,2.9-1.7s2.2-0.6,3.3-0.6s2.2,0.2,3.1,0.6c1,0.4,1.8,1,2.6,1.7c0.7,0.7,1.3,1.6,1.7,2.6s0.6,2,0.6,3.2v3.8
		c0,0.4-0.2,0.7-0.6,0.7h-15.1v3.1c0,0.9,0.2,1.8,0.6,2.6s0.9,1.6,1.6,2.2c0.7,0.6,1.5,1.1,2.4,1.5s2,0.5,3.1,0.5
		c1.3,0,2.5-0.4,3.7-1.2c1.1-0.8,2.1-1.9,2.8-3.3c0.1-0.2,0.3-0.2,0.5-0.2s0.4,0.1,0.5,0.2c0.1,0.2,0.2,0.3,0.1,0.5
		C369.6,630.5,369.6,630.7,369.5,630.8z M354.4,623.2h14.5V620c0-0.9-0.2-1.8-0.6-2.6s-0.9-1.6-1.5-2.2c-0.6-0.6-1.3-1.1-2.2-1.5
		c-0.8-0.4-1.7-0.5-2.6-0.5c-1,0-1.9,0.2-2.8,0.5c-0.9,0.4-1.7,0.9-2.4,1.5c-0.7,0.6-1.3,1.4-1.7,2.2c-0.4,0.8-0.7,1.7-0.7,2.6
		L354.4,623.2L354.4,623.2z"/>
	<path class="st2" d="M380.7,635.3l-9.6-22.3c-0.2-0.4,0-0.7,0.4-0.8c0.3-0.1,0.6,0,0.8,0.5l9.1,21.1l9.1-21.1
		c0.2-0.4,0.5-0.6,0.8-0.5c0.4,0.1,0.5,0.4,0.4,0.8l-9.6,22.3c-0.1,0.3-0.3,0.4-0.7,0.4C381.1,635.6,380.9,635.5,380.7,635.3z"/>
	<path class="st2" d="M408.6,630.8c-0.3,0.7-0.8,1.3-1.3,1.9c-0.5,0.6-1.1,1.1-1.8,1.5c-0.7,0.4-1.4,0.8-2.1,1s-1.5,0.4-2.2,0.4
		c-1.3,0-2.5-0.2-3.6-0.6c-1.1-0.4-2-1-2.8-1.7s-1.4-1.6-1.8-2.6s-0.7-2-0.7-3.2V620c0-1.1,0.3-2.2,0.8-3.2s1.2-1.8,2-2.6
		s1.8-1.3,2.9-1.7s2.2-0.6,3.3-0.6s2.2,0.2,3.1,0.6c1,0.4,1.8,1,2.6,1.7c0.7,0.7,1.3,1.6,1.7,2.6s0.6,2,0.6,3.2v3.8
		c0,0.4-0.2,0.7-0.6,0.7h-15.1v3.1c0,0.9,0.2,1.8,0.6,2.6s0.9,1.6,1.6,2.2c0.7,0.6,1.5,1.1,2.4,1.5s2,0.5,3.1,0.5
		c1.3,0,2.5-0.4,3.7-1.2c1.1-0.8,2.1-1.9,2.8-3.3c0.1-0.2,0.3-0.2,0.5-0.2s0.4,0.1,0.5,0.2c0.1,0.2,0.2,0.3,0.1,0.5
		C408.7,630.5,408.7,630.7,408.6,630.8z M393.5,623.2H408V620c0-0.9-0.2-1.8-0.6-2.6s-0.9-1.6-1.5-2.2c-0.6-0.6-1.3-1.1-2.2-1.5
		c-0.8-0.4-1.7-0.5-2.6-0.5c-1,0-1.9,0.2-2.8,0.5c-0.9,0.4-1.7,0.9-2.4,1.5c-0.7,0.6-1.3,1.4-1.7,2.2c-0.4,0.8-0.7,1.7-0.7,2.6
		L393.5,623.2L393.5,623.2z"/>
	<path class="st2" d="M421.1,612c1.1,0.1,2,0.2,2.8,0.5s1.3,0.7,1.9,1.2c0.2,0.2,0.2,0.4,0.2,0.5c0,0.2-0.1,0.3-0.2,0.4
		c-0.1,0.1-0.2,0.1-0.4,0.1c-0.2,0-0.3-0.1-0.5-0.2c-0.4-0.4-0.9-0.8-1.6-0.9s-1.4-0.3-2.2-0.4c-0.9,0-1.8,0.2-2.7,0.5
		c-0.9,0.3-1.6,0.8-2.3,1.4s-1.2,1.3-1.6,2.2s-0.6,1.8-0.7,2.8v14.7c0,0.4-0.2,0.6-0.6,0.6s-0.7-0.2-0.7-0.6v-22
		c0-0.4,0.2-0.7,0.6-0.7s0.7,0.2,0.7,0.7v3.1c0.8-1.2,1.8-2.2,3.1-2.9C418.2,612.3,419.6,612,421.1,612z"/>
	<path class="st2" d="M435.4,635.6c-1.1-0.1-2.1-0.3-3.1-0.8s-1.8-1-2.5-1.8c-0.7-0.7-1.3-1.6-1.7-2.6c-0.4-1-0.6-2.1-0.6-3.2v-14.5
		c0-0.4,0.2-0.6,0.6-0.6s0.6,0.2,0.7,0.6v14.5c0,1,0.2,2,0.6,2.9s0.9,1.6,1.6,2.3c0.7,0.6,1.4,1.1,2.3,1.5s1.8,0.5,2.8,0.5
		c0.9,0,1.8-0.2,2.7-0.5c0.9-0.4,1.6-0.9,2.3-1.5c0.7-0.6,1.2-1.4,1.6-2.3c0.4-0.9,0.6-1.9,0.6-2.9v-14.4c0-0.4,0.2-0.6,0.6-0.6
		s0.7,0.2,0.7,0.6v14.5c0,1.2-0.2,2.2-0.6,3.2s-1,1.9-1.7,2.6s-1.6,1.4-2.5,1.8c-1,0.5-2,0.7-3,0.8v7.5c0,0.4-0.2,0.6-0.7,0.6
		c-0.4,0-0.6-0.2-0.6-0.6L435.4,635.6L435.4,635.6z"/>
	<path class="st2" d="M448,627.7V605c0-0.2,0.1-0.3,0.2-0.4c0.1-0.1,0.3-0.1,0.4-0.1s0.3,0,0.4,0.1s0.2,0.2,0.2,0.4v7.2h12.6
		c0.4,0,0.6,0.2,0.6,0.6c0,0.4-0.2,0.6-0.6,0.6h-12.6v14.3c0,0.9,0.2,1.8,0.6,2.6s0.9,1.5,1.6,2.1s1.4,1.1,2.3,1.4
		c0.9,0.3,1.8,0.5,2.8,0.5c0.7,0,1.4-0.1,2.1-0.4c0.7-0.2,1.3-0.6,1.9-1s1.1-0.9,1.6-1.5s0.8-1.2,1.1-1.8c0.1-0.1,0.1-0.3,0.2-0.4
		c0.1-0.1,0.2-0.2,0.4-0.2c0.3,0,0.4,0.1,0.5,0.2c0.1,0.2,0.1,0.4,0,0.6c-0.5,1.3-1.2,2.3-2,3s-1.6,1.3-2.4,1.7s-1.6,0.6-2.2,0.7
		s-1.1,0.1-1.3,0.1c-1.1,0-2.2-0.2-3.2-0.6c-1-0.4-1.9-0.9-2.7-1.6c-0.8-0.7-1.4-1.5-1.9-2.5C448.3,629.9,448,628.9,448,627.7z"/>
	<path class="st2" d="M466.3,634.8v-30.3c0-0.4,0.2-0.7,0.6-0.7s0.7,0.2,0.7,0.7V616c0.8-1.2,1.8-2.2,3.1-2.9
		c1.3-0.7,2.7-1.1,4.2-1.1c1.1,0,2.2,0.2,3.2,0.6c1,0.4,1.9,1,2.7,1.8c0.8,0.8,1.4,1.6,1.9,2.7c0.5,1,0.7,2.2,0.7,3.4v14.4
		c0,0.4-0.2,0.6-0.7,0.6c-0.4,0-0.6-0.2-0.6-0.6v-14.4c0-1-0.2-2-0.6-2.9s-1-1.7-1.6-2.3c-0.7-0.6-1.5-1.1-2.3-1.5
		c-0.9-0.4-1.7-0.5-2.7-0.5c-0.9,0-1.8,0.2-2.7,0.5c-0.9,0.3-1.6,0.8-2.3,1.4s-1.2,1.3-1.6,2.2s-0.6,1.8-0.7,2.8v14.7
		c0,0.4-0.2,0.7-0.7,0.7C466.5,635.5,466.3,635.2,466.3,634.8z"/>
	<path class="st2" d="M486.9,606v-1.5c0-0.4,0.2-0.7,0.6-0.7s0.7,0.2,0.7,0.7v1.5v0.1c0,0.4-0.2,0.6-0.7,0.6
		C487.1,606.7,486.9,606.5,486.9,606z M486.9,612.8c0-0.4,0.2-0.7,0.6-0.7s0.7,0.2,0.7,0.7v22c0,0.4-0.2,0.6-0.7,0.6
		c-0.4,0-0.6-0.2-0.6-0.6V612.8z"/>
	<path class="st2" d="M506.9,634.8v-14.4c0-1-0.2-2-0.6-2.9s-1-1.7-1.6-2.3c-0.7-0.6-1.5-1.1-2.3-1.5c-0.9-0.4-1.7-0.5-2.7-0.5
		s-1.9,0.2-2.8,0.5c-0.9,0.4-1.6,0.9-2.3,1.5c-0.7,0.6-1.2,1.4-1.6,2.3c-0.4,0.9-0.6,1.8-0.6,2.9v14.5c-0.1,0.4-0.3,0.6-0.7,0.6
		c-0.4,0-0.6-0.2-0.6-0.6v-14.4c0-1.2,0.2-2.3,0.7-3.4c0.5-1,1.1-1.9,1.9-2.7s1.7-1.3,2.7-1.8c1-0.4,2.1-0.6,3.2-0.6
		s2.2,0.2,3.2,0.6c1,0.4,1.9,1,2.7,1.8s1.4,1.6,1.9,2.7c0.5,1,0.7,2.2,0.7,3.4v14.4c0,0.4-0.2,0.6-0.7,0.6
		C507.1,635.5,506.9,635.3,506.9,634.8z"/>
	<path class="st2" d="M519.5,643.2c-0.1-0.4,0.1-0.7,0.6-0.7c0.9,0,1.8-0.2,2.7-0.6c0.9-0.4,1.6-0.9,2.3-1.6
		c0.7-0.6,1.2-1.4,1.6-2.2c0.4-0.8,0.6-1.7,0.7-2.6v-3.7c-0.8,1.2-1.8,2.1-3.1,2.8s-2.6,1.1-4.1,1.1c-1.1,0-2.2-0.2-3.3-0.7
		c-1-0.5-2-1.1-2.7-1.8c-0.8-0.8-1.4-1.7-1.9-2.7s-0.7-2.1-0.6-3.3v-6.8c0-1.2,0.2-2.3,0.6-3.3c0.5-1,1.1-1.9,1.9-2.7
		c0.8-0.8,1.7-1.4,2.7-1.8c1-0.4,2.1-0.7,3.3-0.7s2.2,0.2,3.2,0.6c1,0.4,1.9,1,2.7,1.8s1.4,1.6,1.9,2.7c0.5,1,0.7,2.2,0.7,3.4v6.8
		v2.8v5.5c0,1.1-0.2,2.2-0.7,3.2c-0.4,1-1,1.9-1.8,2.6s-1.7,1.3-2.7,1.8c-1,0.4-2.2,0.7-3.3,0.7
		C519.7,643.7,519.5,643.5,519.5,643.2z M512.9,627.2c0,1.1,0.2,2,0.6,2.9c0.4,0.9,0.9,1.6,1.6,2.3c0.7,0.6,1.4,1.1,2.3,1.5
		c0.9,0.3,1.8,0.5,2.7,0.5s1.8-0.2,2.6-0.5s1.6-0.8,2.3-1.4c0.7-0.6,1.2-1.3,1.6-2.2c0.4-0.8,0.6-1.8,0.7-2.8v-7.1
		c0-1.1-0.2-2.1-0.6-3c-0.4-0.9-1-1.7-1.6-2.3s-1.4-1.1-2.3-1.4c-0.9-0.3-1.8-0.5-2.7-0.5c-1,0-1.9,0.2-2.8,0.5
		c-0.9,0.3-1.6,0.8-2.3,1.5c-0.7,0.6-1.2,1.4-1.6,2.3c-0.4,0.9-0.6,1.8-0.6,2.9L512.9,627.2L512.9,627.2z"/>
	<path class="st2" d="M531.7,634.4c0-0.3,0.1-0.6,0.3-0.8s0.5-0.3,0.8-0.3s0.6,0.1,0.8,0.3s0.3,0.5,0.3,0.8s-0.1,0.6-0.3,0.8
		s-0.5,0.3-0.8,0.3s-0.6-0.1-0.8-0.3S531.7,634.7,531.7,634.4z"/>
</g>
<g>
	<g id="Layer_2_2_">
		<circle class="st7" cx="534.7" cy="449.8" r="10"/>
		<circle class="st7" cx="564.7" cy="459.8" r="20"/>
		<circle class="st7" cx="554.7" cy="509.8" r="30"/>
		<circle class="st7" cx="474.7" cy="489.8" r="50"/>
		<circle class="st7" cx="504.7" cy="359.8" r="80"/>
		<path class="st8" d="M724.6,442.3v-36.5c0-10.8-8.2-20-19-20.8c-4.4-0.3-8.6,0.7-12.1,2.8c-6,3.6-10.1,10.2-10.1,17.7v37.9"/>
		<path class="st8" d="M790.6,385.1V424c0,10.7,8.1,19.9,18.7,20.8c12.2,1.1,22.5-8.5,22.5-20.5v-39.1"/>
		<path class="st8" d="M757.6,385c-11.4,0-20.6,9.2-20.6,20.6c0-12,10.2-21.5,22.5-20.5c10.7,0.9,18.7,10.1,18.7,20.8v8.4H737v-8.7
			v8.6v10.2c0,10.6,8.3,19.6,18.9,20.1c8.9,0.4,17.5-4.9,20.7-12.5"/>
		<path class="st8" d="M883.8,397.9c-3.1-7.4-11.2-13-19.7-13c-11.4,0-19.8,9.2-19.8,20.6v9.8v28.2"/>
		<path class="st8" d="M1014.2,442.3v-36.5c0-10.8-8.2-20-19-20.8c-4.4-0.3-8.6,0.7-12.1,2.8c-6,3.6-10.1,10.2-10.1,17.7v37.9"/>
		<path class="st8" d="M1080.6,385.1V424c0,10.7,8.1,19.9,18.7,20.8c12.2,1.1,22.5-8.5,22.5-20.5v-39.1"/>
		<path class="st8" d="M1173.4,432.2c-3.1,7.5-11.3,12.6-19.9,12.6c-10.9-0.1-19.6-9.2-19.6-20.1v-10.2v-29.3"/>
		<line class="st8" x1="1133.8" y1="413.5" x2="1173.4" y2="413.5"/>
		<g>
			<path class="st9" d="M1067.8,405.6v8.6h-41.2v-8.6c0-11.4,9.2-20.6,20.6-20.6C1058.6,385,1067.8,394.2,1067.8,405.6z"/>
			<polygon class="st10" points="1026.7,405.7 1026.7,414.4 1026.7,414.4 			"/>
			<line class="st8" x1="1026.6" y1="443.5" x2="1026.6" y2="414.3"/>
			<path class="st8" d="M1067.8,414.4v29V414.4z"/>
		</g>
		<polyline class="st11" points="903,421.1 903,431.1 929.1,446.1 955,431.1 955,401.1 929.1,386.1 903,401.1 903,421.1 		"/>
	</g>
	<line class="st12" x1="929" y1="415.1" x2="865" y2="415.1"/>
	<g>
		<path class="st13" d="M852.7,475.5c0-0.2,0.1-0.3,0.3-0.3s0.3,0.1,0.4,0.3c0.2,0.4,0.5,0.9,0.8,1.3s0.7,0.8,1.2,1.1
			s0.9,0.6,1.5,0.7c0.6,0.2,1.2,0.3,1.9,0.3c0.6,0,1.3-0.1,1.9-0.2c0.6-0.2,1.2-0.4,1.8-0.7c0.5-0.3,1-0.8,1.3-1.3
			c0.3-0.6,0.5-1.2,0.5-2s-0.2-1.4-0.4-2c-0.3-0.6-0.7-1-1.2-1.4s-1.1-0.7-1.7-0.9c-0.6-0.2-1.4-0.3-2.1-0.3c-0.8,0-1.4,0-2.1-0.2
			c-0.7-0.1-1.2-0.3-1.7-0.6c-0.5-0.3-0.9-0.7-1.2-1.2s-0.4-1.2-0.4-2.1c0-1.4,0.5-2.5,1.5-3.3s2.3-1.2,4-1.2c1,0,2,0.3,2.9,0.7
			c0.9,0.4,1.6,1.1,2.1,2c0,0,0,0.1,0,0.2c0,0.2-0.1,0.3-0.4,0.3c-0.1,0-0.2-0.1-0.3-0.2c-0.4-0.7-1-1.2-1.8-1.6
			c-0.7-0.4-1.6-0.6-2.6-0.6c-0.8,0-1.6,0.1-2.2,0.3c-0.6,0.2-1.1,0.5-1.5,0.8c-0.4,0.4-0.7,0.8-0.8,1.2c-0.2,0.4-0.3,0.9-0.3,1.4
			c0,0.7,0.1,1.2,0.3,1.7c0.2,0.4,0.5,0.8,0.9,1s0.9,0.4,1.5,0.5s1.2,0.2,2,0.2s1.6,0.1,2.4,0.4c0.8,0.2,1.4,0.6,2,1s1,1,1.3,1.6
			s0.5,1.4,0.5,2.2s-0.2,1.6-0.5,2.2s-0.8,1.2-1.3,1.6c-0.6,0.4-1.2,0.7-2,1c-0.8,0.2-1.6,0.3-2.4,0.3c-0.2,0-0.5,0-1-0.1
			s-1-0.2-1.6-0.5c-0.6-0.2-1.2-0.6-1.8-1.1s-1.1-1.2-1.6-2.1C852.7,475.6,852.7,475.5,852.7,475.5z"/>
		<path class="st13" d="M872.8,467.3c0-0.8,0.2-1.6,0.5-2.3s0.7-1.4,1.3-1.9c0.5-0.5,1.2-1,1.9-1.3s1.5-0.5,2.4-0.5
			c0.8,0,1.6,0.2,2.3,0.5s1.4,0.7,1.9,1.3c0.5,0.5,1,1.2,1.3,1.9s0.5,1.5,0.5,2.3v6c0,0.8-0.2,1.7-0.5,2.4c-0.3,0.8-0.8,1.4-1.3,2
			c-0.6,0.6-1.2,1-2,1.3s-1.6,0.5-2.4,0.5s-1.7-0.2-2.4-0.5c-0.8-0.3-1.4-0.8-2-1.3s-1-1.2-1.3-2s-0.5-1.6-0.5-2.4L872.8,467.3
			L872.8,467.3z M873.6,473.4c0,0.7,0.2,1.4,0.4,2c0.3,0.6,0.7,1.2,1.2,1.6c0.5,0.5,1,0.9,1.7,1.1c0.7,0.3,1.5,0.4,2.3,0.4
			c0.5,0,1-0.2,1.5-0.3c0.7-0.3,1.3-0.7,1.8-1.2s0.9-1,1.1-1.6s0.4-1.3,0.4-2v-5.9c0-0.8-0.2-1.4-0.4-2.1c-0.3-0.6-0.7-1.2-1.2-1.7
			s-1.1-0.9-1.7-1.2c-0.6-0.3-1.3-0.4-2-0.4s-1.4,0.1-2.1,0.4s-1.2,0.6-1.7,1.1s-0.9,1-1.2,1.7c-0.3,0.6-0.4,1.4-0.4,2.1
			L873.6,473.4L873.6,473.4z"/>
		<path class="st13" d="M892,462.1c0-0.2,0.1-0.4,0.3-0.4s0.4,0.1,0.5,0.4v16h10.6c0.2,0.2,0.4,0.4,0.4,0.6s-0.1,0.4-0.4,0.2h-11
			l0,0l0,0c-0.2,0.1-0.3,0-0.3-0.2L892,462.1L892,462.1z"/>
		<path class="st13" d="M910.8,462.1c-0.1-0.2,0-0.3,0.2-0.3s0.6,0.3,0.6,0.3v11.2c0,0.7,0.2,1.4,0.4,2c0.3,0.6,0.7,1.2,1.2,1.7
			s1.1,0.9,1.7,1.2c0.6,0.3,1.3,0.4,2.1,0.4c0.7,0,1.4-0.2,2-0.4c0.6-0.3,1.2-0.7,1.7-1.2s0.9-1.1,1.2-1.7s0.4-1.3,0.4-2v-11.2
			c0,0,0.1-0.3,0.3-0.3s0.5,0.3,0.5,0.3v11.1c0,0.8-0.2,1.6-0.5,2.4s-0.8,1.4-1.4,2s-1.2,1-2,1.4c-0.8,0.3-1.5,0.5-2.4,0.5
			s-1.6-0.2-2.4-0.5c-0.8-0.3-1.4-0.8-2-1.4s-1-1.2-1.4-2c-0.3-0.8-0.5-1.5-0.5-2.4L910.8,462.1L910.8,462.1z"/>
		<path class="st13" d="M935.2,462.5H930c-0.2,0.1-0.4,0-0.4-0.2s0.1-0.4,0.4-0.6h5.6h5.6c0.2,0.2,0.3,0.4,0.3,0.6s-0.1,0.3-0.3,0.2
			H936v16.2c0,0.2-0.1,0.3-0.3,0.3s-0.3-0.1-0.5-0.3V462.5L935.2,462.5z"/>
		<path class="st13" d="M948.8,462.2c0-0.2,0.1-0.4,0.3-0.4s0.4,0.1,0.5,0.4v16.4c-0.1,0.2-0.2,0.3-0.5,0.3c-0.2,0-0.3-0.1-0.3-0.3
			V462.2z"/>
		<path class="st13" d="M956.8,467.3c0-0.8,0.2-1.6,0.5-2.3s0.7-1.4,1.3-1.9c0.5-0.5,1.2-1,1.9-1.3s1.5-0.5,2.4-0.5
			c0.8,0,1.6,0.2,2.3,0.5s1.4,0.7,1.9,1.3c0.5,0.5,1,1.2,1.3,1.9s0.5,1.5,0.5,2.3v6c0,0.8-0.2,1.7-0.5,2.4c-0.3,0.8-0.8,1.4-1.3,2
			c-0.6,0.6-1.2,1-2,1.3s-1.6,0.5-2.4,0.5s-1.7-0.2-2.4-0.5c-0.8-0.3-1.4-0.8-2-1.3s-1-1.2-1.3-2s-0.5-1.6-0.5-2.4L956.8,467.3
			L956.8,467.3z M957.6,473.4c0,0.7,0.2,1.4,0.4,2c0.3,0.6,0.7,1.2,1.2,1.6c0.5,0.5,1,0.9,1.7,1.1c0.7,0.3,1.5,0.4,2.3,0.4
			c0.5,0,1-0.2,1.5-0.3c0.7-0.3,1.3-0.7,1.8-1.2s0.9-1,1.1-1.6s0.4-1.3,0.4-2v-5.9c0-0.8-0.2-1.4-0.4-2.1c-0.3-0.6-0.7-1.2-1.2-1.7
			s-1.1-0.9-1.7-1.2c-0.6-0.3-1.3-0.4-2-0.4s-1.4,0.1-2.1,0.4s-1.2,0.6-1.7,1.1s-0.9,1-1.2,1.7c-0.3,0.6-0.4,1.4-0.4,2.1
			L957.6,473.4L957.6,473.4z"/>
		<path class="st13" d="M975.6,467.9c0-0.8,0.2-1.6,0.5-2.4s0.8-1.4,1.4-2s1.2-1,2-1.4c0.8-0.3,1.5-0.5,2.4-0.5
			c0.8,0,1.6,0.2,2.4,0.5c0.8,0.3,1.4,0.8,2,1.4s1,1.2,1.4,2c0.3,0.8,0.5,1.5,0.5,2.4v10.7c0,0-0.1,0.3-0.3,0.3s-0.5-0.3-0.5-0.3
			v-10.8c0-0.7-0.2-1.4-0.4-2c-0.3-0.6-0.7-1.2-1.2-1.7s-1.1-0.9-1.7-1.2c-0.6-0.3-1.3-0.4-2-0.4s-1.4,0.2-2.1,0.4
			c-0.6,0.3-1.2,0.7-1.7,1.2s-0.9,1.1-1.2,1.7s-0.4,1.3-0.4,2v10.8c0,0-0.2,0.3-0.4,0.3s-0.4-0.3-0.4-0.3L975.6,467.9L975.6,467.9z"
			/>
		<path class="st13" d="M995,475.5c0-0.2,0.1-0.3,0.3-0.3s0.3,0.1,0.4,0.3c0.2,0.4,0.5,0.9,0.8,1.3s0.7,0.8,1.2,1.1s0.9,0.6,1.5,0.7
			c0.6,0.2,1.2,0.3,1.9,0.3c0.6,0,1.3-0.1,1.9-0.2c0.6-0.2,1.2-0.4,1.8-0.7c0.5-0.3,1-0.8,1.3-1.3c0.3-0.6,0.5-1.2,0.5-2
			s-0.2-1.4-0.4-2c-0.3-0.6-0.7-1-1.2-1.4s-1.1-0.7-1.7-0.9c-0.6-0.2-1.4-0.3-2.1-0.3c-0.8,0-1.4,0-2.1-0.2s-1.2-0.3-1.7-0.6
			c-0.5-0.3-0.9-0.7-1.2-1.2s-0.4-1.2-0.4-2.1c0-1.4,0.5-2.5,1.5-3.3s2.3-1.2,4-1.2c1,0,2,0.3,2.9,0.7c0.9,0.4,1.6,1.1,2.1,2
			c0,0,0,0.1,0,0.2c0,0.2-0.1,0.3-0.4,0.3c-0.1,0-0.2-0.1-0.3-0.2c-0.4-0.7-1-1.2-1.8-1.6c-0.7-0.4-1.6-0.6-2.6-0.6
			c-0.8,0-1.6,0.1-2.2,0.3c-0.6,0.2-1.1,0.5-1.5,0.8c-0.4,0.4-0.7,0.8-0.8,1.2c-0.2,0.4-0.3,0.9-0.3,1.4c0,0.7,0.1,1.2,0.3,1.7
			s0.5,0.8,0.9,1s0.9,0.4,1.5,0.5s1.2,0.2,2,0.2s1.6,0.1,2.4,0.4c0.8,0.2,1.4,0.6,2,1s1,1,1.3,1.6s0.5,1.4,0.5,2.2s-0.2,1.6-0.5,2.2
			s-0.8,1.2-1.3,1.6s-1.2,0.7-2,1c-0.8,0.2-1.6,0.3-2.4,0.3c-0.2,0-0.5,0-1-0.1s-1-0.2-1.6-0.5c-0.6-0.2-1.2-0.6-1.8-1.1
			s-1.1-1.2-1.6-2.1C995,475.6,995,475.5,995,475.5z"/>
	</g>
</g>
<polygon class="st14" points="267,743.4 248.7,775.3 211.9,775.3 193.5,743.4 211.9,711.6 248.7,711.6 "/>
<polygon class="st14" points="719.3,66.5 677.7,66.5 656.8,102.6 677.7,138.7 719.3,138.7 740.2,102.6 "/>
<polygon class="st14" points="1220.4,720.6 1194.1,705.4 1194.1,675.2 1220.4,660 1246.6,675.2 1246.6,705.4 "/>
<polygon class="st15" points="655.3,633.9 683.1,617.9 710.8,634 710.7,666 682.9,682 655.2,665.9 "/>
</svg>
