<?xml version="1.0" encoding="utf-8"?>
<!-- Generator: Adobe Illustrator 21.0.0, SVG Export Plug-In . SVG Version: 6.00 Build 0)  -->
<svg version="1.1" id="Layer_1" xmlns="http://www.w3.org/2000/svg" xmlns:xlink="http://www.w3.org/1999/xlink" x="0px" y="0px"
	 viewBox="0 0 583 1210" style="enable-background:new 0 0 583 1210;" xml:space="preserve">
<style type="text/css">
	.st0{fill:none;stroke:#008CC4;stroke-width:3;stroke-miterlimit:10;}
	.st1{fill:#008CC4;}
	.st2{fill:#1FB6E5;}
	.st3{fill:none;stroke:#008CC4;stroke-width:1.9057;stroke-miterlimit:10;}
	.st4{fill:none;stroke:#008CC4;stroke-width:2;stroke-miterlimit:10;}
	.st5{fill:none;stroke:#008CC4;stroke-width:2;stroke-linecap:round;stroke-miterlimit:10;}
	.st6{fill:none;stroke:#728287;stroke-miterlimit:10;}
	.st7{fill:none;}
</style>
<polygon class="st0" points="224.3,1027.6 146.1,1027.6 107.1,1095.2 146.1,1162.9 224.3,1162.9 263.4,1095.2 "/>
<polygon class="st0" points="277.8,417.5 161.2,417.5 102.9,518.5 161.2,619.5 277.8,619.5 336.1,518.5 "/>
<g>
	<polygon class="st1" points="266.6,437 172.4,437 125.4,518.5 172.4,600 266.6,600 313.6,518.5 	"/>
</g>
<polygon class="st1" points="472.6,772.7 422.1,743.7 422,685.5 472.4,656.3 522.9,685.3 523,743.5 "/>
<polygon class="st2" points="210.6,530.8 133.9,530.8 95.5,597.3 133.9,663.7 210.6,663.7 249,597.3 "/>
<polygon class="st2" points="515.3,487 479.2,487 461.2,518.3 479.2,549.5 515.3,549.5 533.4,518.3 "/>
<polygon class="st2" points="533.9,663 506.1,663 492.3,687 506.1,711 533.9,711 547.7,687 "/>
<polygon class="st1" points="472,570.4 454,559.9 454.1,539 472.2,528.6 490.3,539.2 490.2,560 "/>
<polygon class="st2" points="472.7,1038.9 535.4,1076 534.7,1148.8 471.3,1184.6 408.6,1147.5 409.3,1074.7 "/>
<polygon class="st1" points="521.6,1066 522.2,1010.7 474.6,982.6 426.5,1009.8 425.9,1065.1 473.5,1093.2 "/>
<polygon class="st2" points="251.5,976.1 196.1,976.1 168.4,1024.1 196.1,1072.1 251.5,1072.1 279.3,1024.1 "/>
<polygon class="st1" points="207.9,1051.9 191.8,1024.1 207.9,996.3 239.9,996.3 255.9,1024.1 239.9,1051.9 "/>
<polygon class="st3" points="443.2,1015.4 442.9,979.3 474,961 505.4,978.7 505.7,1014.8 474.6,1033.1 "/>
<polygon class="st0" points="448.2,770.7 411.5,791.8 374.8,770.7 374.8,728.3 411.5,707.2 448.2,728.3 "/>
<g>
	<title>Asset 1</title>
	<g id="Layer_2_1_">
		<g id="Layer_1-2_1_">
			<g id="Layer_2-2_1_">
				<path class="st1" d="M432.2,185.5c-8,13.5-42.6-7-34.5-20.4c31-52.3,51.4-66,59.5-61.1C465.4,108.7,463.2,133.2,432.2,185.5z"/>
				<path class="st1" d="M399.1,168.3l-22.6-2.2c2.5-15.4,24.1-10.8,31.8-18.1L399.1,168.3z"/>
				<path class="st1" d="M428.9,185.9l12.8,18.8c12.4-9.6-2.1-26.3,0.6-36.7L428.9,185.9z"/>
			</g>
		</g>
	</g>
</g>
<g>
	<g>
		<path class="st1" d="M131.7,662.6c-16.3,28.2-32.6,56.4-48.8,84.6C57.1,791.8,31.3,836.4,5.6,881c-5.9,10.3-11.9,20.6-17.8,30.9
			c-1,1.7,1.6,3.2,2.6,1.5C6.7,885.2,23,857,39.2,828.8c25.7-44.6,51.5-89.2,77.2-133.8c5.9-10.3,11.9-20.6,17.8-30.9
			C135.2,662.5,132.6,661,131.7,662.6L131.7,662.6z"/>
	</g>
</g>
<line class="st4" x1="336.5" y1="518.5" x2="460.5" y2="518.5"/>
<line class="st4" x1="472" y1="570" x2="472" y2="657"/>
<line class="st5" x1="277" y1="417.5" x2="322.2" y2="336.7"/>
<line class="st0" x1="472.7" y1="961" x2="472.3" y2="716.3"/>
<polygon class="st6" points="291.7,821 261.5,838.4 231.3,821 231.3,786 261.5,768.6 291.7,786 "/>
<polygon class="st6" points="322,934.5 278.4,909.1 278.6,858.6 322.4,833.5 366,858.9 365.8,909.4 "/>
<polygon class="st6" points="145.7,235.6 123.1,235.6 111.9,255.1 123.1,274.6 145.7,274.6 156.9,255.1 "/>
<polygon class="st6" points="290.8,209.3 257.6,228.1 224.7,208.7 225,170.5 258.2,151.7 291.1,171.1 "/>
<polygon class="st6" points="120.4,979 103,989.1 85.6,979 85.6,959 103,948.9 120.4,959 "/>
<polygon class="st6" points="685,1336.8 675.7,1319.6 656.1,1319 645.7,1335.7 655,1352.9 674.6,1353.5 "/>
<polygon class="st6" points="76.3,523.5 45.7,523.5 30.4,550 45.7,576.5 76.3,576.5 91.6,550 "/>
<g>
	<rect x="193.2" y="288.2" class="st7" width="354" height="92.1"/>
	<path class="st1" d="M194.7,304.7c0-1.2,0.2-2.3,0.6-3.3c0.5-1,1.1-1.9,1.9-2.7c0.8-0.8,1.7-1.4,2.7-1.8c1-0.4,2.1-0.7,3.3-0.7
		s2.2,0.2,3.2,0.6c1,0.4,1.9,1,2.7,1.8s1.4,1.6,1.9,2.7c0.5,1,0.7,2.2,0.7,3.4v6.8c0,1.2-0.2,2.3-0.6,3.3c-0.5,1-1.1,1.9-1.9,2.7
		s-1.7,1.4-2.7,1.8c-1,0.4-2.1,0.7-3.2,0.7s-2.2-0.2-3.3-0.7c-1-0.5-2-1.1-2.7-1.8c-0.8-0.8-1.4-1.7-1.9-2.7s-0.7-2.1-0.6-3.3
		L194.7,304.7L194.7,304.7z M196,311.5c0,1.1,0.2,2,0.6,2.9c0.4,0.9,0.9,1.6,1.6,2.3c0.7,0.6,1.4,1.1,2.3,1.5s1.8,0.5,2.7,0.5
		s1.8-0.2,2.7-0.5s1.6-0.8,2.3-1.4c0.7-0.6,1.2-1.4,1.6-2.3c0.4-0.9,0.6-1.9,0.6-3v-6.8c0-1.1-0.2-2.1-0.6-3c-0.4-0.9-1-1.7-1.6-2.3
		c-0.7-0.6-1.4-1.1-2.3-1.4c-0.9-0.3-1.8-0.5-2.7-0.5c-1,0-1.9,0.2-2.8,0.5c-0.9,0.3-1.6,0.8-2.3,1.5c-0.7,0.6-1.2,1.4-1.6,2.3
		s-0.6,1.8-0.6,2.9v6.8H196z"/>
	<path class="st1" d="M215,304.7c0-1.2,0.2-2.2,0.6-3.3c0.5-1,1.1-1.9,1.9-2.7c0.8-0.8,1.7-1.4,2.7-1.8c1-0.5,2.1-0.7,3.3-0.7
		s2.2,0.2,3.2,0.7c1,0.4,2,1,2.7,1.8c0.8,0.8,1.4,1.7,1.9,2.7s0.7,2.1,0.6,3.3v6.8c0,1.2-0.2,2.4-0.7,3.4s-1.1,1.9-1.9,2.7
		s-1.7,1.3-2.7,1.8c-1,0.4-2.1,0.6-3.2,0.6c-1.5,0-2.9-0.4-4.1-1.1c-1.3-0.7-2.3-1.7-3.1-2.9v11.3c0,0.5-0.2,0.7-0.6,0.7
		s-0.6-0.2-0.6-0.7L215,304.7L215,304.7z M216.3,311.8c0,1,0.3,1.9,0.7,2.8c0.4,0.9,0.9,1.6,1.6,2.2c0.7,0.6,1.4,1.1,2.3,1.4
		c0.8,0.3,1.7,0.5,2.7,0.5c0.9,0,1.8-0.2,2.7-0.5s1.6-0.8,2.3-1.4s1.2-1.4,1.7-2.3c0.4-0.9,0.6-1.9,0.6-3v-6.8c0-1.1-0.2-2.1-0.6-3
		c-0.4-0.9-0.9-1.6-1.6-2.3c-0.7-0.6-1.4-1.1-2.3-1.4c-0.9-0.3-1.8-0.5-2.7-0.5s-1.8,0.2-2.7,0.5s-1.6,0.8-2.3,1.5
		c-0.7,0.6-1.2,1.4-1.6,2.3s-0.6,1.9-0.6,2.9v7.1H216.3z"/>
	<path class="st1" d="M235.3,312v-22.7c0-0.2,0.1-0.3,0.2-0.4c0.1-0.1,0.3-0.1,0.4-0.1c0.1,0,0.3,0,0.4,0.1c0.1,0.1,0.2,0.2,0.2,0.4
		v7.2h12.7c0.4,0,0.6,0.2,0.6,0.6c0,0.4-0.2,0.6-0.6,0.6h-12.6v14.3c0,0.9,0.2,1.8,0.6,2.6c0.4,0.8,0.9,1.5,1.6,2.1
		c0.7,0.6,1.4,1.1,2.3,1.4c0.9,0.3,1.8,0.5,2.8,0.5c0.7,0,1.4-0.1,2.1-0.4c0.7-0.2,1.3-0.6,1.9-1c0.6-0.4,1.1-0.9,1.6-1.5
		s0.8-1.2,1.1-1.8c0.1-0.1,0.1-0.3,0.2-0.4c0.1-0.1,0.2-0.2,0.4-0.2c0.3,0,0.4,0.1,0.5,0.2c0.1,0.2,0.1,0.4,0,0.6
		c-0.5,1.3-1.2,2.3-2,3c-0.8,0.7-1.6,1.3-2.4,1.7c-0.8,0.4-1.6,0.6-2.2,0.7c-0.7,0.1-1.1,0.1-1.3,0.1c-1.1,0-2.2-0.2-3.2-0.6
		c-1-0.4-1.9-0.9-2.7-1.6c-0.8-0.7-1.4-1.5-1.9-2.5C235.6,314.2,235.4,313.2,235.3,312z"/>
	<path class="st1" d="M253.7,290.3v-1.5c0-0.4,0.2-0.7,0.6-0.7s0.7,0.2,0.7,0.7v1.5v0.1c0,0.4-0.2,0.6-0.7,0.6
		C253.9,291,253.7,290.8,253.7,290.3z M253.7,297.1c0-0.4,0.2-0.7,0.6-0.7s0.7,0.2,0.7,0.7v22c0,0.4-0.2,0.6-0.7,0.6
		c-0.4,0-0.6-0.2-0.6-0.6V297.1z"/>
	<path class="st1" d="M273,319.1c0,0.4-0.2,0.6-0.7,0.6c-0.4,0-0.6-0.2-0.6-0.6v-14.4c0-1-0.2-2-0.5-2.9s-0.7-1.7-1.3-2.3
		c-0.5-0.6-1.2-1.1-2-1.5s-1.6-0.5-2.5-0.5c-1,0-1.8,0.2-2.6,0.5c-0.8,0.4-1.4,0.9-2,1.5c-0.5,0.6-0.9,1.4-1.2,2.3
		c-0.3,0.9-0.4,1.8-0.4,2.9v14.5c-0.1,0.4-0.3,0.6-0.7,0.6c-0.4,0-0.6-0.2-0.6-0.6v-14.4c0-1.2,0.2-2.3,0.5-3.4
		c0.3-1,0.8-1.9,1.5-2.7s1.4-1.3,2.4-1.8c0.9-0.4,1.9-0.6,3.1-0.6c1.7,0,3.1,0.4,4.3,1.3c1.2,0.9,2.1,2.1,2.6,3.6
		c0.5-1.5,1.4-2.7,2.6-3.6c1.2-0.9,2.6-1.3,4.3-1.3c1.1,0,2.2,0.2,3.1,0.6c0.9,0.4,1.7,1,2.4,1.8c0.7,0.8,1.2,1.6,1.5,2.7
		c0.3,1,0.5,2.2,0.5,3.4v14.4c0,0.4-0.2,0.6-0.6,0.6s-0.6-0.2-0.7-0.6v-14.5c0-1-0.1-2-0.4-2.9s-0.7-1.6-1.2-2.3
		c-0.5-0.6-1.2-1.1-2-1.5s-1.6-0.5-2.6-0.5c-0.9,0-1.8,0.2-2.5,0.5c-0.8,0.4-1.4,0.9-2,1.5s-1,1.4-1.3,2.3c-0.3,0.9-0.5,1.9-0.5,2.9
		v14.4H273z"/>
	<path class="st1" d="M289.2,290.3v-1.5c0-0.4,0.2-0.7,0.6-0.7s0.7,0.2,0.7,0.7v1.5v0.1c0,0.4-0.2,0.6-0.7,0.6
		C289.4,291,289.2,290.8,289.2,290.3z M289.2,297.1c0-0.4,0.2-0.7,0.6-0.7s0.7,0.2,0.7,0.7v22c0,0.4-0.2,0.6-0.7,0.6
		c-0.4,0-0.6-0.2-0.6-0.6V297.1z"/>
	<path class="st1" d="M294.3,297.1c0-0.4,0.2-0.7,0.6-0.7h15.7c0.3,0,0.4,0.1,0.5,0.3s0,0.4-0.2,0.7l-15.7,21.1h15.6
		c0.4,0,0.7,0.2,0.7,0.7c0,0.4-0.2,0.6-0.7,0.6h-16.6c-0.2,0-0.4,0-0.7,0s-0.5-0.2-0.5-0.5c0-0.1,0.1-0.3,0.3-0.6
		c0.2-0.3,0.5-0.7,0.9-1.2c0.5-0.6,1.1-1.3,1.8-2.3c0.8-1,1.7-2.2,2.9-3.8c1.2-1.6,2.6-3.4,4.2-5.7c1.6-2.2,3.6-4.9,5.8-8h-14.1
		C294.5,297.7,294.3,297.5,294.3,297.1z"/>
	<path class="st1" d="M330,315.1c-0.3,0.7-0.8,1.3-1.3,1.9c-0.5,0.6-1.1,1.1-1.8,1.5c-0.7,0.4-1.4,0.8-2.1,1s-1.5,0.4-2.2,0.4
		c-1.3,0-2.5-0.2-3.6-0.6c-1.1-0.4-2-1-2.8-1.7s-1.4-1.6-1.8-2.6s-0.7-2-0.7-3.2v-7.5c0-1.1,0.3-2.2,0.8-3.2s1.2-1.8,2-2.6
		s1.8-1.3,2.9-1.7s2.2-0.6,3.3-0.6s2.2,0.2,3.1,0.6c1,0.4,1.8,1,2.6,1.7c0.7,0.7,1.3,1.6,1.7,2.6s0.6,2,0.6,3.2v3.8
		c0,0.4-0.2,0.7-0.6,0.7H315v3.1c0,0.9,0.2,1.8,0.6,2.6s0.9,1.6,1.6,2.2c0.7,0.6,1.5,1.1,2.4,1.5s2,0.5,3.1,0.5
		c1.3,0,2.5-0.4,3.7-1.2c1.1-0.8,2.1-1.9,2.8-3.3c0.1-0.2,0.3-0.2,0.5-0.2s0.4,0.1,0.5,0.2c0.1,0.2,0.2,0.3,0.1,0.5
		C330.1,314.8,330.1,315,330,315.1z M314.9,307.5h14.5v-3.2c0-0.9-0.2-1.8-0.6-2.6s-0.9-1.6-1.5-2.2c-0.6-0.6-1.3-1.1-2.2-1.5
		c-0.8-0.4-1.7-0.5-2.6-0.5c-1,0-1.9,0.2-2.8,0.5c-0.9,0.4-1.7,0.9-2.4,1.5c-0.7,0.6-1.3,1.4-1.7,2.2c-0.4,0.8-0.7,1.7-0.7,2.6
		L314.9,307.5L314.9,307.5z"/>
	<path class="st1" d="M362.7,315.1c-0.3,0.7-0.8,1.3-1.3,1.9c-0.5,0.6-1.1,1.1-1.8,1.5c-0.7,0.4-1.4,0.8-2.1,1s-1.5,0.4-2.2,0.4
		c-1.3,0-2.5-0.2-3.6-0.6c-1.1-0.4-2-1-2.8-1.7s-1.4-1.6-1.8-2.6s-0.7-2-0.7-3.2v-7.5c0-1.1,0.3-2.2,0.8-3.2s1.2-1.8,2-2.6
		s1.8-1.3,2.9-1.7s2.2-0.6,3.3-0.6s2.2,0.2,3.1,0.6c1,0.4,1.8,1,2.6,1.7c0.7,0.7,1.3,1.6,1.7,2.6s0.6,2,0.6,3.2v3.8
		c0,0.4-0.2,0.7-0.6,0.7h-15.1v3.1c0,0.9,0.2,1.8,0.6,2.6s0.9,1.6,1.6,2.2c0.7,0.6,1.5,1.1,2.4,1.5s2,0.5,3.1,0.5
		c1.3,0,2.5-0.4,3.7-1.2c1.1-0.8,2.1-1.9,2.8-3.3c0.1-0.2,0.3-0.2,0.5-0.2s0.4,0.1,0.5,0.2c0.1,0.2,0.2,0.3,0.1,0.5
		C362.8,314.8,362.8,315,362.7,315.1z M347.6,307.5h14.5v-3.2c0-0.9-0.2-1.8-0.6-2.6s-0.9-1.6-1.5-2.2c-0.6-0.6-1.3-1.1-2.2-1.5
		c-0.8-0.4-1.7-0.5-2.6-0.5c-1,0-1.9,0.2-2.8,0.5c-0.9,0.4-1.7,0.9-2.4,1.5c-0.7,0.6-1.3,1.4-1.7,2.2c-0.4,0.8-0.7,1.7-0.7,2.6
		L347.6,307.5L347.6,307.5z"/>
	<path class="st1" d="M373.9,319.6l-9.6-22.3c-0.2-0.4,0-0.7,0.4-0.8c0.3-0.1,0.6,0,0.8,0.5l9.1,21.1l9.1-21.1
		c0.2-0.4,0.5-0.6,0.8-0.5c0.4,0.1,0.5,0.4,0.4,0.8l-9.6,22.3c-0.1,0.3-0.3,0.4-0.7,0.4C374.3,319.9,374.1,319.8,373.9,319.6z"/>
	<path class="st1" d="M401.8,315.1c-0.3,0.7-0.8,1.3-1.3,1.9c-0.5,0.6-1.1,1.1-1.8,1.5c-0.7,0.4-1.4,0.8-2.1,1s-1.5,0.4-2.2,0.4
		c-1.3,0-2.5-0.2-3.6-0.6c-1.1-0.4-2-1-2.8-1.7s-1.4-1.6-1.8-2.6s-0.7-2-0.7-3.2v-7.5c0-1.1,0.3-2.2,0.8-3.2s1.2-1.8,2-2.6
		s1.8-1.3,2.9-1.7s2.2-0.6,3.3-0.6s2.2,0.2,3.1,0.6c1,0.4,1.8,1,2.6,1.7c0.7,0.7,1.3,1.6,1.7,2.6s0.6,2,0.6,3.2v3.8
		c0,0.4-0.2,0.7-0.6,0.7h-15.1v3.1c0,0.9,0.2,1.8,0.6,2.6s0.9,1.6,1.6,2.2c0.7,0.6,1.5,1.1,2.4,1.5s2,0.5,3.1,0.5
		c1.3,0,2.5-0.4,3.7-1.2c1.1-0.8,2.1-1.9,2.8-3.3c0.1-0.2,0.3-0.2,0.5-0.2s0.4,0.1,0.5,0.2c0.1,0.2,0.2,0.3,0.1,0.5
		C401.9,314.8,401.9,315,401.8,315.1z M386.7,307.5h14.5v-3.2c0-0.9-0.2-1.8-0.6-2.6s-0.9-1.6-1.5-2.2c-0.6-0.6-1.3-1.1-2.2-1.5
		c-0.8-0.4-1.7-0.5-2.6-0.5c-1,0-1.9,0.2-2.8,0.5c-0.9,0.4-1.7,0.9-2.4,1.5c-0.7,0.6-1.3,1.4-1.7,2.2c-0.4,0.8-0.7,1.7-0.7,2.6
		L386.7,307.5L386.7,307.5z"/>
	<path class="st1" d="M414.3,296.3c1.1,0.1,2,0.2,2.8,0.5s1.3,0.7,1.9,1.2c0.2,0.2,0.2,0.4,0.2,0.5c0,0.2-0.1,0.3-0.2,0.4
		c-0.1,0.1-0.2,0.1-0.4,0.1c-0.2,0-0.3-0.1-0.5-0.2c-0.4-0.4-0.9-0.8-1.6-0.9s-1.4-0.3-2.2-0.4c-0.9,0-1.8,0.2-2.7,0.5
		c-0.9,0.3-1.6,0.8-2.3,1.4s-1.2,1.3-1.6,2.2s-0.6,1.8-0.7,2.8v14.7c0,0.4-0.2,0.6-0.6,0.6s-0.7-0.2-0.7-0.6v-22
		c0-0.4,0.2-0.7,0.6-0.7s0.7,0.2,0.7,0.7v3.1c0.8-1.2,1.8-2.2,3.1-2.9C411.4,296.6,412.8,296.3,414.3,296.3z"/>
	<path class="st1" d="M428.6,319.9c-1.1-0.1-2.1-0.3-3.1-0.8s-1.8-1-2.5-1.8c-0.7-0.7-1.3-1.6-1.7-2.6c-0.4-1-0.6-2.1-0.6-3.2V297
		c0-0.4,0.2-0.6,0.6-0.6s0.6,0.2,0.7,0.6v14.5c0,1,0.2,2,0.6,2.9s0.9,1.6,1.6,2.3c0.7,0.6,1.4,1.1,2.3,1.5s1.8,0.5,2.8,0.5
		c0.9,0,1.8-0.2,2.7-0.5c0.9-0.4,1.6-0.9,2.3-1.5c0.7-0.6,1.2-1.4,1.6-2.3c0.4-0.9,0.6-1.9,0.6-2.9v-14.4c0-0.4,0.2-0.6,0.6-0.6
		s0.7,0.2,0.7,0.6v14.5c0,1.2-0.2,2.2-0.6,3.2s-1,1.9-1.7,2.6s-1.6,1.4-2.5,1.8c-1,0.5-2,0.7-3,0.8v7.5c0,0.4-0.2,0.6-0.7,0.6
		c-0.4,0-0.6-0.2-0.6-0.6L428.6,319.9L428.6,319.9z"/>
	<path class="st1" d="M441.2,312v-22.7c0-0.2,0.1-0.3,0.2-0.4c0.1-0.1,0.3-0.1,0.4-0.1s0.3,0,0.4,0.1s0.2,0.2,0.2,0.4v7.2H455
		c0.4,0,0.6,0.2,0.6,0.6c0,0.4-0.2,0.6-0.6,0.6h-12.6v14.3c0,0.9,0.2,1.8,0.6,2.6s0.9,1.5,1.6,2.1s1.4,1.1,2.3,1.4
		c0.9,0.3,1.8,0.5,2.8,0.5c0.7,0,1.4-0.1,2.1-0.4c0.7-0.2,1.3-0.6,1.9-1s1.1-0.9,1.6-1.5s0.8-1.2,1.1-1.8c0.1-0.1,0.1-0.3,0.2-0.4
		c0.1-0.1,0.2-0.2,0.4-0.2c0.3,0,0.4,0.1,0.5,0.2c0.1,0.2,0.1,0.4,0,0.6c-0.5,1.3-1.2,2.3-2,3s-1.6,1.3-2.4,1.7s-1.6,0.6-2.2,0.7
		s-1.1,0.1-1.3,0.1c-1.1,0-2.2-0.2-3.2-0.6c-1-0.4-1.9-0.9-2.7-1.6c-0.8-0.7-1.4-1.5-1.9-2.5C441.5,314.2,441.2,313.2,441.2,312z"/>
	<path class="st1" d="M459.5,319.1v-30.3c0-0.4,0.2-0.7,0.6-0.7s0.7,0.2,0.7,0.7v11.5c0.8-1.2,1.8-2.2,3.1-2.9
		c1.3-0.7,2.7-1.1,4.2-1.1c1.1,0,2.2,0.2,3.2,0.6c1,0.4,1.9,1,2.7,1.8c0.8,0.8,1.4,1.6,1.9,2.7c0.5,1,0.7,2.2,0.7,3.4v14.4
		c0,0.4-0.2,0.6-0.7,0.6c-0.4,0-0.6-0.2-0.6-0.6v-14.4c0-1-0.2-2-0.6-2.9s-1-1.7-1.6-2.3c-0.7-0.6-1.5-1.1-2.3-1.5
		c-0.9-0.4-1.7-0.5-2.7-0.5c-0.9,0-1.8,0.2-2.7,0.5c-0.9,0.3-1.6,0.8-2.3,1.4s-1.2,1.3-1.6,2.2s-0.6,1.8-0.7,2.8v14.7
		c0,0.4-0.2,0.7-0.7,0.7C459.7,319.8,459.5,319.5,459.5,319.1z"/>
	<path class="st1" d="M480.1,290.3v-1.5c0-0.4,0.2-0.7,0.6-0.7s0.7,0.2,0.7,0.7v1.5v0.1c0,0.4-0.2,0.6-0.7,0.6
		C480.3,291,480.1,290.8,480.1,290.3z M480.1,297.1c0-0.4,0.2-0.7,0.6-0.7s0.7,0.2,0.7,0.7v22c0,0.4-0.2,0.6-0.7,0.6
		c-0.4,0-0.6-0.2-0.6-0.6V297.1z"/>
	<path class="st1" d="M500.1,319.1v-14.4c0-1-0.2-2-0.6-2.9s-1-1.7-1.6-2.3c-0.7-0.6-1.5-1.1-2.3-1.5c-0.9-0.4-1.7-0.5-2.7-0.5
		s-1.9,0.2-2.8,0.5c-0.9,0.4-1.6,0.9-2.3,1.5c-0.7,0.6-1.2,1.4-1.6,2.3c-0.4,0.9-0.6,1.8-0.6,2.9v14.5c-0.1,0.4-0.3,0.6-0.7,0.6
		c-0.4,0-0.6-0.2-0.6-0.6v-14.4c0-1.2,0.2-2.3,0.7-3.4c0.5-1,1.1-1.9,1.9-2.7s1.7-1.3,2.7-1.8c1-0.4,2.1-0.6,3.2-0.6
		s2.2,0.2,3.2,0.6c1,0.4,1.9,1,2.7,1.8s1.4,1.6,1.9,2.7c0.5,1,0.7,2.2,0.7,3.4v14.4c0,0.4-0.2,0.6-0.7,0.6
		C500.3,319.8,500.1,319.6,500.1,319.1z"/>
	<path class="st1" d="M512.7,327.5c-0.1-0.4,0.1-0.7,0.6-0.7c0.9,0,1.8-0.2,2.7-0.6c0.9-0.4,1.6-0.9,2.3-1.6
		c0.7-0.6,1.2-1.4,1.6-2.2c0.4-0.8,0.6-1.7,0.7-2.6v-3.7c-0.8,1.2-1.8,2.1-3.1,2.8s-2.6,1.1-4.1,1.1c-1.1,0-2.2-0.2-3.3-0.7
		c-1-0.5-2-1.1-2.7-1.8c-0.8-0.8-1.4-1.7-1.9-2.7s-0.7-2.1-0.6-3.3v-6.8c0-1.2,0.2-2.3,0.6-3.3c0.5-1,1.1-1.9,1.9-2.7
		c0.8-0.8,1.7-1.4,2.7-1.8c1-0.4,2.1-0.7,3.3-0.7s2.2,0.2,3.2,0.6c1,0.4,1.9,1,2.7,1.8s1.4,1.6,1.9,2.7c0.5,1,0.7,2.2,0.7,3.4v6.8
		v2.8v5.5c0,1.1-0.2,2.2-0.7,3.2c-0.4,1-1,1.9-1.8,2.6s-1.7,1.3-2.7,1.8c-1,0.4-2.2,0.7-3.3,0.7C512.9,328,512.7,327.8,512.7,327.5z
		 M506.1,311.5c0,1.1,0.2,2,0.6,2.9c0.4,0.9,0.9,1.6,1.6,2.3c0.7,0.6,1.4,1.1,2.3,1.5c0.9,0.3,1.8,0.5,2.7,0.5s1.8-0.2,2.6-0.5
		s1.6-0.8,2.3-1.4c0.7-0.6,1.2-1.3,1.6-2.2c0.4-0.8,0.6-1.8,0.7-2.8v-7.1c0-1.1-0.2-2.1-0.6-3c-0.4-0.9-1-1.7-1.6-2.3
		s-1.4-1.1-2.3-1.4c-0.9-0.3-1.8-0.5-2.7-0.5c-1,0-1.9,0.2-2.8,0.5c-0.9,0.3-1.6,0.8-2.3,1.5c-0.7,0.6-1.2,1.4-1.6,2.3
		c-0.4,0.9-0.6,1.8-0.6,2.9L506.1,311.5L506.1,311.5z"/>
	<path class="st1" d="M524.9,318.7c0-0.3,0.1-0.6,0.3-0.8s0.5-0.3,0.8-0.3s0.6,0.1,0.8,0.3s0.3,0.5,0.3,0.8s-0.1,0.6-0.3,0.8
		s-0.5,0.3-0.8,0.3s-0.6-0.1-0.8-0.3S524.9,319,524.9,318.7z"/>
</g>
<line class="st0" x1="161.5" y1="417.5" x2="0" y2="209.2"/>
<line class="st0" x1="291.5" y1="364.5" x2="291.5" y2="364.5"/>
<line class="st5" x1="350.1" y1="288.1" x2="406.2" y2="189.3"/>
</svg>
