<?xml version="1.0" encoding="utf-8"?>
<!-- Generator: Adobe Illustrator 16.0.0, SVG Export Plug-In . SVG Version: 6.00 Build 0)  -->
<!DOCTYPE svg PUBLIC "-//W3C//DTD SVG 1.1//EN" "http://www.w3.org/Graphics/SVG/1.1/DTD/svg11.dtd">
<svg version="1.1" id="Layer_1" xmlns="http://www.w3.org/2000/svg" xmlns:xlink="http://www.w3.org/1999/xlink" x="0px" y="0px"
	 width="948.21px" height="324.5px" viewBox="0 0 948.21 324.5" enable-background="new 0 0 948.21 324.5" xml:space="preserve">
<g id="Layer_1_1_" display="none">
	<g display="inline" opacity="0.4" enable-background="new    ">
		<g>
			<g>
				<defs>
					<rect id="SVGID_1_" width="1366" height="768"/>
				</defs>
				<clipPath id="SVGID_2_">
					<use xlink:href="#SVGID_1_"  overflow="visible"/>
				</clipPath>
				<path clip-path="url(#SVGID_2_)" fill="#FFFFFF" d="M424.632,518.645c-34.89,0-68.604-10.483-97.502-30.321
					c-29.521-20.268-51.661-48.82-64.023-82.574c-15.801-43.142-13.855-89.853,5.477-131.528
					c19.332-41.678,53.737-73.332,96.878-89.133c19.099-6.995,38.995-10.542,59.136-10.542c34.892,0,68.607,10.486,97.501,30.323
					c29.523,20.266,51.662,48.82,64.025,82.574c32.615,89.056-13.301,188.045-102.357,220.663
					C464.669,515.098,444.773,518.645,424.632,518.645"/>
			</g>
		</g>
		<g>
			<g>
				<defs>
					<rect id="SVGID_3_" width="1366" height="768"/>
				</defs>
				<clipPath id="SVGID_4_">
					<use xlink:href="#SVGID_3_"  overflow="visible"/>
				</clipPath>
				<path clip-path="url(#SVGID_4_)" d="M424.616,187.044c32.346,0,63.61,9.728,90.415,28.131
					c27.367,18.789,47.893,45.265,59.355,76.565c14.65,40.005,12.85,83.322-5.08,121.97c-17.928,38.649-49.832,68.003-89.838,82.655
					c-17.717,6.487-36.167,9.777-54.836,9.777c-32.353,0-63.622-9.727-90.428-28.129c-27.369-18.788-47.895-45.265-59.36-76.565
					c-14.652-40.005-12.848-83.321,5.079-121.97c17.927-38.648,49.832-68.002,89.838-82.654c17.712-6.488,36.163-9.778,54.849-9.78
					H424.616 M424.599,162.044c-21.063,0.002-42.505,3.64-63.436,11.306c-95.68,35.043-144.836,141.016-109.793,236.696
					c27.378,74.751,98.031,121.099,173.263,121.099c21.065,0,42.505-3.639,63.437-11.305
					c95.68-35.044,144.836-141.017,109.793-236.697C570.484,208.391,499.832,162.037,424.599,162.044"/>
			</g>
		</g>
	</g>
	<rect x="462.5" y="278.5" display="inline" opacity="0.4" fill="#FFFFFF" enable-background="new    " width="351" height="146"/>
	<path display="inline" opacity="0.4" fill="#FFFFFF" enable-background="new    " d="M801,412H475V291h326V412z M826,266H450v171
		h376V266z"/>
	<rect x="425" y="339" display="inline" opacity="0.4" fill="#29ABE2" enable-background="new    " width="0.01" height="144"/>
	<rect x="425" y="339" display="inline" opacity="0.4" fill="#29ABE2" enable-background="new    " width="0.01" height="144"/>
	
		<line display="inline" opacity="0.4" fill="none" stroke="#D83406" stroke-width="20" stroke-miterlimit="10" enable-background="new    " x1="425.5" y1="346.5" x2="425.5" y2="484.5"/>
	
		<line display="inline" opacity="0.4" fill="none" stroke="#D83406" stroke-width="19" stroke-miterlimit="10" enable-background="new    " x1="332" y1="348.5" x2="435.5" y2="348.5"/>
	
		<line display="inline" opacity="0.4" fill="none" stroke="#000000" stroke-width="7" stroke-miterlimit="10" enable-background="new    " x1="272.162" y1="346.5" x2="319.838" y2="346.5"/>
	
		<line display="inline" opacity="0.4" fill="none" stroke="#000000" stroke-width="7" stroke-miterlimit="10" enable-background="new    " x1="346.22" y1="218.377" x2="371.78" y2="258.623"/>
	
		<line display="inline" opacity="0.4" fill="none" stroke="#000000" stroke-width="7" stroke-miterlimit="10" enable-background="new    " x1="425" y1="192.662" x2="425" y2="240.338"/>
	
		<line display="inline" opacity="0.4" fill="none" stroke="#000000" stroke-width="7" stroke-miterlimit="10" enable-background="new    " x1="501.919" y1="217.855" x2="478.082" y2="259.145"/>
	
		<line display="inline" opacity="0.4" fill="none" stroke="#000000" stroke-width="7" stroke-miterlimit="10" enable-background="new    " x1="296.194" y1="266.234" x2="335.806" y2="292.766"/>
	
		<line display="inline" opacity="0.4" fill="none" stroke="#000000" stroke-width="7" stroke-miterlimit="10" enable-background="new    " x1="508.085" y1="292.604" x2="547.914" y2="266.396"/>
	
		<text transform="matrix(1 0 0 1 429.9995 389.4004)" display="inline" opacity="0.4" fill="#FF0000" enable-background="new    " font-family="'ArialMT'" font-size="72"> IME</text>
	
		<rect x="456.711" y="339" display="inline" opacity="0.4" fill="none" stroke="#D83406" stroke-miterlimit="10" enable-background="new    " width="5.977" height="50.4"/>
	
		<polygon display="inline" opacity="0.4" fill="none" stroke="#D83406" stroke-miterlimit="10" enable-background="new    " points="
		515.031,389.4 521.007,389.4 521.007,339 516.328,339 501.279,364.632 499.046,370.393 498.904,370.393 496.527,364.775 
		480.759,339 476.294,339 476.294,389.4 481.912,389.4 481.912,355.488 480.904,348 481.263,348 483.855,354.84 497.751,377.664 
		499.55,377.664 512.656,354.912 515.39,348 515.751,348 515.031,355.561 	"/>
	
		<polygon display="inline" opacity="0.4" fill="none" stroke="#D83406" stroke-miterlimit="10" enable-background="new    " points="
		533.246,389.4 561.039,389.4 561.039,384.072 539.222,384.072 539.222,366.145 558.878,366.145 558.878,360.816 539.222,360.816 
		539.222,344.328 560.677,344.328 560.677,339 533.246,339 	"/>
	
		<text transform="matrix(1 0 0 1 562.9995 418.1992)" display="inline" opacity="0.4" enable-background="new    " font-family="'ArialMT'" font-size="170">RUNCH</text>
	<g display="inline" opacity="0.4" enable-background="new    ">
		<g>
			<g>
				<defs>
					<rect id="SVGID_5_" width="1366" height="768"/>
				</defs>
				<clipPath id="SVGID_6_">
					<use xlink:href="#SVGID_5_"  overflow="visible"/>
				</clipPath>
				<path clip-path="url(#SVGID_6_)" fill="none" stroke="#000000" stroke-miterlimit="10" d="M609.402,308.048
					c7.969,0,14.041,1.896,18.221,5.687c4.178,3.791,6.266,9.255,6.266,16.394c0,7.416-1.965,12.921-5.893,16.519
					c-3.93,3.598-9.906,5.396-17.93,5.396H591.72v-43.994H609.402L609.402,308.048z M644.886,350.174
					c4.455-5.174,6.686-11.855,6.686-20.046c0-11.621-3.625-20.503-10.875-26.646s-17.682-9.215-31.293-9.215h-34.533v123.932h16.85
					v-52.378h16.021c5.479,0,9.92,1.286,13.324,3.86c3.402,2.572,7.232,8.314,11.494,17.224l14.775,31.294h18.014l-16.852-33.867
					c-4.537-9.186-8.328-15.314-11.371-18.387c-3.045-3.071-6.723-5.159-11.041-6.268
					C634.166,358.516,640.431,355.35,644.886,350.174z"/>
			</g>
		</g>
		<g>
			<g>
				<defs>
					<rect id="SVGID_7_" width="1366" height="768"/>
				</defs>
				<clipPath id="SVGID_8_">
					<use xlink:href="#SVGID_7_"  overflow="visible"/>
				</clipPath>
				<path clip-path="url(#SVGID_8_)" fill="none" stroke="#000000" stroke-miterlimit="10" d="M679.958,397.572
					c1.604,5.45,4.316,9.892,8.135,13.32c3.707,3.268,7.912,5.7,12.617,7.307c4.703,1.604,9.961,2.407,15.771,2.407
					c5.863,0,11.148-0.805,15.854-2.407c4.703-1.604,8.881-4.039,12.533-7.307c3.873-3.484,6.6-7.896,8.178-13.237
					c1.576-5.341,2.365-14.347,2.365-27.021v-76.366h-16.77v84.17c0,5.976-0.166,10.237-0.498,12.783
					c-0.33,2.547-0.912,4.512-1.742,5.895c-1.826,3.266-4.398,5.728-7.721,7.388c-3.32,1.66-7.389,2.49-12.203,2.49
					c-4.76,0-8.813-0.83-12.158-2.49c-3.352-1.66-5.908-4.122-7.68-7.388c-0.83-1.383-1.41-3.361-1.742-5.936
					s-0.498-6.875-0.498-12.908v-84.004h-16.85v76.366C677.55,383.143,678.353,392.122,679.958,397.572z"/>
			</g>
		</g>
		<g>
			<g>
				<defs>
					<rect id="SVGID_9_" width="1366" height="768"/>
				</defs>
				<clipPath id="SVGID_10_">
					<use xlink:href="#SVGID_9_"  overflow="visible"/>
				</clipPath>
				<polygon clip-path="url(#SVGID_10_)" fill="none" stroke="#000000" stroke-miterlimit="10" points="769.275,418.199 
					787.121,418.199 787.121,316.514 835.597,418.199 858.507,418.199 858.507,294.684 840.662,294.684 840.662,396.368 
					792.185,294.684 769.275,294.684 				"/>
			</g>
		</g>
		<g>
			<g>
				<defs>
					<rect id="SVGID_11_" width="1366" height="768"/>
				</defs>
				<clipPath id="SVGID_12_">
					<use xlink:href="#SVGID_11_"  overflow="visible"/>
				</clipPath>
				<path clip-path="url(#SVGID_12_)" fill="none" stroke="#000000" stroke-miterlimit="10" d="M959.113,396.617
					c-4.039,3.376-8.398,5.949-13.074,7.72c-4.676,1.771-9.449,2.656-14.318,2.656c-10.9,0-19.063-4.205-24.484-12.617
					c-5.426-8.411-8.137-21.084-8.137-38.019c0-16.987,2.711-29.688,8.137-38.1c5.422-8.412,13.584-12.617,24.484-12.617
					c4.762,0,9.49,0.885,14.195,2.656c4.703,1.771,9.102,4.344,13.197,7.719v-17.182c-4.264-2.27-8.633-3.971-13.115-5.105
					c-4.482-1.134-9.242-1.701-14.277-1.701c-15.77,0-28.068,5.658-36.895,16.975c-8.828,11.318-13.24,27.102-13.24,47.355
					c0,20.365,4.385,36.164,13.156,47.397c8.77,11.234,21.098,16.853,36.979,16.853c5.035,0,9.795-0.568,14.277-1.701
					c4.482-1.135,8.854-2.836,13.115-5.105V396.617L959.113,396.617z"/>
			</g>
		</g>
		<g>
			<g>
				<defs>
					<rect id="SVGID_13_" width="1366" height="768"/>
				</defs>
				<clipPath id="SVGID_14_">
					<use xlink:href="#SVGID_13_"  overflow="visible"/>
				</clipPath>
				<polygon clip-path="url(#SVGID_14_)" fill="none" stroke="#000000" stroke-miterlimit="10" points="983.767,418.199 
					1000.617,418.199 1000.617,355.859 1046.521,355.859 1046.521,418.199 1063.371,418.199 1063.371,294.268 1046.521,294.268 
					1046.521,341.749 1000.617,341.749 1000.617,294.268 983.767,294.268 				"/>
			</g>
		</g>
	</g>
	
		<rect x="567.501" y="435.444" transform="matrix(1 -0.008 0.008 1 -3.5417 6.5474)" display="inline" opacity="0.4" enable-background="new    " width="498.125" height="20.993"/>
	
		<rect x="567.501" y="435.444" transform="matrix(1 -0.008 0.008 1 -3.5417 6.5474)" display="inline" opacity="0.4" fill="none" stroke="#000000" stroke-miterlimit="10" enable-background="new    " width="498.125" height="20.993"/>
</g>
<g>
	<polygon fill="#AAAAAA" points="166.269,172.581 166.269,158.249 166.234,158.249 151.935,158.249 151.901,158.249 98.255,158.249 
		98.255,172.581 151.901,172.581 151.901,260.433 151.935,260.433 166.234,260.433 166.269,260.433 166.269,190.077 
		166.269,178.599 166.234,178.599 166.234,172.581 	"/>
	<g>
		<polygon fill="#AAAAAA" points="180.946,169.368 180.946,198.093 186.798,198.093 186.798,169.368 186.798,164.683 
			180.946,164.683 		"/>
		<rect x="180.946" y="156.374" fill="#AAAAAA" width="5.852" height="5.852"/>
		<polygon fill="#AAAAAA" points="198.485,169.368 198.485,198.093 204.337,198.093 204.337,169.368 204.337,164.683 
			198.485,164.683 		"/>
		<rect x="198.485" y="156.374" fill="#AAAAAA" width="40.929" height="5.852"/>
		<polygon fill="#AAAAAA" points="216.023,169.368 216.023,198.093 221.875,198.093 221.875,169.368 221.875,164.683 
			216.023,164.683 		"/>
		<polygon fill="#AAAAAA" points="233.562,169.368 233.562,198.093 239.414,198.093 239.414,169.368 239.414,164.683 
			233.562,164.683 		"/>
		<polygon fill="#AAAAAA" points="256.951,166.077 256.951,164.683 251.1,164.683 251.1,166.077 251.1,174.618 251.1,178.836 
			251.1,179.85 251.1,180.718 251.1,192.241 251.1,198.093 274.49,198.093 274.49,192.241 256.951,192.241 256.951,180.718 
			256.951,179.85 274.49,179.85 274.49,174.618 256.951,174.618 		"/>
		<rect x="251.1" y="156.374" fill="#AAAAAA" width="23.392" height="5.852"/>
	</g>
	<polygon fill="#BC2424" points="169.451,169.399 169.451,155.067 169.416,155.067 155.118,155.067 155.083,155.067 
		101.437,155.067 101.437,169.399 155.083,169.399 155.083,257.25 155.118,257.25 169.416,257.25 169.451,257.25 169.451,186.895 
		169.451,175.417 169.416,175.417 169.416,169.399 	"/>
	<g>
		<polygon fill="#BC2424" points="182.253,168.062 182.253,196.786 188.105,196.786 188.105,168.062 188.105,163.376 
			182.253,163.376 		"/>
		<rect x="182.253" y="155.067" fill="#BC2424" width="5.854" height="5.852"/>
		<polygon fill="#BC2424" points="199.792,168.062 199.792,196.786 205.645,196.786 205.645,168.062 205.645,163.376 
			199.792,163.376 		"/>
		<rect x="199.792" y="155.067" fill="#BC2424" width="40.929" height="5.852"/>
		<polygon fill="#BC2424" points="217.33,168.062 217.33,196.786 223.182,196.786 223.182,168.062 223.182,163.376 217.33,163.376 
					"/>
		<polygon fill="#BC2424" points="234.868,168.062 234.868,196.786 240.721,196.786 240.721,168.062 240.721,163.376 
			234.868,163.376 		"/>
		<polygon fill="#BC2424" points="258.258,164.77 258.258,163.376 252.407,163.376 252.407,164.77 252.407,173.311 252.407,177.528 
			252.407,178.543 252.407,179.409 252.407,190.935 252.407,196.786 275.797,196.786 275.797,190.935 258.258,190.935 
			258.258,179.409 258.258,178.543 275.797,178.543 275.797,173.311 258.258,173.311 		"/>
		<rect x="252.407" y="155.067" fill="#BC2424" width="23.39" height="5.852"/>
	</g>
</g>
<rect x="161.25" y="29.499" fill="#FFFFFF" width="2" height="14"/>
<rect x="224.13" y="46.359" transform="matrix(0.8661 0.4999 -0.4999 0.8661 56.8267 -105.4008)" fill="#FFFFFF" width="2" height="14"/>
<rect x="224.11" y="264.189" transform="matrix(-0.8661 0.4999 -0.4999 -0.8661 555.6441 393.5221)" fill="#FFFFFF" width="2" height="14"/>
<rect x="161.203" y="281.001" fill="#FFFFFF" width="2" height="14"/>
<rect x="98.348" y="264.154" transform="matrix(-0.8659 -0.5002 0.5002 -0.8659 49.7312 555.6394)" fill="#FFFFFF" width="1.999" height="13.998"/>
<rect x="52.316" y="218.071" transform="matrix(-0.4993 -0.8664 0.8664 -0.4993 -115.0629 383.6517)" fill="#FFFFFF" width="2.001" height="14"/>
<rect x="29.5" y="161.18" fill="#FFFFFF" width="13.999" height="2"/>
<rect x="52.369" y="92.325" transform="matrix(0.5009 -0.8655 0.8655 0.5009 -59.3294 95.7695)" fill="#FFFFFF" width="2" height="14"/>
<rect x="98.45" y="46.305" transform="matrix(0.8666 -0.499 0.499 0.8666 -13.3326 56.7333)" fill="#FFFFFF" width="2" height="14"/>
<path fill="#FFFFFF" d="M367.389,174.021c-9.334,0-17.555,3.438-24.658,10.313c-6.938,6.876-10.402,15.169-10.402,24.879v76.956
	h-22.043v-132h22.043l-0.129,15.211c9.623-11.603,21.354-17.402,35.189-17.402V174.021L367.389,174.021z"/>
<path fill="#FFFFFF" d="M487.272,270.057c-10.658,11.946-23.85,17.918-39.574,17.918c-15.211,0-27.889-5.714-38.027-17.145
	c-9.797-11.171-14.695-24.405-14.695-39.703V154.17h22.043v76.957c0,9.712,3.432,18.005,10.295,24.879
	c7.117,6.876,15.396,10.313,24.834,10.313c9.689,0,17.971-3.437,24.832-10.313c6.861-6.874,10.295-15.167,10.295-24.879V154.17
	h22.043v132h-22.043L487.272,270.057L487.272,270.057z"/>
<path fill="#FFFFFF" d="M645.698,209.213c0-9.71-3.434-18.003-10.295-24.879c-6.861-6.874-15.143-10.313-24.832-10.313
	c-9.439,0-17.715,3.438-24.834,10.313c-6.863,6.876-10.293,15.169-10.293,24.879v76.957h-22.043v-132h22.043l-0.131,16.112
	c10.654-12.201,23.891-18.305,39.703-18.305c15.037,0,27.717,5.846,38.027,17.531c9.797,11.259,14.695,24.492,14.695,39.703v76.958
	h-22.041V209.213z"/>
<path fill="#FFFFFF" d="M926.168,209.213c0-9.71-3.432-18.003-10.295-24.879c-6.861-6.874-15.141-10.313-24.832-10.313
	c-9.438,0-17.715,3.438-24.834,10.313c-6.863,6.876-10.293,15.169-10.293,24.879v76.957h-22.043V-0.001h22.043l-0.129,170.283
	c10.654-12.201,23.889-18.305,39.703-18.305c15.037,0,27.715,5.846,38.025,17.531c9.799,11.259,14.695,24.492,14.695,39.703v76.958
	h-22.043L926.168,209.213L926.168,209.213z"/>
<path fill="#FFFFFF" d="M162.25,302.5C84.79,302.5,22,239.71,22,162.249c0-77.459,62.79-140.25,140.25-140.25
	c38.73,0,73.79,15.701,99.17,41.08l15.562-15.56c-14.9-14.89-32.25-26.59-51.57-34.76C205.39,4.29,184.14-0.001,162.251-0.001
	s-43.14,4.291-63.16,12.761c-19.33,8.17-36.67,19.87-51.57,34.76c-14.89,14.9-26.59,32.25-34.76,51.57
	c-8.47,20.021-12.76,41.271-12.76,63.159c0,21.891,4.29,43.141,12.76,63.162c8.17,19.318,19.87,36.67,34.76,51.568
	c14.9,14.892,32.24,26.59,51.57,34.76c20.021,8.472,41.271,12.762,63.16,12.762s43.14-4.29,63.16-12.762
	c19.32-8.17,36.67-19.868,51.57-34.76l-15.562-15.561C236.04,286.8,200.98,302.5,162.25,302.5z"/>
<path fill="#FFFFFF" d="M759.788,265.975c-24.691,0-44.701-20.02-44.701-44.71c0-24.689,20.01-44.71,44.701-44.71
	c12.33,0,23.51,5,31.6,13.09l15.539-15.54c-12.08-12.07-28.738-19.55-47.139-19.55c-36.781,0-66.701,29.931-66.701,66.71
	c0,36.78,29.92,66.71,66.701,66.71c18.398,0,35.059-7.479,47.139-19.55l-15.539-15.54
	C783.297,260.975,772.118,265.975,759.788,265.975z"/>
</svg>
