<?xml version="1.0" encoding="utf-8"?>
<!-- Generator: Adobe Illustrator 16.0.0, SVG Export Plug-In . SVG Version: 6.00 Build 0)  -->
<!DOCTYPE svg PUBLIC "-//W3C//DTD SVG 1.1//EN" "http://www.w3.org/Graphics/SVG/1.1/DTD/svg11.dtd">
<svg version="1.1" id="Layer_1" xmlns="http://www.w3.org/2000/svg" xmlns:xlink="http://www.w3.org/1999/xlink" x="0px" y="0px"
	 width="216px" height="72px" viewBox="42.07 112.202 216 72" enable-background="new 42.07 112.202 216 72" xml:space="preserve">
<g>
	<path fill="#FFFFFF" d="M122.008,173.132h-4.62c-1.207-3.069-2.133-4.964-2.778-5.684s-1.686-1.08-3.121-1.08
		c-0.604,0-1.181,0.005-1.732,0.013c0,2.229,0.046,4.478,0.141,6.75h-4.339c0.135-2.619,0.203-5.571,0.203-8.857
		c0-3.156-0.067-5.848-0.203-8.077h2.7c0.312,0,0.964-0.013,1.958-0.039c0.993-0.026,1.912-0.039,2.755-0.039
		c4.775,0,7.164,1.361,7.164,4.083c0,2.16-1.364,3.664-4.089,4.514v0.195c1.051,0.243,1.971,0.925,2.762,2.048
		C119.599,168.083,120.666,170.14,122.008,173.132L122.008,173.132z M116.155,161.167c0-1.726-1.332-2.588-3.995-2.588
		c-0.978,0-1.842,0.062-2.591,0.183c0.115,1.344,0.172,3.095,0.172,5.254c0.572,0.017,1.056,0.026,1.452,0.026
		C114.501,164.041,116.155,163.083,116.155,161.167L116.155,161.167z"/>
	<path fill="#FFFFFF" d="M138.294,170.272l-0.125,2.861h-13.281c0.135-2.618,0.203-5.57,0.203-8.856
		c0-3.156-0.068-5.848-0.203-8.076h12.672l-0.172,2.847c-3.121-0.138-5.951-0.208-8.49-0.208c0.104,1.206,0.156,2.627,0.156,4.267
		c2.175,0,4.5-0.048,6.977-0.144v2.718c-2.435-0.087-4.76-0.13-6.977-0.13c0,1.76,0.042,3.407,0.125,4.942
		C132.03,170.493,135.068,170.419,138.294,170.272z"/>
	<path fill="#FFFFFF" d="M155.295,168.516c0,3.39-2.923,5.084-8.771,5.084c-1.987,0-3.834-0.199-5.541-0.597l0.765-2.901
		c1.686,0.486,3.277,0.729,4.776,0.729c1.664,0,2.861-0.134,3.589-0.404c0.728-0.269,1.092-0.719,1.092-1.352
		c0-0.658-0.343-1.214-1.029-1.665c-0.593-0.398-1.795-0.918-3.605-1.56c-1.645-0.59-2.867-1.232-3.668-1.925
		c-1.009-0.875-1.514-1.955-1.514-3.238c0-1.492,0.664-2.657,1.99-3.499c1.327-0.841,3.233-1.262,5.72-1.262
		c2.039,0,3.75,0.143,5.134,0.43l-0.577,2.887c-1.404-0.425-2.924-0.637-4.557-0.637c-2.456,0-3.683,0.546-3.683,1.639
		c0,0.581,0.286,1.053,0.858,1.418c0.5,0.312,1.586,0.75,3.262,1.313c1.778,0.599,3.111,1.258,3.995,1.978
		C154.708,165.915,155.295,167.103,155.295,168.516L155.295,168.516z"/>
	<path fill="#FFFFFF" d="M173.859,160.635c0,2.072-0.924,3.603-2.771,4.591c-1.847,0.989-4.112,1.483-6.796,1.483
		c-0.489,0-0.837-0.009-1.046-0.027c0,1.631,0.058,3.781,0.171,6.451h-4.385c0.135-2.505,0.203-5.457,0.203-8.856
		c0-3.121-0.067-5.814-0.203-8.077h2.716c0.384,0,1.124-0.013,2.215-0.04c1.093-0.025,2.039-0.038,2.84-0.038
		c1.977,0,3.647,0.373,5.01,1.118C173.178,157.986,173.859,159.117,173.859,160.635z M169.833,161.35
		c0-1.856-1.478-2.783-4.433-2.783c-0.739,0-1.52,0.065-2.341,0.195c0.115,1.638,0.172,3.494,0.172,5.566
		c0.259,0.018,0.562,0.026,0.905,0.026C167.934,164.354,169.833,163.353,169.833,161.35L169.833,161.35z"/>
	<path fill="#FFFFFF" d="M195.904,164.353c0,2.662-0.978,4.869-2.934,6.619c-1.957,1.752-4.375,2.627-7.257,2.627
		c-2.747,0-5.046-0.805-6.899-2.413c-1.852-1.608-2.778-3.652-2.778-6.131c0-2.662,0.978-4.869,2.934-6.62
		c1.956-1.751,4.375-2.626,7.257-2.626c2.747,0,5.046,0.801,6.898,2.406C194.978,159.818,195.904,161.864,195.904,164.353z
		 M191.596,164.73c0-1.812-0.557-3.281-1.67-4.409c-1.113-1.126-2.487-1.691-4.12-1.691c-1.52,0-2.81,0.569-3.871,1.704
		c-1.062,1.136-1.592,2.571-1.592,4.304c0,1.804,0.56,3.271,1.678,4.403c1.118,1.131,2.49,1.697,4.111,1.697
		c1.521,0,2.81-0.57,3.871-1.711C191.066,167.888,191.596,166.455,191.596,164.73L191.596,164.73z"/>
	<path fill="#FFFFFF" d="M216.385,173.132h-3.854c0-0.356-1.431-2.232-4.292-5.631c-2.997-3.581-4.703-6.031-5.119-7.349h-0.25
		c0.26,1.898,0.39,3.615,0.39,5.15c0,2.142,0.073,4.752,0.219,7.83h-3.839c0.155-2.688,0.234-5.64,0.234-8.857
		c0-3.165-0.079-5.856-0.234-8.076h4.635c0,0.459,1.285,2.293,3.854,5.501c2.737,3.407,4.308,5.718,4.713,6.932h0.234
		c-0.25-1.933-0.374-3.668-0.374-5.202c0-2.35-0.073-4.76-0.219-7.231h3.901c-0.146,2.149-0.218,4.842-0.218,8.076
		C216.167,167.535,216.238,170.487,216.385,173.132L216.385,173.132z"/>
	<path fill="#FFFFFF" d="M234.433,168.516c0,3.39-2.923,5.084-8.771,5.084c-1.987,0-3.833-0.199-5.54-0.597l0.764-2.901
		c1.686,0.486,3.278,0.729,4.776,0.729c1.665,0,2.861-0.134,3.59-0.404c0.728-0.269,1.093-0.719,1.093-1.352
		c0-0.658-0.343-1.214-1.031-1.665c-0.593-0.398-1.794-0.918-3.604-1.56c-1.644-0.59-2.867-1.232-3.668-1.925
		c-1.008-0.875-1.513-1.955-1.513-3.238c0-1.492,0.663-2.657,1.99-3.499c1.327-0.841,3.232-1.262,5.72-1.262
		c2.039,0,3.751,0.143,5.135,0.43l-0.578,2.887c-1.404-0.425-2.923-0.637-4.557-0.637c-2.456,0-3.683,0.546-3.683,1.639
		c0,0.581,0.285,1.053,0.858,1.418c0.5,0.312,1.586,0.75,3.262,1.313c1.78,0.599,3.111,1.258,3.996,1.978
		C233.846,165.915,234.433,167.103,234.433,168.516z"/>
	<path fill="#FFFFFF" d="M251.575,170.272l-0.125,2.861h-13.281c0.135-2.618,0.203-5.57,0.203-8.856
		c0-3.156-0.068-5.848-0.203-8.076h12.673l-0.172,2.848c-3.121-0.139-5.952-0.208-8.49-0.208c0.104,1.206,0.156,2.627,0.156,4.267
		c2.174,0,4.499-0.048,6.976-0.144v2.718c-2.435-0.087-4.759-0.13-6.976-0.13c0,1.76,0.042,3.407,0.124,4.942
		C245.312,170.493,248.349,170.419,251.575,170.272z"/>
</g>
<linearGradient id="SVGID_1_" gradientUnits="userSpaceOnUse" x1="163.2476" y1="1192.1736" x2="163.2476" y2="1178.147" gradientTransform="matrix(0.463 0 0 0.463 -14.1957 -427.7824)">
	<stop  offset="0" style="stop-color:#FFFFFF"/>
	<stop  offset="1" style="stop-color:#000000"/>
</linearGradient>
<path fill="url(#SVGID_1_)" d="M73.055,126.622l-0.158,4.047c-3.012-0.188-5.851-0.282-8.516-0.282
	c-0.03,2.372-0.045,5.014-0.045,7.924c0,4.518,0.083,8.791,0.249,12.819h-6.325c0.195-3.991,0.293-8.264,0.293-12.819
	c0-2.861-0.03-5.502-0.09-7.924c-2.123,0-5.037,0.101-8.741,0.301l0.181-4.066L73.055,126.622L73.055,126.622L73.055,126.622z"/>
<linearGradient id="SVGID_2_" gradientUnits="userSpaceOnUse" x1="284.3745" y1="1192.1736" x2="284.3745" y2="1178.147" gradientTransform="matrix(0.463 0 0 0.463 -14.1957 -427.7824)">
	<stop  offset="0" style="stop-color:#FFFFFF"/>
	<stop  offset="1" style="stop-color:#000000"/>
</linearGradient>
<path fill="url(#SVGID_2_)" d="M129.137,126.622l-0.158,4.047c-3.012-0.188-5.851-0.282-8.516-0.282
	c-0.03,2.372-0.045,5.014-0.045,7.924c0,4.518,0.083,8.791,0.248,12.819h-6.325c0.196-3.991,0.294-8.264,0.294-12.819
	c0-2.861-0.03-5.502-0.09-7.924c-2.124,0-5.038,0.101-8.742,0.301l0.181-4.066L129.137,126.622L129.137,126.622z"/>
<linearGradient id="SVGID_3_" gradientUnits="userSpaceOnUse" x1="341.0151" y1="1192.1716" x2="341.0151" y2="1178.144" gradientTransform="matrix(0.463 0 0 0.463 -14.1957 -427.7824)">
	<stop  offset="0" style="stop-color:#FFFFFF"/>
	<stop  offset="1" style="stop-color:#000000"/>
</linearGradient>
<path fill="url(#SVGID_3_)" d="M158.015,151.13h-7.228c0-0.829-0.686-3.175-2.056-7.04h-10.436c-1.416,3.802-2.123,6.149-2.123,7.04
	h-6.799c0-0.489,1.758-4.505,5.275-12.047c3.516-7.542,5.274-11.695,5.274-12.461h8.539c0,0.715,1.593,4.81,4.777,12.282
	C156.422,146.377,158.015,150.452,158.015,151.13z M147.579,140.494c-2.575-6.476-3.862-9.977-3.862-10.504h-0.362
	c0,0.489-1.333,3.991-3.998,10.504H147.579z"/>
<linearGradient id="SVGID_4_" gradientUnits="userSpaceOnUse" x1="400.8696" y1="1192.1716" x2="400.8696" y2="1178.144" gradientTransform="matrix(0.463 0 0 0.463 -14.1957 -427.7824)">
	<stop  offset="0" style="stop-color:#FFFFFF"/>
	<stop  offset="1" style="stop-color:#000000"/>
</linearGradient>
<path fill="url(#SVGID_4_)" d="M180.882,147.03l-0.18,4.103h-18.771c0.181-3.4,0.271-7.673,0.271-12.819
	c0-4.718-0.09-8.614-0.271-11.689h6.348c-0.181,2.849-0.271,6.745-0.271,11.689c0,3.777-0.098,6.776-0.293,8.998
	C171.869,147.312,176.259,147.218,180.882,147.03L180.882,147.03z"/>
<linearGradient id="SVGID_5_" gradientUnits="userSpaceOnUse" x1="223.9287" y1="1289.5623" x2="223.9287" y2="1188.8566" gradientTransform="matrix(0.463 0 0 0.463 -14.1957 -427.7824)">
	<stop  offset="0" style="stop-color:#4064AD"/>
	<stop  offset="0.1775" style="stop-color:#3E5992"/>
	<stop  offset="0.5647" style="stop-color:#2F3C59"/>
	<stop  offset="1" style="stop-color:#0F151D"/>
</linearGradient>
<path fill="url(#SVGID_5_)" d="M89.113,172.932c-0.154-0.151-15.401-15.417-15.401-33.948c0-8.696,7.075-15.771,15.771-15.771
	c8.696,0,15.771,7.075,15.771,15.771c0,18.532-15.248,33.797-15.402,33.948l-0.369,0.365L89.113,172.932z"/>
<path fill="#FFFFFF" d="M89.485,123.737c8.419,0,15.245,6.826,15.245,15.245c0,18.526-15.245,33.575-15.245,33.575
	S74.24,157.509,74.24,138.982C74.24,130.563,81.065,123.737,89.485,123.737 M89.485,122.686c-8.986,0-16.296,7.311-16.296,16.296
	c0,9.82,4.232,18.631,7.783,24.292c3.832,6.112,7.616,9.872,7.775,10.03l0.738,0.729l0.738-0.729
	c0.159-0.158,3.943-3.918,7.774-10.03c3.551-5.661,7.784-14.473,7.784-24.292C105.781,129.997,98.471,122.686,89.485,122.686z"/>
<circle fill="#FFFFFF" cx="89.485" cy="138.983" r="12.179"/>
<polygon fill="#ED1E33" points="87.028,146.651 91.938,146.651 91.938,141.436 97.149,141.436 97.149,136.529 91.945,136.539 
	91.938,131.318 87.028,131.318 87.028,136.529 81.817,136.529 81.817,141.436 87.028,141.436 "/>
</svg>
