<?xml version="1.0" encoding="utf-8"?>
<!-- Generator: Adobe Illustrator 16.0.0, SVG Export Plug-In . SVG Version: 6.00 Build 0)  -->
<!DOCTYPE svg PUBLIC "-//W3C//DTD SVG 1.1//EN" "http://www.w3.org/Graphics/SVG/1.1/DTD/svg11.dtd">
<svg version="1.1" id="Layer_1" xmlns="http://www.w3.org/2000/svg" xmlns:xlink="http://www.w3.org/1999/xlink" x="0px" y="0px"
	 width="216px" height="72px" viewBox="595.57 138.635 216 72" enable-background="new 595.57 138.635 216 72" xml:space="preserve"
	>
<g>
	<path fill="#FFFFFF" d="M675.089,198.82h-4.603c-1.202-3.059-2.124-4.945-2.767-5.662c-0.643-0.718-1.681-1.076-3.109-1.076
		c-0.603,0-1.178,0.005-1.727,0.014c0,2.22,0.046,4.46,0.14,6.725h-4.323c0.134-2.609,0.203-5.55,0.203-8.825
		c0-3.143-0.068-5.826-0.203-8.044h2.69c0.311,0,0.961-0.015,1.952-0.04c0.99-0.026,1.904-0.038,2.745-0.038
		c4.757,0,7.137,1.354,7.137,4.066c0,2.151-1.359,3.651-4.073,4.497v0.195c1.046,0.24,1.962,0.922,2.751,2.038
		C672.689,193.791,673.752,195.839,675.089,198.82L675.089,198.82z M669.259,186.9c0-1.722-1.327-2.58-3.98-2.58
		c-0.974,0-1.834,0.061-2.582,0.182c0.114,1.34,0.171,3.085,0.171,5.234c0.57,0.018,1.052,0.025,1.446,0.025
		C667.61,189.761,669.259,188.808,669.259,186.9L669.259,186.9z"/>
	<path fill="#FFFFFF" d="M691.315,195.971l-0.124,2.85H677.96c0.133-2.609,0.202-5.549,0.202-8.824c0-3.143-0.067-5.826-0.202-8.045
		h12.625l-0.172,2.837c-3.109-0.14-5.929-0.208-8.458-0.208c0.104,1.201,0.155,2.616,0.155,4.251c2.167,0,4.484-0.049,6.952-0.143
		v2.707c-2.426-0.086-4.743-0.128-6.952-0.128c0,1.753,0.042,3.394,0.125,4.921C685.074,196.189,688.101,196.117,691.315,195.971z"
		/>
	<path fill="#FFFFFF" d="M708.253,194.221c0,3.377-2.913,5.064-8.737,5.064c-1.98,0-3.821-0.197-5.52-0.595l0.761-2.889
		c1.68,0.484,3.265,0.726,4.759,0.726c1.657,0,2.85-0.134,3.575-0.402c0.726-0.268,1.089-0.717,1.089-1.347
		c0-0.657-0.344-1.209-1.027-1.659c-0.59-0.396-1.789-0.914-3.591-1.554c-1.637-0.589-2.856-1.229-3.654-1.919
		c-1.005-0.871-1.508-1.946-1.508-3.226c0-1.486,0.661-2.646,1.982-3.485c1.321-0.839,3.222-1.257,5.698-1.257
		c2.03,0,3.736,0.142,5.115,0.429l-0.576,2.876c-1.4-0.425-2.911-0.636-4.539-0.636c-2.445,0-3.668,0.544-3.668,1.634
		c0,0.578,0.284,1.049,0.855,1.412c0.496,0.311,1.58,0.747,3.249,1.308c1.771,0.596,3.099,1.253,3.978,1.97
		C707.669,191.63,708.253,192.814,708.253,194.221L708.253,194.221z"/>
	<path fill="#FFFFFF" d="M726.748,186.369c0,2.065-0.921,3.588-2.761,4.574c-1.84,0.984-4.097,1.476-6.771,1.476
		c-0.487,0-0.832-0.007-1.042-0.025c0,1.624,0.06,3.767,0.17,6.427h-4.367c0.135-2.496,0.202-5.438,0.202-8.823
		c0-3.109-0.067-5.792-0.202-8.046h2.706c0.384,0,1.119-0.013,2.208-0.04c1.089-0.026,2.03-0.038,2.828-0.038
		c1.971,0,3.635,0.371,4.992,1.113C726.068,183.731,726.748,184.857,726.748,186.369z M722.737,187.082
		c0-1.848-1.474-2.771-4.415-2.771c-0.738,0-1.516,0.063-2.335,0.192c0.115,1.634,0.173,3.481,0.173,5.546
		c0.259,0.019,0.561,0.026,0.902,0.026C720.846,190.075,722.737,189.077,722.737,187.082L722.737,187.082z"/>
	<path fill="#FFFFFF" d="M748.71,190.073c0,2.652-0.973,4.851-2.922,6.595c-1.949,1.745-4.36,2.616-7.229,2.616
		c-2.737,0-5.028-0.801-6.873-2.402c-1.846-1.602-2.769-3.638-2.769-6.108c0-2.652,0.974-4.851,2.923-6.595
		c1.948-1.746,4.357-2.618,7.229-2.618c2.739,0,5.026,0.799,6.873,2.397C747.787,185.556,748.71,187.594,748.71,190.073z
		 M744.418,190.449c0-1.807-0.553-3.27-1.664-4.392c-1.108-1.124-2.477-1.686-4.102-1.686c-1.514,0-2.8,0.566-3.859,1.697
		c-1.055,1.132-1.584,2.562-1.584,4.289c0,1.797,0.559,3.259,1.67,4.386c1.113,1.126,2.481,1.692,4.097,1.692
		c1.514,0,2.8-0.569,3.856-1.706C743.892,193.596,744.418,192.169,744.418,190.449L744.418,190.449z"/>
	<path fill="#FFFFFF" d="M769.116,198.82h-3.84c0-0.354-1.428-2.224-4.277-5.61c-2.985-3.568-4.685-6.009-5.1-7.321h-0.248
		c0.26,1.892,0.389,3.603,0.389,5.131c0,2.134,0.071,4.734,0.218,7.801h-3.825c0.156-2.678,0.234-5.62,0.234-8.825
		c0-3.152-0.078-5.834-0.234-8.044h4.618c0,0.456,1.279,2.283,3.839,5.48c2.729,3.394,4.294,5.696,4.697,6.904h0.234
		c-0.25-1.926-0.375-3.653-0.375-5.183c0-2.341-0.072-4.742-0.218-7.205h3.888c-0.146,2.143-0.219,4.826-0.219,8.047
		C768.897,193.243,768.969,196.185,769.116,198.82L769.116,198.82z"/>
	<path fill="#FFFFFF" d="M787.097,194.221c0,3.377-2.911,5.064-8.738,5.064c-1.979,0-3.819-0.197-5.519-0.595l0.761-2.889
		c1.68,0.484,3.266,0.726,4.758,0.726c1.66,0,2.853-0.134,3.576-0.402c0.728-0.268,1.089-0.717,1.089-1.347
		c0-0.657-0.342-1.209-1.026-1.659c-0.592-0.396-1.787-0.914-3.592-1.554c-1.637-0.589-2.855-1.229-3.653-1.919
		c-1.006-0.871-1.509-1.946-1.509-3.226c0-1.486,0.662-2.646,1.982-3.485c1.324-0.839,3.222-1.257,5.7-1.257
		c2.031,0,3.736,0.142,5.115,0.429l-0.578,2.876c-1.396-0.425-2.91-0.636-4.537-0.636c-2.446,0-3.67,0.544-3.67,1.634
		c0,0.578,0.283,1.049,0.854,1.412c0.498,0.311,1.58,0.747,3.25,1.308c1.772,0.596,3.099,1.253,3.981,1.97
		C786.513,191.63,787.097,192.814,787.097,194.221z"/>
	<path fill="#FFFFFF" d="M804.175,195.971l-0.124,2.85h-13.232c0.135-2.609,0.203-5.549,0.203-8.824
		c0-3.144-0.068-5.826-0.203-8.045h12.626l-0.171,2.837c-3.109-0.14-5.93-0.208-8.459-0.208c0.104,1.201,0.155,2.616,0.155,4.251
		c2.166,0,4.483-0.049,6.95-0.143v2.707c-2.425-0.086-4.742-0.128-6.95-0.128c0,1.753,0.041,3.394,0.124,4.921
		C797.934,196.189,800.961,196.117,804.175,195.971z"/>
</g>
<linearGradient id="SVGID_1_" gradientUnits="userSpaceOnUse" x1="1358.2949" y1="1248.0447" x2="1358.2949" y2="1234.0698" gradientTransform="matrix(0.463 0 0 0.463 -14.1957 -427.7824)">
	<stop  offset="0" style="stop-color:#FFFFFF"/>
	<stop  offset="1" style="stop-color:#000000"/>
</linearGradient>
<path fill="url(#SVGID_1_)" d="M626.318,152.481l-0.157,4.032c-3.001-0.188-5.829-0.281-8.485-0.281
	c-0.03,2.363-0.045,4.995-0.045,7.895c0,4.502,0.083,8.759,0.248,12.772h-6.301c0.195-3.976,0.292-8.233,0.292-12.772
	c0-2.85-0.03-5.482-0.09-7.895c-2.115,0-5.018,0.1-8.708,0.3l0.18-4.052L626.318,152.481L626.318,152.481L626.318,152.481z"/>
<linearGradient id="SVGID_2_" gradientUnits="userSpaceOnUse" x1="1478.9717" y1="1248.0447" x2="1478.9717" y2="1234.0698" gradientTransform="matrix(0.463 0 0 0.463 -14.1957 -427.7824)">
	<stop  offset="0" style="stop-color:#FFFFFF"/>
	<stop  offset="1" style="stop-color:#000000"/>
</linearGradient>
<path fill="url(#SVGID_2_)" d="M682.192,152.481l-0.158,4.032c-3-0.188-5.829-0.281-8.483-0.281
	c-0.03,2.363-0.045,4.995-0.045,7.895c0,4.502,0.083,8.759,0.248,12.772h-6.302c0.195-3.976,0.293-8.233,0.293-12.772
	c0-2.85-0.03-5.482-0.091-7.895c-2.115,0-5.018,0.1-8.708,0.3l0.18-4.052L682.192,152.481L682.192,152.481z"/>
<linearGradient id="SVGID_3_" gradientUnits="userSpaceOnUse" x1="1535.4004" y1="1248.0427" x2="1535.4004" y2="1234.0669" gradientTransform="matrix(0.463 0 0 0.463 -14.1957 -427.7824)">
	<stop  offset="0" style="stop-color:#FFFFFF"/>
	<stop  offset="1" style="stop-color:#000000"/>
</linearGradient>
<path fill="url(#SVGID_3_)" d="M710.962,176.899h-7.2c0-0.825-0.685-3.164-2.049-7.014h-10.396
	c-1.411,3.788-2.116,6.126-2.116,7.014h-6.774c0-0.487,1.751-4.489,5.255-12.004c3.503-7.514,5.255-11.651,5.255-12.415h8.507
	c0,0.713,1.585,4.792,4.758,12.237C709.376,172.163,710.962,176.224,710.962,176.899z M700.566,166.303
	c-2.565-6.452-3.848-9.94-3.848-10.466h-0.36c0,0.488-1.329,3.977-3.985,10.466H700.566z"/>
<linearGradient id="SVGID_4_" gradientUnits="userSpaceOnUse" x1="1595.0322" y1="1248.0447" x2="1595.0322" y2="1234.0684" gradientTransform="matrix(0.463 0 0 0.463 -14.1957 -427.7824)">
	<stop  offset="0" style="stop-color:#FFFFFF"/>
	<stop  offset="1" style="stop-color:#000000"/>
</linearGradient>
<path fill="url(#SVGID_4_)" d="M733.745,172.813l-0.179,4.09h-18.703c0.18-3.389,0.27-7.646,0.27-12.773
	c0-4.701-0.09-8.583-0.27-11.646h6.325c-0.18,2.838-0.271,6.72-0.271,11.646c0,3.764-0.098,6.751-0.29,8.965
	C724.766,173.094,729.138,173.001,733.745,172.813L733.745,172.813z"/>
<linearGradient id="SVGID_5_" gradientUnits="userSpaceOnUse" x1="1418.75" y1="1345.073" x2="1418.75" y2="1244.7418" gradientTransform="matrix(0.463 0 0 0.463 -14.1957 -427.7824)">
	<stop  offset="0" style="stop-color:#4064AD"/>
	<stop  offset="0.1775" style="stop-color:#3E5992"/>
	<stop  offset="0.5647" style="stop-color:#2F3C59"/>
	<stop  offset="1" style="stop-color:#0F151D"/>
</linearGradient>
<path fill="url(#SVGID_5_)" d="M642.317,198.621c-0.153-0.152-15.345-15.361-15.345-33.823c0-8.665,7.048-15.712,15.713-15.712
	c8.663,0,15.712,7.048,15.712,15.712c0,18.461-15.191,33.67-15.344,33.823l-0.368,0.362L642.317,198.621z"/>
<path fill="#FFFFFF" d="M642.688,149.608c8.388,0,15.188,6.801,15.188,15.189c0,18.458-15.188,33.45-15.188,33.45
	s-15.189-14.992-15.189-33.45C627.499,156.408,634.299,149.608,642.688,149.608 M642.688,148.56
	c-8.953,0-16.236,7.283-16.236,16.236c0,9.783,4.215,18.563,7.753,24.202c3.818,6.089,7.587,9.835,7.746,9.992l0.736,0.728
	l0.735-0.728c0.159-0.157,3.928-3.903,7.746-9.992c3.538-5.64,7.754-14.419,7.754-24.202
	C658.924,155.844,651.639,148.56,642.688,148.56z"/>
<circle fill="#FFFFFF" cx="642.688" cy="164.797" r="12.134"/>
<polygon fill="#ED1E33" points="640.239,172.437 645.131,172.437 645.131,167.241 650.323,167.241 650.323,162.352 645.139,162.363 
	645.131,157.16 640.239,157.16 640.239,162.352 635.048,162.352 635.048,167.241 640.239,167.241 "/>
</svg>
