<?xml version="1.0" encoding="utf-8"?>
<!-- Generator: Adobe Illustrator 16.0.0, SVG Export Plug-In . SVG Version: 6.00 Build 0)  -->
<!DOCTYPE svg PUBLIC "-//W3C//DTD SVG 1.1//EN" "http://www.w3.org/Graphics/SVG/1.1/DTD/svg11.dtd">
<svg version="1.1" id="Layer_1" xmlns="http://www.w3.org/2000/svg" xmlns:xlink="http://www.w3.org/1999/xlink" x="0px" y="0px"
	 width="1407.141px" height="349.269px" viewBox="-555.751 -26.275 1407.141 349.269"
	 enable-background="new -555.751 -26.275 1407.141 349.269" xml:space="preserve">
<g>
	<path fill="#FFFFFF" d="M-44.163,316.863h-31.425c-8.208-20.878-14.507-33.766-18.894-38.659
		c-4.388-4.897-11.466-7.346-21.231-7.346c-4.105,0-8.033,0.035-11.784,0.086c0,15.159,0.316,30.462,0.956,45.919h-29.512
		c0.917-17.811,1.379-37.894,1.379-60.246c0-21.467-0.46-39.779-1.379-54.936h18.366c2.124,0,6.562-0.092,13.323-0.263
		c6.755-0.179,13.003-0.265,18.738-0.265c32.482,0,48.726,9.256,48.726,27.772c0,14.688-9.274,24.921-27.812,30.702v1.328
		c7.147,1.649,13.409,6.295,18.789,13.93C-60.551,282.52-53.295,296.509-44.163,316.863L-44.163,316.863z M-83.973,235.472
		c0-11.736-9.062-17.604-27.176-17.604c-6.653,0-12.527,0.417-17.623,1.242c0.78,9.142,1.17,21.05,1.17,35.737
		c3.889,0.116,7.18,0.177,9.873,0.177C-95.227,255.024-83.973,248.508-83.973,235.472L-83.973,235.472z"/>
	<path fill="#FFFFFF" d="M66.615,297.409l-0.847,19.461h-90.339c0.917-17.808,1.38-37.89,1.38-60.243
		c0-21.467-0.46-39.779-1.38-54.935h86.198l-1.169,19.369c-21.231-0.941-40.482-1.413-57.75-1.413
		c0.707,8.201,1.061,17.87,1.061,29.021c14.792,0,30.608-0.328,47.454-0.976v18.489c-16.562-0.589-32.378-0.886-47.454-0.886
		c0,11.973,0.281,23.176,0.851,33.615C24.009,298.912,44.672,298.409,66.615,297.409z"/>
	<path fill="#FFFFFF" d="M182.257,285.467c0,23.06-19.887,34.584-59.658,34.584c-13.519,0-26.08-1.353-37.688-4.063l5.201-19.732
		c11.468,3.31,22.294,4.959,32.485,4.959c11.321,0,19.46-0.914,24.416-2.745c4.953-1.831,7.427-4.894,7.427-9.197
		c0-4.479-2.334-8.256-7.003-11.325c-4.033-2.71-12.209-6.25-24.521-10.614c-11.184-4.012-19.498-8.378-24.949-13.095
		c-6.864-5.952-10.295-13.294-10.295-22.024c0-10.146,4.513-18.072,13.537-23.795c9.023-5.721,21.989-8.582,38.905-8.582
		c13.869,0,25.51,0.969,34.922,2.92l-3.926,19.637c-9.554-2.893-19.889-4.33-30.996-4.33c-16.702,0-25.051,3.713-25.051,11.144
		c0,3.953,1.943,7.165,5.837,9.646c3.397,2.122,10.792,5.104,22.186,8.93c12.098,4.073,21.161,8.558,27.174,13.452
		C178.26,267.771,182.257,275.853,182.257,285.467L182.257,285.467z"/>
	<path fill="#FFFFFF" d="M308.532,231.853c0,14.095-6.285,24.504-18.847,31.227c-12.561,6.729-27.969,10.087-46.227,10.087
		c-3.33,0-5.698-0.06-7.116-0.182c0,11.094,0.394,25.718,1.167,43.879h-29.829c0.921-17.041,1.379-37.119,1.379-60.24
		c0-21.23-0.458-39.545-1.379-54.938h18.476c2.615,0,7.644-0.085,15.07-0.267c7.432-0.175,13.869-0.261,19.318-0.261
		c13.447,0,24.806,2.533,34.08,7.603C303.896,213.84,308.532,221.534,308.532,231.853z M281.146,236.721
		c0-12.623-10.052-18.928-30.15-18.928c-5.028,0-10.338,0.441-15.926,1.327c0.78,11.143,1.173,23.765,1.173,37.859
		c1.76,0.12,3.821,0.175,6.154,0.175C268.225,257.154,281.146,250.343,281.146,236.721L281.146,236.721z"/>
	<path fill="#FFFFFF" d="M458.478,257.146c0,18.106-6.653,33.116-19.958,45.023c-13.307,11.918-29.76,17.873-49.361,17.873
		c-18.686,0-34.323-5.473-46.926-16.415c-12.596-10.936-18.896-24.839-18.896-41.706c0-18.106,6.653-33.117,19.958-45.029
		c13.307-11.911,29.76-17.866,49.365-17.866c18.685,0,34.323,5.451,46.921,16.363C452.177,226.302,458.478,240.219,458.478,257.146z
		 M429.176,259.711c0-12.325-3.786-22.322-11.359-29.99c-7.572-7.663-16.916-11.5-28.022-11.5c-10.334,0-19.109,3.867-26.331,11.59
		c-7.219,7.725-10.826,17.489-10.826,29.277c0,12.268,3.807,22.251,11.411,29.948c7.603,7.694,16.936,11.546,27.968,11.546
		c10.339,0,19.112-3.878,26.328-11.637C425.571,281.191,429.176,271.447,429.176,259.711L429.176,259.711z"/>
	<path fill="#FFFFFF" d="M597.79,316.863h-26.218c0-2.423-9.735-15.186-29.196-38.307c-20.386-24.356-31.989-41.018-34.816-49.982
		h-1.7c1.771,12.913,2.655,24.589,2.655,35.028c0,14.571,0.493,32.323,1.485,53.261h-26.115c1.058-18.283,1.591-38.365,1.591-60.246
		c0-21.526-0.533-39.835-1.591-54.936h31.53c0,3.128,8.738,15.598,26.218,37.421c18.616,23.176,29.302,38.892,32.062,47.148h1.588
		c-1.698-13.15-2.544-24.948-2.544-35.385c0-15.98-0.492-32.379-1.488-49.185h26.54c-0.989,14.622-1.482,32.937-1.482,54.932
		C596.304,278.793,596.794,298.871,597.79,316.863L597.79,316.863z"/>
	<path fill="#FFFFFF" d="M720.556,285.467c0,23.06-19.882,34.584-59.657,34.584c-13.517,0-26.078-1.353-37.685-4.063l5.199-19.732
		c11.466,3.31,22.298,4.959,32.485,4.959c11.324,0,19.461-0.914,24.418-2.745c4.952-1.831,7.433-4.894,7.433-9.197
		c0-4.479-2.333-8.256-7.01-11.325c-4.034-2.71-12.204-6.25-24.52-10.614c-11.183-4.012-19.5-8.378-24.951-13.095
		c-6.859-5.952-10.293-13.294-10.293-22.024c0-10.146,4.511-18.072,13.537-23.795c9.025-5.721,21.988-8.582,38.905-8.582
		c13.869,0,25.514,0.969,34.927,2.92l-3.933,19.637c-9.553-2.893-19.883-4.33-30.994-4.33c-16.705,0-25.053,3.713-25.053,11.144
		c0,3.953,1.94,7.165,5.838,9.646c3.396,2.122,10.786,5.104,22.187,8.93c12.103,4.073,21.159,8.558,27.18,13.452
		C716.564,267.771,720.556,275.853,720.556,285.467z"/>
	<path fill="#FFFFFF" d="M837.157,297.409l-0.851,19.461h-90.341c0.921-17.808,1.383-37.89,1.383-60.243
		c0-21.467-0.462-39.779-1.383-54.935h86.202l-1.167,19.369c-21.229-0.941-40.484-1.413-57.752-1.413
		c0.709,8.201,1.062,17.87,1.062,29.021c14.789,0,30.604-0.328,47.449-0.976v18.489c-16.56-0.589-32.373-0.886-47.449-0.886
		c0,11.973,0.283,23.176,0.845,33.615C794.551,298.912,815.212,298.408,837.157,297.409z"/>
</g>
<linearGradient id="SVGID_1_" gradientUnits="userSpaceOnUse" x1="-649.6646" y1="-87.1758" x2="-649.6646" y2="8.2367" gradientTransform="matrix(0.463 0 0 -0.463 -155.7317 -56.3794)">
	<stop  offset="0" style="stop-color:#FFFFFF"/>
	<stop  offset="1" style="stop-color:#000000"/>
</linearGradient>
<path fill="url(#SVGID_1_)" d="M-377.145,0.498l-1.073,27.527c-20.488-1.28-39.795-1.92-57.926-1.92
	c-0.206,16.133-0.309,34.103-0.309,53.903c0,30.731,0.563,59.796,1.691,87.198h-43.023c1.331-27.147,1.999-56.212,1.999-87.198
	c0-19.46-0.206-37.427-0.616-53.903c-14.441,0-34.262,0.684-59.459,2.047l1.229-27.657h157.486V0.498z"/>
<linearGradient id="SVGID_2_" gradientUnits="userSpaceOnUse" x1="174.3057" y1="-87.1758" x2="174.3057" y2="8.2367" gradientTransform="matrix(0.463 0 0 -0.463 -155.7317 -56.3794)">
	<stop  offset="0" style="stop-color:#FFFFFF"/>
	<stop  offset="1" style="stop-color:#000000"/>
</linearGradient>
<path fill="url(#SVGID_2_)" d="M4.325,0.498L3.249,28.025c-20.487-1.28-39.793-1.92-57.926-1.92
	c-0.204,16.133-0.306,34.103-0.306,53.903c0,30.731,0.563,59.796,1.689,87.198h-43.021c1.33-27.147,1.999-56.212,1.999-87.198
	c0-19.46-0.207-37.427-0.616-53.903c-14.445,0-34.265,0.684-59.462,2.047l1.232-27.657H4.325V0.498z"/>
<linearGradient id="SVGID_3_" gradientUnits="userSpaceOnUse" x1="559.6045" y1="-87.1689" x2="559.6045" y2="8.2457" gradientTransform="matrix(0.463 0 0 -0.463 -155.7317 -56.3794)">
	<stop  offset="0" style="stop-color:#FFFFFF"/>
	<stop  offset="1" style="stop-color:#000000"/>
</linearGradient>
<path fill="url(#SVGID_3_)" d="M200.757,167.201h-49.164c0-5.637-4.666-21.595-13.986-47.887H66.622
	c-9.63,25.864-14.444,41.828-14.444,47.887H5.931c0-3.329,11.958-30.644,35.878-81.947C65.727,33.954,77.685,5.702,77.685,0.492
	h58.08c0,4.864,10.833,32.715,32.494,83.545C189.921,134.871,200.757,162.591,200.757,167.201z M129.77,94.859
	c-17.514-44.047-26.271-67.862-26.271-71.448h-2.459c0,3.329-9.064,27.147-27.194,71.448H129.77z"/>
<linearGradient id="SVGID_4_" gradientUnits="userSpaceOnUse" x1="966.7725" y1="-87.1714" x2="966.7725" y2="8.2438" gradientTransform="matrix(0.463 0 0 -0.463 -155.7317 -56.3794)">
	<stop  offset="0" style="stop-color:#FFFFFF"/>
	<stop  offset="1" style="stop-color:#000000"/>
</linearGradient>
<path fill="url(#SVGID_4_)" d="M356.303,139.311l-1.226,27.911H227.393c1.229-23.129,1.841-52.196,1.841-87.194
	c0-32.095-0.612-58.597-1.841-79.511h43.175c-1.232,19.377-1.846,45.88-1.846,79.511c0,25.693-0.668,46.093-1.995,61.204
	C294.995,141.231,324.854,140.59,356.303,139.311L356.303,139.311z"/>
<linearGradient id="SVGID_5_" gradientUnits="userSpaceOnUse" x1="-236.8853" y1="-749.6108" x2="-236.8853" y2="-64.6194" gradientTransform="matrix(0.463 0 0 -0.463 -155.7317 -56.3794)">
	<stop  offset="0" style="stop-color:#4064AD"/>
	<stop  offset="0.1775" style="stop-color:#3E5992"/>
	<stop  offset="0.5647" style="stop-color:#2F3C59"/>
	<stop  offset="1" style="stop-color:#0F151D"/>
</linearGradient>
<path fill="url(#SVGID_5_)" d="M-267.913,315.501c-1.048-1.03-104.763-104.864-104.763-230.916
	c0-59.153,48.123-107.275,107.275-107.275c59.15,0,107.275,48.122,107.275,107.275c0,126.051-103.717,229.885-104.763,230.916
	l-2.512,2.479L-267.913,315.501z"/>
<path fill="#FFFFFF" d="M-265.386-19.122c57.269,0,103.697,46.428,103.697,103.697c0,126.017-103.697,228.376-103.697,228.376
	s-103.7-102.359-103.7-228.376C-369.086,27.306-322.658-19.122-265.386-19.122 M-265.386-26.275
	c-61.125,0-110.85,49.729-110.85,110.85c0,66.796,28.787,126.731,52.939,165.238c26.067,41.575,51.801,67.15,52.884,68.222
	l5.023,4.959l5.021-4.959c1.084-1.071,26.82-26.65,52.884-68.222c24.152-38.507,52.943-98.444,52.943-165.238
	C-154.538,23.454-204.265-26.275-265.386-26.275z"/>
<circle fill="#FFFFFF" cx="-265.386" cy="84.577" r="82.84"/>
<polygon fill="#ED1E33" points="-282.098,136.736 -248.699,136.736 -248.699,101.263 -213.251,101.263 -213.251,67.888 
	-248.651,67.959 -248.699,32.44 -282.098,32.44 -282.098,67.888 -317.546,67.888 -317.546,101.263 -282.098,101.263 "/>
</svg>
