<svg width="60.00000000000001" height="60.00000000000001" xmlns="http://www.w3.org/2000/svg">
 <title/>
 <desc/>

 <g>
  <title>background</title>
  <rect fill="none" id="canvas_background" height="402" width="582" y="-1" x="-1"/>
 </g>
 <g>
  <title>Layer 1</title>
  <path fill="#c22227" id="compass" d="m46.4116,18.1797c0.456,-0.314 1.078,-0.198 1.391,0.259c2.746,4.002 4.197,8.691 4.197,13.561c0,6.414 -2.502,12.432 -7.045,16.945c-0.187,0.185 -0.44,0.29 -0.705,0.29c-0.265,0 -0.535,-0.106 -0.722,-0.293l-3.235,-3.235c-0.39,-0.39 -0.39,-1.023 0,-1.414c0.391,-0.39 1.024,-0.39 1.414,0l2.522,2.523c3.729,-4.046 5.771,-9.269 5.771,-14.816c0,-4.465 -1.33,-8.762 -3.847,-12.43c-0.312,-0.455 -0.196,-1.078 0.259,-1.39l0,0zm-4.299,32.009c0.32,0.45 0.214,1.075 -0.237,1.394c-4.07,2.89 -8.868,4.417 -13.876,4.417c-6.433,0 -12.457,-2.507 -16.961,-7.062c-0.283,-0.287 -0.367,-0.716 -0.211,-1.089c0.071,-0.17 0.186,-0.314 0.328,-0.418l3.137,-3.138c0.391,-0.39 1.024,-0.39 1.414,0c0.391,0.391 0.391,1.024 0,1.414l-2.523,2.524c4.037,3.728 9.259,5.769 14.816,5.769c4.591,0 8.988,-1.399 12.718,-4.048c0.451,-0.32 1.075,-0.212 1.395,0.237l0,0zm-31.978,-31.03c-2.705,3.757 -4.135,8.198 -4.135,12.841c0,4.63 1.422,9.06 4.112,12.81c0.321,0.449 0.219,1.073 -0.23,1.395c-0.177,0.127 -0.38,0.188 -0.582,0.188c-0.311,0 -0.618,-0.145 -0.813,-0.417c-2.935,-4.092 -4.487,-8.925 -4.487,-13.976c0,-5.065 1.56,-9.91 4.512,-14.008c0.323,-0.448 0.948,-0.549 1.396,-0.228c0.448,0.322 0.55,0.947 0.227,1.395l0,0zm0.924,-2.686c-0.188,-0.188 -0.293,-0.441 -0.293,-0.707c0,-0.264 0.104,-0.532 0.29,-0.72c4.504,-4.544 10.522,-7.046 16.944,-7.046c6.394,0 12.411,2.507 16.943,7.061c0.389,0.39 0.389,1.022 -0.001,1.412l-3.235,3.234c-0.195,0.196 -0.451,0.293 -0.707,0.293c-0.255,0 -0.511,-0.097 -0.707,-0.293c-0.39,-0.39 -0.39,-1.023 0,-1.414l2.514,-2.513c-4.062,-3.735 -9.281,-5.78 -14.807,-5.78c-5.554,0 -10.777,2.042 -14.815,5.771l2.522,2.522c0.391,0.391 0.391,1.024 0,1.414c-0.39,0.391 -1.023,0.391 -1.414,0l-3.234,-3.234zm16.941,28.983l-3.962,-13.47l3.962,-15.056l3.962,15.056l-3.962,13.47zm0,-33.456c-0.454,0 -0.851,0.307 -0.967,0.745l-5,19c-0.046,0.177 -0.043,0.363 0.008,0.538l5,17c0.125,0.425 0.516,0.717 0.959,0.717c0.444,0 0.834,-0.292 0.96,-0.717l5,-17c0.051,-0.175 0.054,-0.361 0.008,-0.538l-5,-19c-0.116,-0.438 -0.514,-0.745 -0.968,-0.745l0,0zm0,18c1.103,0 2,0.898 2,2c0,1.103 -0.897,2 -2,2c-1.103,0 -2,-0.897 -2,-2c0,-1.102 0.897,-2 2,-2l0,0zm21.552,-18.551c-0.256,0 -0.512,-0.098 -0.707,-0.293c-0.391,-0.391 -0.391,-1.024 0,-1.414l4.448,-4.449c0.391,-0.39 1.024,-0.39 1.414,0c0.391,0.391 0.391,1.024 0,1.414l-4.448,4.449c-0.195,0.195 -0.451,0.293 -0.707,0.293l0,0zm10.448,-5.449c0,3.309 -2.691,6 -6,6c-0.552,0 -1,-0.447 -1,-1c0,-0.552 0.448,-1 1,-1c2.206,0 4,-1.794 4,-4c0,-2.206 -1.794,-4 -4,-4c-2.205,0 -4,1.794 -4,4c0,0.553 -0.447,1 -1,1c-0.552,0 -1,-0.447 -1,-1c0,-3.308 2.692,-6 6,-6c3.309,0 6,2.692 6,6l0,0zm-32,52c-14.336,0 -26,-11.663 -26,-26c0,-14.337 11.664,-26 26,-26c14.337,0 26,11.663 26,26c0,14.337 -11.663,26 -26,26l0,0zm0,-54c-15.439,0 -28,12.561 -28,28c0,15.44 12.561,28 28,28c15.44,0 28,-12.56 28,-28c0,-15.439 -12.56,-28 -28,-28l0,0z"/>
 </g>
</svg>